<?xml version="1.0" standalone="no"?>
<!DOCTYPE svg PUBLIC "-//W3C//DTD SVG 20010904//EN"
 "http://www.w3.org/TR/2001/REC-SVG-20010904/DTD/svg10.dtd">
<svg version="1.0" xmlns="http://www.w3.org/2000/svg"
 width="700.000000pt" height="700.000000pt" viewBox="0 0 700.000000 700.000000"
 preserveAspectRatio="xMidYMid meet">
<metadata>
Created by potrace 1.14, written by Peter Selinger 2001-2017
</metadata>
<g transform="translate(0.000000,700.000000) scale(0.100000,-0.100000)"
fill="#000000" stroke="none">
<path d="M3367 5814 c-1 -1 -123 -5 -272 -8 -350 -8 -499 -15 -850 -41 -139
-10 -222 -18 -347 -30 -29 -3 -73 -8 -98 -10 -122 -11 -251 -25 -270 -30 -8
-2 -44 -6 -80 -10 -36 -3 -75 -7 -85 -9 -11 -2 -49 -7 -85 -12 -36 -4 -67 -8
-70 -9 -3 -1 -32 -4 -65 -9 -96 -12 -136 -19 -240 -41 -103 -21 -263 -93 -370
-165 -275 -185 -445 -486 -490 -864 -4 -28 -8 -52 -10 -55 -1 -3 -6 -40 -10
-81 -4 -41 -9 -78 -12 -83 -2 -4 -6 -60 -8 -125 -3 -99 0 -126 17 -177 42
-121 135 -232 237 -281 78 -38 90 -42 146 -51 59 -10 40 -10 665 12 69 3 197
7 285 10 88 3 214 8 280 10 66 2 201 7 300 10 99 3 230 8 290 10 61 2 196 7
300 10 274 9 319 13 386 35 108 37 190 100 251 194 49 76 73 162 88 309 6 65
13 128 15 140 5 30 16 132 21 187 2 25 6 61 9 80 2 19 7 62 10 95 4 33 8 76
11 95 2 19 6 53 9 75 18 147 64 197 179 198 121 2 154 -52 181 -288 9 -82 18
-163 20 -180 2 -16 6 -55 10 -85 3 -30 7 -73 10 -95 2 -22 7 -61 10 -87 13
-118 23 -208 30 -263 22 -169 176 -337 352 -384 48 -13 126 -19 364 -26 102
-3 232 -7 290 -10 57 -2 187 -7 289 -10 102 -3 237 -7 300 -10 63 -2 196 -7
295 -10 280 -10 375 -13 590 -21 263 -9 325 -8 388 6 142 33 280 155 336 297
27 69 35 164 22 269 -6 49 -13 116 -16 149 -4 33 -8 67 -10 75 -3 8 -7 38 -10
65 -51 442 -295 790 -669 954 -91 40 -247 84 -341 96 -45 6 -67 9 -145 20 -32
4 -115 15 -160 21 -19 2 -48 6 -65 9 -32 5 -84 11 -180 20 -33 3 -75 8 -93 11
-19 2 -66 7 -105 10 -40 3 -79 7 -87 9 -8 2 -60 7 -115 11 -55 3 -107 8 -115
9 -9 2 -60 6 -115 10 -55 3 -122 8 -150 10 -27 3 -102 7 -165 10 -63 4 -146 8
-185 10 -102 6 -894 22 -898 19z"/>
<path d="M380 3274 c-80 -18 -171 -69 -232 -129 -32 -31 -60 -65 -63 -76 -4
-10 -10 -19 -15 -19 -10 0 -47 -93 -60 -155 -10 -44 -7 -191 4 -250 2 -11 7
-47 10 -80 4 -33 9 -67 11 -75 2 -8 6 -42 10 -75 24 -221 111 -449 236 -615
192 -255 486 -409 849 -445 36 -4 83 -10 105 -15 22 -5 69 -11 105 -15 86 -9
128 -14 170 -20 19 -2 58 -7 85 -10 28 -3 66 -7 85 -10 19 -2 69 -7 110 -11
41 -3 82 -7 90 -9 8 -2 53 -6 100 -10 47 -3 105 -8 130 -10 78 -7 162 -14 260
-20 52 -3 120 -8 150 -10 30 -3 125 -7 210 -11 85 -3 191 -8 235 -10 103 -5
962 -5 1080 0 186 7 382 17 435 21 30 3 102 7 160 10 58 3 116 8 130 10 14 2
72 7 130 10 57 4 112 8 121 10 9 2 56 6 105 10 49 4 97 9 106 10 9 2 48 6 85
10 37 3 79 8 93 10 14 3 52 7 85 10 33 4 67 8 75 10 8 2 44 7 80 10 36 3 92
10 125 15 33 5 83 12 110 15 373 46 653 199 846 461 115 156 196 376 224 603
4 30 9 63 11 75 2 11 11 88 20 170 19 168 13 245 -28 334 -78 171 -267 292
-448 286 -342 -11 -508 -17 -570 -19 -41 -2 -165 -6 -275 -10 -110 -3 -245 -8
-300 -10 -55 -2 -183 -6 -285 -10 -102 -3 -234 -8 -295 -10 -60 -3 -193 -7
-295 -10 -354 -10 -409 -20 -514 -90 -133 -88 -199 -210 -221 -405 -3 -30 -8
-71 -10 -90 -2 -19 -7 -57 -10 -85 -3 -27 -7 -66 -10 -85 -2 -19 -11 -100 -20
-180 -32 -293 -34 -306 -46 -354 -23 -88 -79 -126 -176 -120 -97 6 -141 61
-157 194 -20 162 -41 356 -52 460 -3 30 -7 66 -9 80 -2 14 -6 52 -10 85 -11
113 -16 146 -25 198 -32 171 -184 328 -356 368 -56 13 -88 15 -344 23 -102 4
-237 8 -300 11 -63 2 -196 7 -295 10 -99 3 -229 8 -290 10 -147 5 -432 15
-580 20 -66 2 -210 7 -320 11 -305 10 -313 10 -365 -2z"/>
</g>
</svg>
