<svg width="100" height="14" viewBox="0 0 100 14" fill="none" xmlns="http://www.w3.org/2000/svg">
    <g clip-path="url(#clip0_152_1655)">
    <path d="M7.86219 10.7191H3.48057L2.63251 13.1749H0L4.68198 1.47879H6.73145L11.4134 13.1572H8.71025L7.86219 10.7191ZM4.16961 8.75795H7.17314L5.65371 4.42932L4.16961 8.75795ZM16.3251 4.18197C16.8198 4.18197 17.2438 4.25265 17.6148 4.37632C17.9859 4.5 18.3039 4.67667 18.5689 4.87102V0.630737H20.9717V8.52826C20.9717 9.25265 20.8657 9.90636 20.6537 10.5071C20.4417 11.0901 20.1237 11.6025 19.735 12.0265C19.3286 12.4505 18.8339 12.7862 18.2686 13.0159C17.6855 13.2456 17.0495 13.3693 16.3251 13.3693C15.6537 13.3693 15.0353 13.2456 14.4876 13.0159C13.9223 12.7862 13.4452 12.4505 13.0389 12.0265C12.6325 11.6025 12.3145 11.1254 12.0848 10.5601C11.8551 9.9947 11.7491 9.39399 11.7491 8.75795C11.7491 8.10424 11.8728 7.50353 12.1025 6.95583C12.3322 6.40812 12.6678 5.91342 13.0742 5.50706C13.4806 5.1007 13.9753 4.76501 14.5406 4.53533C15.0707 4.30565 15.6714 4.18197 16.3251 4.18197ZM16.3604 11.2844C16.7138 11.2844 17.0318 11.2138 17.3145 11.0901C17.5972 10.9664 17.8445 10.7897 18.0565 10.5777C18.2686 10.3481 18.4276 10.083 18.5336 9.78268C18.6396 9.46466 18.7102 9.12897 18.7102 8.75795C18.7102 8.0159 18.4982 7.39752 18.0565 6.95583C17.6325 6.49646 17.0495 6.26678 16.3428 6.26678C15.636 6.26678 15.053 6.49646 14.629 6.95583C14.2049 7.41519 13.9753 8.0159 13.9753 8.75795C13.9753 9.12897 14.0283 9.48233 14.1519 9.78268C14.258 10.1007 14.4346 10.3657 14.629 10.5777C14.841 10.8074 15.0883 10.9664 15.371 11.0901C15.689 11.2314 16.0071 11.2844 16.3604 11.2844ZM26.9258 4.18197C27.4205 4.18197 27.8445 4.25265 28.2155 4.37632C28.5866 4.5 28.9046 4.65901 29.1696 4.87102V0.630737H31.5724V8.52826C31.5724 9.25265 31.4664 9.90636 31.2544 10.5071C31.0424 11.0901 30.7244 11.6025 30.3357 12.0265C29.9293 12.4505 29.4346 12.7862 28.8693 13.0159C28.2862 13.2456 27.6502 13.3693 26.9258 13.3693C26.2544 13.3693 25.636 13.2456 25.0883 13.0159C24.523 12.7862 24.0459 12.4505 23.6396 12.0265C23.2332 11.6025 22.9152 11.1254 22.6855 10.5601C22.4558 9.9947 22.3498 9.39399 22.3498 8.75795C22.3498 8.10424 22.4735 7.50353 22.7032 6.95583C22.9329 6.40812 23.2686 5.91342 23.6749 5.50706C24.0813 5.1007 24.576 4.76501 25.1413 4.53533C25.6714 4.30565 26.2898 4.18197 26.9258 4.18197ZM26.9611 11.2844C27.3145 11.2844 27.6325 11.2138 27.9152 11.0901C28.1979 10.9664 28.4452 10.7897 28.6572 10.5777C28.8693 10.3481 29.0283 10.083 29.1343 9.78268C29.2403 9.46466 29.311 9.12897 29.311 8.75795C29.311 8.0159 29.0989 7.39752 28.6572 6.95583C28.2332 6.49646 27.6502 6.26678 26.9435 6.26678C26.2367 6.26678 25.6537 6.49646 25.2297 6.95583C24.8057 7.41519 24.576 8.0159 24.576 8.75795C24.576 9.12897 24.629 9.48233 24.7527 9.78268C24.8587 10.1007 25.0353 10.3657 25.2297 10.5777C25.4417 10.8074 25.689 10.9664 25.9717 11.0901C26.2898 11.2314 26.6078 11.2844 26.9611 11.2844ZM33.3569 0.630737H35.7597V3.03356H33.3569V0.630737ZM33.3569 4.39399H35.7597V13.1749H33.3569V4.39399ZM41.7491 9.41166C41.6254 9.42932 41.4841 9.44699 41.3074 9.44699C41.1484 9.44699 41.0071 9.44699 40.9187 9.44699H40.0707V13.1572H37.6678V0.630737H40.0707V7.41519H40.7067C41.4664 7.41519 42.0848 7.15017 42.5442 6.62014C43.0212 6.0901 43.2862 5.34805 43.3569 4.37632H45.6537C45.6537 5.22438 45.477 6.00176 45.1413 6.72614C44.8057 7.43286 44.3463 8.0159 43.7633 8.47526L46.4664 13.1572H43.8516L41.7491 9.41166ZM51.0777 13.3693C50.424 13.3693 49.8233 13.2456 49.2579 13.0159C48.6926 12.7862 48.1979 12.4505 47.7739 12.0265C47.3498 11.6025 47.0318 11.1254 46.7845 10.5601C46.5548 10.0124 46.4311 9.41166 46.4311 8.75795C46.4311 8.10424 46.5548 7.50353 46.7845 6.95583C47.0141 6.40812 47.3498 5.91342 47.7739 5.50706C48.1979 5.1007 48.6926 4.78268 49.2579 4.53533C49.8233 4.30565 50.424 4.18197 51.0777 4.18197C51.7314 4.18197 52.3322 4.30565 52.8975 4.53533C53.4629 4.76501 53.9576 5.1007 54.3816 5.50706C54.8057 5.91342 55.1237 6.39045 55.371 6.95583C55.6007 7.50353 55.7244 8.10424 55.7244 8.75795C55.7244 9.41166 55.6007 10.0124 55.371 10.5601C55.1413 11.1078 54.8057 11.6025 54.3816 12.0265C53.9576 12.4505 53.4629 12.7685 52.8975 13.0159C52.3322 13.2456 51.7314 13.3693 51.0777 13.3693ZM51.0777 11.2844C51.4311 11.2844 51.7491 11.2138 52.0318 11.0901C52.3145 10.9664 52.5618 10.7897 52.7739 10.5777C52.9859 10.3481 53.1449 10.083 53.2509 9.78268C53.3569 9.46466 53.4276 9.12897 53.4276 8.75795C53.4276 8.0159 53.2155 7.39752 52.7739 6.95583C52.3498 6.49646 51.7668 6.26678 51.0601 6.26678C50.3534 6.26678 49.7703 6.49646 49.3463 6.95583C48.9223 7.41519 48.6926 8.0159 48.6926 8.75795C48.6926 9.12897 48.7456 9.48233 48.8693 9.78268C48.9753 10.1007 49.1519 10.3657 49.3463 10.5777C49.5583 10.8074 49.8057 10.9664 50.0883 11.0901C50.424 11.2314 50.7421 11.2844 51.0777 11.2844ZM68.2862 4.83568C68.2862 5.34805 68.1802 5.80742 67.9505 6.19611C67.7208 6.60247 67.4028 6.90282 66.9611 7.09717C67.4912 7.27385 67.8975 7.5742 68.2332 8.0159C68.5512 8.45759 68.7103 9.0053 68.7103 9.65901C68.7103 10.1714 68.6219 10.6307 68.4276 11.0548C68.2332 11.4788 67.9682 11.8498 67.6325 12.1678C67.2968 12.4859 66.8905 12.7155 66.4134 12.8922C65.9364 13.0689 65.424 13.1396 64.8763 13.1396H59.8587V1.47879H64.576C65.1413 1.47879 65.6537 1.54947 66.1131 1.70848C66.5724 1.86749 66.9611 2.09717 67.2792 2.37985C67.5972 2.68021 67.8445 3.03356 68.0212 3.43992C68.1979 3.86395 68.2862 4.32332 68.2862 4.83568ZM62.2085 6.26678H64.3816C64.894 6.26678 65.2827 6.1431 65.53 5.89575C65.7951 5.64841 65.9187 5.29505 65.9187 4.85335C65.9187 4.44699 65.7774 4.1113 65.5124 3.88162C65.2474 3.63427 64.8587 3.5106 64.3816 3.5106H62.2085V6.26678ZM62.2085 8.24558V11.1078H64.682C65.1944 11.1078 65.6007 10.9841 65.9011 10.7191C66.2014 10.4717 66.3604 10.1184 66.3604 9.67667C66.3604 9.19964 66.2191 8.84628 65.9187 8.59894C65.636 8.36925 65.212 8.24558 64.682 8.24558H62.2085ZM76.8375 13.1572V12.2562C76.5724 12.5919 76.2191 12.8569 75.7774 13.0512C75.3357 13.2456 74.8057 13.3516 74.1696 13.3516C73.5512 13.3516 72.9859 13.2456 72.4735 13.0159C71.9435 12.7862 71.5018 12.4859 71.1307 12.0795C70.7597 11.6731 70.4594 11.1961 70.2297 10.6307C70.0177 10.0654 69.9117 9.44699 69.9117 8.75795C69.9117 8.10424 70.0353 7.50353 70.265 6.95583C70.4947 6.40812 70.8304 5.91342 71.2368 5.50706C71.6431 5.1007 72.1378 4.78268 72.7032 4.53533C73.2686 4.30565 73.8869 4.18197 74.5406 4.18197C75.212 4.18197 75.8304 4.28798 76.3958 4.51766C76.9611 4.74734 77.4558 5.06537 77.8622 5.47173C78.2686 5.87809 78.5866 6.37279 78.8163 6.93816C79.0459 7.50353 79.1519 8.1219 79.1519 8.79328V13.1572H76.8375ZM74.5406 6.24911C73.8339 6.24911 73.2509 6.47879 72.8269 6.93816C72.4028 7.39752 72.1731 7.99823 72.1731 8.74028C72.1731 9.1113 72.2262 9.46466 72.3498 9.76501C72.4558 10.083 72.6325 10.3481 72.8269 10.5601C73.0389 10.7897 73.2862 10.9488 73.5689 11.0724C73.8516 11.1961 74.1696 11.2668 74.523 11.2668C74.8763 11.2668 75.1944 11.1961 75.477 11.0724C75.7597 10.9488 76.0071 10.7721 76.2191 10.5601C76.4311 10.3304 76.5901 10.0654 76.6961 9.76501C76.8021 9.44699 76.8728 9.1113 76.8728 8.74028C76.8728 7.99823 76.6608 7.37985 76.2191 6.93816C75.8304 6.47879 75.265 6.24911 74.5406 6.24911ZM85.1767 6.31978C84.5936 6.31978 84.1519 6.49646 83.8163 6.84982C83.4806 7.20318 83.3216 7.69788 83.3216 8.29858V13.1396H80.9187V8.29858C80.9187 7.66254 81.0247 7.09717 81.2191 6.5848C81.4134 6.07243 81.6961 5.64841 82.0671 5.29505C82.4382 4.94169 82.8799 4.65901 83.4099 4.46466C83.9399 4.27031 84.523 4.18197 85.1767 4.18197C85.8304 4.18197 86.4134 4.27031 86.9435 4.46466C87.4735 4.65901 87.9152 4.92402 88.2862 5.29505C88.6572 5.64841 88.9399 6.0901 89.1343 6.5848C89.3286 7.09717 89.4346 7.66254 89.4346 8.29858V13.1572H87.0318V8.31625C87.0318 7.69788 86.8728 7.22084 86.5371 6.86749C86.2014 6.49646 85.7421 6.31978 85.1767 6.31978ZM95.2473 9.41166C95.1237 9.42932 94.9823 9.44699 94.8233 9.44699C94.6643 9.44699 94.5406 9.44699 94.4523 9.44699H93.6042V13.1572H91.2014V0.630737H93.6042V7.41519H94.2403C95 7.41519 95.6184 7.15017 96.0777 6.62014C96.5548 6.0901 96.8198 5.34805 96.8905 4.37632H99.1873C99.1873 5.22438 99.0283 6.00176 98.6926 6.70848C98.3569 7.41519 97.9152 7.99823 97.3322 8.45759L100 13.1572H97.3498L95.2473 9.41166Z" fill="#4B4B4B"/>
    </g>
    <defs>
    <clipPath id="clip0_152_1655">
    <rect width="100" height="12.7385" fill="white" transform="translate(0 0.630737)"/>
    </clipPath>
    </defs>
    </svg>
    