<svg width="120" height="16" viewBox="0 0 120 16" fill="none" xmlns="http://www.w3.org/2000/svg">
    <g clip-path="url(#clip0_152_1658)">
    <path d="M13.9567 4.64563C13.8569 4.58573 13.7371 4.56576 13.6173 4.58573C13.0183 4.54579 12.3993 4.52583 11.8003 4.5458H11.7604C11.4409 4.5458 11.1215 4.5458 10.802 4.5458L8.20631 4.48589C7.60731 4.46593 6.92844 4.46593 6.26954 4.50586C5.79034 4.50586 5.31114 4.52583 4.83193 4.5458C4.33277 4.56576 3.13476 4.56576 2.43593 4.56576C2.05656 4.56576 1.85689 4.56576 1.83693 4.56576C1.73709 4.58573 1.65723 4.68556 1.65723 4.78539C1.65723 4.84529 1.69716 4.9052 1.77703 4.9052C1.83693 4.9052 2.27619 4.9052 3.0549 4.9052H3.85357C4.0732 4.9052 4.17303 4.9052 4.21297 4.9052C4.792 4.86526 5.37104 4.8453 5.95007 4.8453H5.99C6.34941 4.8453 6.74874 4.8453 7.12811 4.82533C7.20797 4.8453 7.28784 4.82533 7.36771 4.80536H7.38767C7.42761 4.80536 7.46754 4.78539 7.50747 4.78539C7.60731 4.80536 7.70714 4.80536 7.80698 4.80536C7.90681 4.80536 8.00664 4.80536 8.10648 4.82533H8.12644C8.20631 4.80536 8.28618 4.80536 8.36604 4.82533H8.38601C8.42594 4.82533 8.46588 4.8453 8.48584 4.8453C9.34441 4.82533 10.203 4.86526 11.0616 4.92516L11.5408 4.98506C11.98 4.96509 12.4193 4.9651 12.8386 5.00503H12.8586C13.178 5.025 13.4775 5.04496 13.797 5.04496H13.817L13.9767 4.92516C14.0366 4.82533 14.0166 4.7255 13.9567 4.64563Z" fill="#4B4B4B"/>
    <path d="M9.6639 10.1565L9.68387 10.1165L9.6639 9.09822C9.64394 8.93849 9.64394 8.75879 9.64394 8.59905C9.64394 8.39939 9.62397 8.19972 9.604 8.02002C9.58404 7.74049 9.5441 7.48092 9.50417 7.20138L9.46424 7.02168V7.00172L9.44427 6.98175C9.40434 6.94181 9.38437 6.88192 9.38437 6.82202C9.3644 6.76212 9.34443 6.72218 9.32447 6.68225C9.2446 6.56245 9.16474 6.44265 9.04493 6.32285C9.02497 6.30288 9.005 6.28291 8.96507 6.26294C8.9451 6.26294 8.9451 6.24298 8.92513 6.24298L8.90517 6.22301H8.8852L8.86523 6.20305C8.78537 6.14315 8.7055 6.10321 8.60567 6.08324C8.5857 6.04331 8.5258 6.04332 8.48587 6.04332V6.00338H8.44593L8.2263 5.96344H8.18637L8.1664 5.98341C8.1664 6.00338 8.14643 6.00338 8.1065 5.98341C8.08653 5.98341 8.06656 5.96344 8.02663 5.96344H8.00666L7.9867 5.98341L7.96673 5.96344L7.8669 5.94348V5.98341C7.82696 5.98341 7.78703 5.98341 7.76706 6.00338H7.48753L7.5075 6.06328C7.46756 6.06328 7.40766 6.06328 7.36773 6.10321C7.36773 6.10321 7.34776 6.10321 7.34776 6.12318C7.30783 6.12318 7.28786 6.14314 7.24793 6.16311C7.24793 6.16311 7.22796 6.18308 7.208 6.18308H7.18803L7.16806 6.20305C7.12813 6.24298 7.0882 6.26294 7.04826 6.26294L6.9684 6.30288L6.98836 6.32285C6.9684 6.32285 6.9684 6.34282 6.94843 6.34282H6.86856V6.40271L6.82863 6.38275L6.80866 6.42268C6.74876 6.48258 6.70883 6.56245 6.64893 6.60238C6.56906 6.68225 6.50916 6.76212 6.44926 6.84198L6.42929 6.86195L6.44926 6.88191C6.42929 6.90188 6.40933 6.92185 6.38936 6.96178C6.36939 6.98175 6.34943 7.02168 6.34943 7.06161V7.08158C6.32946 7.10155 6.30949 7.14148 6.30949 7.18141C6.30949 7.20138 6.30949 7.22135 6.28953 7.22135L6.24959 7.26128L6.26956 7.28125C6.26956 7.30121 6.24959 7.32118 6.24959 7.36111V7.38108L6.22963 7.40105V7.44099C6.22963 7.50089 6.22963 7.58075 6.22963 7.64065C6.20966 7.72052 6.20966 7.78041 6.22963 7.86028C6.20966 7.90022 6.20966 7.94015 6.20966 7.98008C6.20966 8.00005 6.20966 8.00005 6.20966 8.02002L6.16973 8.03999L6.18969 8.07992C6.20966 8.11985 6.18969 8.17975 6.16973 8.21969C6.14976 8.25962 6.14976 8.31952 6.14976 8.37942C6.14976 8.37942 6.14976 8.37942 6.12979 8.39939C6.12979 8.41935 6.10983 8.41935 6.12979 8.43932C6.12979 8.45929 6.12979 8.47925 6.12979 8.49922L6.10983 8.55912V8.57908L6.14976 8.61902C6.14976 8.63899 6.14976 8.67892 6.14976 8.69889C6.14976 8.73882 6.14976 8.75878 6.14976 8.75878L6.12979 8.81869L6.14976 8.85862C6.14976 8.89855 6.14976 8.93848 6.16973 8.95845V8.97842L6.10983 8.99839L6.14976 9.07825V9.09822C6.12979 9.13815 6.14976 9.17809 6.14976 9.19805C6.12979 9.23799 6.12979 9.27792 6.14976 9.31786V9.33782C6.10983 9.37776 6.10983 9.45762 6.12979 9.49756C6.10983 9.53749 6.10983 9.57742 6.10983 9.59739L6.04993 9.61736L6.12979 9.69722C6.12979 9.71719 6.12979 9.73715 6.12979 9.75712C6.12979 9.77709 6.14976 9.77709 6.14976 9.77709H6.12979L6.14976 9.83699C6.14976 9.87693 6.14976 9.91686 6.16973 9.93683C6.16973 9.93683 6.14976 9.95679 6.14976 9.97676L6.12979 9.99672L6.14976 10.0367C6.16973 10.0766 6.16973 10.1165 6.14976 10.1764C6.12979 10.2363 6.12979 10.2962 6.14976 10.3561L6.10983 10.3961L6.14976 10.436C6.12979 10.4759 6.12979 10.5159 6.14976 10.5558C6.14976 10.5957 6.14976 10.6157 6.14976 10.6556C6.12979 10.7155 6.14976 10.7954 6.16973 10.8553V10.9152C6.16973 10.9352 6.16973 10.9551 6.16973 10.9751L6.14976 10.9951L6.16973 11.035C6.18969 11.0949 6.18969 11.1548 6.18969 11.2147C6.16973 11.3545 6.20966 11.4743 6.30949 11.5741L6.32946 11.5941H6.36939C6.42929 11.5741 6.46923 11.5142 6.44926 11.4543V11.4343V11.4144V11.3944C6.42929 11.2746 6.42929 11.1348 6.44926 11.015C6.44926 10.9751 6.44926 10.9551 6.44926 10.9152V10.8952V10.8753C6.42929 10.8353 6.42929 10.7754 6.42929 10.7355C6.42929 10.6756 6.42929 10.6357 6.42929 10.5758C6.44926 10.3162 6.44926 10.0766 6.42929 9.81702C6.42929 9.71719 6.42929 9.61736 6.42929 9.51752C6.40933 9.39772 6.40933 9.27792 6.42929 9.15812C6.42929 9.05828 6.42929 8.93849 6.42929 8.83866C6.44926 8.71886 6.44926 8.61902 6.44926 8.49922C6.44926 8.43932 6.44926 8.39939 6.44926 8.33949V8.31952C6.46923 8.29955 6.48919 8.25962 6.46923 8.21969C6.46923 8.17975 6.48919 8.13982 6.48919 8.09988C6.48919 8.07992 6.48919 8.03999 6.48919 8.02002V8.00005V7.98008C6.48919 7.96012 6.48919 7.92018 6.48919 7.90022C6.50916 7.86028 6.50916 7.82035 6.48919 7.78042C6.52913 7.68058 6.54909 7.58075 6.54909 7.48092V7.44099C6.54909 7.42102 6.54909 7.40105 6.52913 7.38108C6.52913 7.34115 6.54909 7.28125 6.58903 7.24132C6.62896 7.18142 6.66889 7.12152 6.66889 7.04165V7.02168C6.66889 7.02168 6.66889 7.02168 6.68886 7.00172C6.70883 6.98175 6.7288 6.96178 6.74876 6.92185V6.90188C6.7887 6.86195 6.80866 6.82201 6.82863 6.78208C6.84859 6.72218 6.88853 6.68225 6.94843 6.68225H6.98836V6.66228C6.98836 6.62235 7.0283 6.60238 7.06823 6.58241C7.10816 6.56245 7.1481 6.52251 7.16806 6.50255C7.18803 6.50255 7.22796 6.50255 7.24793 6.48258C7.28786 6.46261 7.3278 6.44265 7.36773 6.42268C7.42763 6.38275 7.42763 6.36278 7.46756 6.38275L7.5075 6.40271L7.52746 6.38275C7.54743 6.38275 7.5674 6.36278 7.58736 6.34282C7.60733 6.34282 7.60733 6.34281 7.6273 6.32285C7.64726 6.32285 7.66723 6.30288 7.66723 6.32285C7.6872 6.32285 7.70716 6.34281 7.72713 6.32285H7.76706H7.82696C7.96673 6.28291 8.12647 6.30288 8.26623 6.34282L8.30617 6.36278L8.32613 6.32285L8.3461 6.34282C8.38603 6.40272 8.44593 6.42268 8.5258 6.42268C8.54577 6.44265 8.56573 6.44264 8.5857 6.46261L8.60567 6.48258L8.62563 6.50255C8.66557 6.54248 8.7055 6.56244 8.74543 6.56244C8.8253 6.64231 8.90517 6.74215 8.9451 6.86195V6.92185H8.98503C9.005 7.00172 9.02497 7.08158 9.08487 7.14148C9.0649 7.18142 9.08487 7.20138 9.08487 7.24132V7.26128L9.0649 7.30122L9.10483 7.34115C9.10483 7.38109 9.1248 7.40105 9.1248 7.44099V7.46095V7.48092C9.08487 7.54082 9.10483 7.62068 9.16474 7.66061C9.16474 7.66061 9.16473 7.66062 9.1847 7.68058C9.16473 7.70055 9.16474 7.72051 9.16474 7.76045V7.80038L9.1847 7.82035C9.1847 7.84032 9.1847 7.84031 9.20467 7.86028L9.1847 7.88025L9.16474 7.92019L9.1847 7.96012H9.20467C9.20467 7.98008 9.20467 8.00005 9.22463 8.02002V8.03999C9.1847 8.13982 9.20467 8.25962 9.2446 8.33949C9.22464 8.37942 9.22463 8.39939 9.22463 8.43932C9.22463 8.43932 9.22463 8.45928 9.22463 8.47925L9.20467 8.53916C9.20467 8.53916 9.22464 8.53915 9.2446 8.55912V8.57908L9.22463 8.63899H9.2446C9.2446 8.65896 9.2446 8.67892 9.2446 8.69889C9.2446 8.71885 9.2446 8.75879 9.22463 8.77875C9.22463 8.83865 9.22464 8.89856 9.2446 8.93849V8.95845C9.22464 8.97842 9.22463 8.97842 9.22463 8.99839C9.22463 8.99839 9.22463 8.99839 9.22463 9.01836L9.20467 9.03832V9.07825C9.20467 9.09822 9.22464 9.09822 9.2446 9.11819C9.2446 9.13816 9.2446 9.13815 9.2446 9.15812V9.17809H9.20467L9.22463 9.21802C9.20467 9.23799 9.20467 9.25795 9.22463 9.27792L9.20467 9.31786C9.20467 9.33782 9.22463 9.33782 9.22463 9.35779C9.22463 9.41769 9.2446 9.47759 9.28453 9.51752C9.3045 9.53749 9.3045 9.53749 9.3045 9.55745H9.28453L9.3045 9.63732C9.3045 9.63732 9.28453 9.63732 9.28453 9.65729L9.2446 9.67725L9.26457 9.73716V9.75712C9.26457 9.77709 9.26457 9.79706 9.26457 9.81702C9.2446 9.83699 9.22463 9.85696 9.22463 9.89689V9.95679H9.26457C9.26457 9.97675 9.26457 9.97676 9.2446 9.99672C9.2446 10.0167 9.2446 10.0367 9.22463 10.0367L9.3045 10.0766C9.3045 10.0966 9.28453 10.1165 9.28453 10.1365V10.1565H9.22463V10.2363C9.22463 10.2563 9.22463 10.2563 9.22463 10.2763C9.22463 10.2962 9.22463 10.3162 9.22463 10.3162V10.3961C9.22463 10.416 9.22463 10.416 9.22463 10.436V10.4759C9.22463 10.4959 9.22463 10.5159 9.22463 10.5358C9.22463 10.5558 9.22463 10.5558 9.22463 10.5758L9.16474 10.5957L9.22463 10.6556C9.20467 10.6756 9.20467 10.6956 9.20467 10.7155H9.16474L9.2446 10.8154C9.2446 10.8353 9.26457 10.8353 9.26457 10.8553C9.2446 10.8753 9.22463 10.9152 9.22463 10.9551C9.22463 10.9751 9.22463 10.9751 9.22463 10.9951L9.2446 11.015C9.22464 11.015 9.22463 11.035 9.22463 11.055C9.22463 11.0749 9.22463 11.0949 9.22463 11.1149H9.1847L9.2446 11.1748L9.1847 11.1947L9.22463 11.2347V11.3944C9.22463 11.4144 9.2446 11.4343 9.26457 11.4543C9.28454 11.4743 9.32447 11.4743 9.34444 11.4743V11.5342L9.4243 11.5142C9.46423 11.4942 9.52414 11.4942 9.56407 11.4942L9.62397 11.5142V11.4543C9.64394 11.2347 9.64394 11.015 9.64394 10.7954C9.62397 10.5957 9.64394 10.3961 9.6639 10.2164C9.68387 10.2164 9.68387 10.1764 9.6639 10.1565Z" fill="#4B4B4B"/>
    <path d="M5.35108 10.1565L5.37104 10.1165L5.35108 9.09822C5.33111 8.93849 5.33111 8.77875 5.33111 8.59905C5.33111 8.39939 5.31114 8.19972 5.29118 8.02002C5.27121 7.74049 5.25124 7.48092 5.19134 7.20138L5.15141 7.02168V7.00172L5.13144 6.98175C5.09151 6.94181 5.07154 6.88192 5.07154 6.82202C5.05158 6.76212 5.03161 6.72218 5.01164 6.68225C4.93178 6.56245 4.85191 6.44265 4.73211 6.32285C4.71214 6.30288 4.69218 6.28291 4.65224 6.26294C4.63228 6.26294 4.63227 6.24298 4.61231 6.24298L4.59234 6.22301H4.57237L4.55241 6.20305C4.47254 6.14315 4.39267 6.10321 4.29284 6.08324C4.27287 6.04331 4.23294 6.04332 4.17304 6.04332V6.00338H4.13311L3.91347 5.96344H3.87354L3.85357 5.98341C3.85357 6.00338 3.83361 6.00338 3.79367 5.98341C3.77371 5.98341 3.75374 5.96344 3.7138 5.96344H3.69384L3.67387 5.98341L3.65391 5.96344L3.55407 5.94348V5.98341C3.51414 5.98341 3.47421 5.98341 3.45424 6.00338H3.1747L3.19467 6.06328C3.15474 6.06328 3.09484 6.06328 3.0549 6.10321C3.0549 6.10321 3.03494 6.10321 3.03494 6.12318C2.995 6.12318 2.97504 6.14314 2.9351 6.16311C2.9351 6.16311 2.91514 6.18308 2.89517 6.18308H2.8752L2.85524 6.20305C2.8153 6.24298 2.77537 6.26294 2.73544 6.26294L2.65557 6.30288L2.67554 6.32285C2.65557 6.32285 2.65557 6.34282 2.6356 6.34282H2.55574V6.40271L2.5158 6.38275L2.49584 6.42268C2.43593 6.48258 2.396 6.56245 2.3361 6.60238C2.25623 6.68225 2.19633 6.76212 2.13643 6.84198L2.11647 6.86195L2.13643 6.88191C2.11647 6.90188 2.0965 6.92185 2.07653 6.96178C2.05657 6.98175 2.0366 7.02168 2.0366 7.06161V7.08158C2.01663 7.10155 1.99667 7.14148 1.99667 7.18141C1.99667 7.20138 1.99667 7.22135 1.9767 7.22135L1.93677 7.26128L1.95673 7.28125C1.95673 7.30121 1.93677 7.32118 1.93677 7.36111V7.38108L1.9168 7.40105V7.44099C1.9168 7.50089 1.9168 7.58075 1.9168 7.64065C1.89683 7.72052 1.89683 7.78041 1.89683 7.86028C1.87687 7.90022 1.87687 7.94015 1.87687 7.98008C1.87687 8.00005 1.87687 8.00005 1.87687 8.02002L1.83693 8.03999L1.8569 8.07992C1.87687 8.11985 1.8569 8.15979 1.83693 8.21969C1.81697 8.25962 1.81697 8.31952 1.81697 8.37942C1.797 8.39938 1.797 8.41935 1.797 8.43932C1.797 8.45929 1.797 8.47925 1.797 8.49922L1.77703 8.55912V8.57908L1.81697 8.61902C1.81697 8.63899 1.81697 8.67892 1.81697 8.69889C1.81697 8.73882 1.81697 8.75878 1.81697 8.75878L1.77703 8.81869L1.81697 8.85862C1.81697 8.89855 1.81697 8.93848 1.83693 8.95845V8.97842L1.77703 8.99839L1.81697 9.07825V9.09822C1.797 9.13815 1.81697 9.17809 1.81697 9.19805C1.797 9.23799 1.797 9.27792 1.81697 9.31786V9.33782C1.77703 9.37776 1.77703 9.45762 1.797 9.49756C1.77703 9.53749 1.77703 9.57742 1.77703 9.59739L1.71713 9.61736L1.797 9.69722C1.797 9.71719 1.797 9.73715 1.797 9.75712C1.797 9.77709 1.81697 9.77709 1.83693 9.77709H1.81697L1.83693 9.83699C1.83693 9.87693 1.83693 9.91686 1.8569 9.93683C1.8569 9.93683 1.83693 9.95679 1.83693 9.97676L1.81697 9.99672L1.83693 10.0367C1.8569 10.0766 1.8569 10.1165 1.83693 10.1764C1.81697 10.2363 1.81697 10.2962 1.83693 10.3561L1.797 10.3961L1.83693 10.436C1.81697 10.4759 1.81697 10.5159 1.83693 10.5558C1.83693 10.5957 1.83693 10.6157 1.83693 10.6556C1.81697 10.7155 1.83693 10.7954 1.8569 10.8553L1.83693 10.9152C1.83693 10.9352 1.83693 10.9551 1.83693 10.9751L1.81697 10.9951L1.83693 11.035C1.8569 11.0949 1.8569 11.1548 1.8569 11.2147C1.83693 11.3545 1.87687 11.4743 1.95673 11.5741L1.9767 11.5941H2.01663C2.07653 11.5741 2.11647 11.5142 2.0965 11.4543V11.4343V11.4144V11.3944C2.07653 11.2746 2.07653 11.1348 2.0965 11.015C2.0965 10.9751 2.0965 10.9551 2.0965 10.9152V10.8952V10.8753C2.07653 10.8353 2.07653 10.7754 2.0965 10.7355C2.0965 10.6756 2.0965 10.6357 2.0965 10.5758C2.11647 10.3162 2.11647 10.0766 2.0965 9.81702C2.0965 9.71719 2.0965 9.61736 2.07653 9.51752C2.05657 9.39772 2.05657 9.27792 2.07653 9.15812C2.07653 9.05828 2.07653 8.93849 2.07653 8.83866C2.0965 8.71886 2.0965 8.61902 2.0965 8.49922V8.31952C2.11647 8.29955 2.13643 8.25962 2.11647 8.21969C2.11647 8.17975 2.13643 8.13982 2.13643 8.09988C2.13643 8.07992 2.13643 8.03999 2.13643 8.02002V8.00005V7.98008C2.13643 7.96012 2.13643 7.92018 2.13643 7.90022C2.1564 7.86028 2.1564 7.82035 2.13643 7.78042C2.17637 7.68058 2.19633 7.58075 2.19633 7.48092V7.44099C2.19633 7.42102 2.19633 7.40105 2.17637 7.38108C2.17637 7.34115 2.19633 7.28125 2.23627 7.24132C2.2762 7.18142 2.29617 7.12152 2.31613 7.04165V7.02168C2.31613 7.02168 2.31613 7.02168 2.3361 7.00172C2.35607 6.98175 2.37603 6.96178 2.396 6.92185V6.90188C2.43593 6.86195 2.4559 6.82201 2.47587 6.78208C2.5158 6.72218 2.53577 6.68225 2.59567 6.68225H2.6356V6.64232C2.6356 6.60238 2.67554 6.58241 2.71547 6.56244C2.7554 6.54248 2.79534 6.50255 2.8153 6.48258C2.83527 6.48258 2.8752 6.48258 2.89517 6.46261C2.9351 6.44264 2.97504 6.42268 3.01497 6.40271C3.07487 6.36278 3.07487 6.34281 3.1148 6.36278L3.15474 6.38275L3.1747 6.36278C3.19467 6.36278 3.21464 6.34281 3.2346 6.32285C3.25457 6.32285 3.25457 6.32285 3.27454 6.30288C3.2945 6.30288 3.31447 6.28291 3.31447 6.30288C3.33444 6.30288 3.3544 6.32285 3.37437 6.30288H3.4143H3.4742C3.61397 6.26295 3.77371 6.28291 3.89351 6.32285L3.93344 6.34282L3.95341 6.30288L3.97337 6.32285C4.01331 6.38275 4.07321 6.40271 4.15307 6.40271C4.17304 6.42268 4.19301 6.42268 4.21297 6.44265L4.23294 6.46261L4.25291 6.48258C4.29284 6.52251 4.33277 6.54248 4.37271 6.54248C4.45257 6.62235 4.53244 6.72218 4.57237 6.84198V6.90188H4.61231C4.63227 6.98175 4.65224 7.06162 4.71214 7.12152C4.69217 7.16145 4.71214 7.18142 4.71214 7.22135V7.24132L4.69217 7.28125L4.73211 7.32118C4.73211 7.36112 4.73211 7.38108 4.75208 7.42102V7.44099V7.46095C4.71214 7.52085 4.73211 7.60072 4.79201 7.64065C4.79201 7.64065 4.79201 7.64065 4.81197 7.66061C4.79201 7.68058 4.79201 7.70055 4.79201 7.74049V7.78042L4.81197 7.80038C4.81197 7.82035 4.81197 7.82035 4.83194 7.84032L4.81197 7.86028L4.79201 7.90022L4.81197 7.94015H4.83194C4.83194 7.96012 4.83194 7.98008 4.85191 8.00005V8.02002C4.81198 8.11985 4.83194 8.23965 4.87188 8.31952C4.85191 8.35945 4.85191 8.37942 4.85191 8.41935C4.85191 8.43932 4.85191 8.43932 4.85191 8.45928L4.83194 8.51919C4.85191 8.51919 4.85191 8.51919 4.87188 8.53916V8.55912L4.85191 8.61902H4.87188C4.87188 8.63899 4.87188 8.65895 4.87188 8.67892C4.87188 8.69889 4.87188 8.73882 4.85191 8.75878C4.83194 8.81868 4.85191 8.87859 4.87188 8.91852V8.93849C4.85191 8.95846 4.85191 8.95845 4.85191 8.97842C4.85191 8.97842 4.85191 8.97842 4.85191 8.99839L4.83194 9.01836L4.85191 9.05828C4.85191 9.07825 4.87188 9.07825 4.89184 9.09822C4.89184 9.11819 4.89184 9.11819 4.89184 9.13816V9.15812H4.85191L4.87188 9.19805C4.85191 9.21802 4.85191 9.23799 4.87188 9.25795L4.85191 9.29789C4.85191 9.31785 4.87188 9.31786 4.87188 9.33782C4.85191 9.39772 4.89184 9.45762 4.93177 9.49756C4.95174 9.49756 4.95174 9.51752 4.97171 9.53749H4.95174L4.97171 9.61736C4.97171 9.61736 4.95174 9.61736 4.95174 9.63732L4.91181 9.65729L4.93177 9.71719V9.73716C4.93177 9.75712 4.93177 9.77709 4.93177 9.79706C4.91181 9.81702 4.89184 9.83699 4.89184 9.87692V9.93683H4.93177C4.93177 9.95679 4.93177 9.95679 4.93177 9.97676C4.93177 9.99672 4.91181 10.0167 4.91181 10.0167L4.99168 10.0566C4.99168 10.0766 4.97171 10.0966 4.97171 10.1165V10.1365H4.91181V10.2164C4.91181 10.2363 4.91181 10.2363 4.91181 10.2563C4.91181 10.2763 4.91181 10.2763 4.91181 10.2962V10.3761C4.91181 10.3761 4.91181 10.3961 4.91181 10.416V10.456C4.91181 10.4759 4.91181 10.4959 4.91181 10.5159C4.91181 10.5358 4.91181 10.5358 4.91181 10.5558L4.85191 10.5758L4.91181 10.6357C4.91181 10.6556 4.89184 10.6756 4.89184 10.6956H4.85191L4.93177 10.7954C4.93177 10.8154 4.95174 10.8154 4.95174 10.8353C4.93178 10.8553 4.91181 10.8952 4.91181 10.9352C4.91181 10.9352 4.91181 10.9551 4.91181 10.9751L4.93177 10.9951C4.91181 10.9951 4.91181 11.015 4.89184 11.035C4.89184 11.055 4.89184 11.0749 4.89184 11.0949H4.81197L4.87188 11.1548L4.81197 11.1748L4.85191 11.2147V11.3744C4.85191 11.3944 4.87188 11.4144 4.89184 11.4343C4.91181 11.4543 4.95174 11.4543 4.97171 11.4543V11.5142L5.05158 11.4942C5.09151 11.4743 5.15141 11.4743 5.19134 11.4942L5.25124 11.5142V11.4543C5.27121 11.2347 5.27121 11.015 5.27121 10.7954C5.25124 10.5957 5.27121 10.3961 5.29118 10.2164C5.37104 10.2164 5.37104 10.1764 5.35108 10.1565Z" fill="#4B4B4B"/>
    <path d="M13.8968 10.2363L13.9168 10.1964L13.8968 9.17805C13.8769 9.01832 13.8769 8.85859 13.8769 8.67889C13.8769 8.47922 13.8569 8.27955 13.8369 8.07989C13.817 7.80035 13.777 7.54078 13.7371 7.26125L13.6972 7.08155V7.06158L13.6772 7.04162C13.6373 7.00169 13.6173 6.94178 13.6173 6.88188C13.5973 6.82198 13.5774 6.78205 13.5574 6.74212C13.4775 6.62232 13.3977 6.50252 13.2779 6.40268C13.2579 6.38272 13.2379 6.36275 13.198 6.34278C13.178 6.34278 13.178 6.32282 13.1581 6.30285L13.1381 6.28288H13.1181L13.0982 6.26291C13.0183 6.20301 12.9384 6.16308 12.8386 6.14312C12.8186 6.10318 12.7587 6.10318 12.7188 6.10318V6.08321H12.6789L12.4592 6.04328H12.4193L12.3993 6.06325C12.3993 6.08321 12.3993 6.08321 12.3394 6.06325C12.3195 6.06325 12.2995 6.04328 12.2596 6.04328H12.2396L12.2196 6.06325L12.1997 6.04328L12.0998 6.02332V6.06325C12.0599 6.06325 12.02 6.06325 12 6.08321H11.8602H11.7205L11.7404 6.14312C11.7005 6.14312 11.6406 6.14311 11.6007 6.18305C11.6007 6.18305 11.6007 6.18305 11.5807 6.18305C11.5408 6.18305 11.5208 6.20302 11.4809 6.22298C11.4809 6.22298 11.4609 6.24295 11.4409 6.24295H11.421L11.401 6.26291C11.3611 6.30285 11.3211 6.32282 11.2812 6.34278L11.2013 6.38271L11.2213 6.40268C11.2013 6.40268 11.2013 6.42265 11.1814 6.42265H11.1015V6.48255L11.0616 6.46258L11.0216 6.50252C10.9817 6.56242 10.9218 6.62231 10.8619 6.68221C10.782 6.76208 10.7221 6.84195 10.6622 6.92182L10.6423 6.94179L10.6622 6.96175C10.6423 6.98171 10.6223 7.00169 10.6023 7.04162C10.5824 7.06159 10.5624 7.10152 10.5624 7.14145V7.16141C10.5424 7.18138 10.5225 7.22132 10.5225 7.26125C10.5225 7.28122 10.5225 7.30118 10.5025 7.30118L10.4626 7.34112L10.4825 7.36108C10.4825 7.38105 10.4626 7.40102 10.4626 7.44095V7.46092L10.4426 7.48088V7.52082C10.4426 7.58072 10.4426 7.66059 10.4426 7.72049C10.4226 7.80035 10.4226 7.86025 10.4426 7.94012C10.4226 7.98006 10.4226 8.01998 10.4226 8.05992C10.4226 8.07988 10.4226 8.07989 10.4226 8.09985L10.3827 8.11982L10.4027 8.15975C10.4226 8.19968 10.4027 8.25959 10.3827 8.29952C10.3627 8.33945 10.3627 8.39935 10.3627 8.45925C10.3627 8.45925 10.3627 8.45925 10.3428 8.47922C10.3428 8.49919 10.3228 8.49919 10.3228 8.51916C10.3228 8.53912 10.3228 8.55909 10.3228 8.57905L10.3028 8.63896V8.65892L10.3428 8.69885C10.3428 8.71882 10.3428 8.75875 10.3428 8.77872C10.3428 8.81865 10.3428 8.83862 10.3428 8.83862L10.3228 8.89852L10.3428 8.93846C10.3428 8.97839 10.3428 9.01832 10.3627 9.03829V9.05825L10.3028 9.07822L10.3428 9.15809V9.17805C10.3228 9.21799 10.3428 9.25792 10.3428 9.27789C10.3228 9.31782 10.3228 9.35776 10.3428 9.39769V9.41766C10.3028 9.45759 10.3028 9.53746 10.3228 9.57739C10.3028 9.61732 10.3028 9.65726 10.3028 9.67722L10.2429 9.69719L10.3228 9.77706C10.3228 9.79702 10.3228 9.81699 10.3228 9.83696C10.3228 9.85693 10.3428 9.85692 10.3428 9.85692H10.3228L10.3428 9.91683C10.3428 9.95676 10.3428 9.99669 10.3627 10.0167C10.3627 10.0167 10.3428 10.0366 10.3428 10.0566L10.3228 10.0766L10.3428 10.1165C10.3627 10.1564 10.3627 10.1764 10.3428 10.2563C10.3228 10.3162 10.3228 10.3761 10.3428 10.436L10.3028 10.4759L10.3428 10.5158C10.3228 10.5558 10.3228 10.5957 10.3428 10.6356C10.3428 10.6756 10.3428 10.6955 10.3428 10.7355C10.3228 10.7954 10.3428 10.8752 10.3627 10.9351L10.3428 10.995C10.3428 11.015 10.3428 11.035 10.3428 11.0549L10.3228 11.0749L10.3428 11.1148C10.3627 11.1747 10.3627 11.2346 10.3627 11.2945C10.3428 11.4343 10.3827 11.5541 10.4825 11.6539L10.5025 11.6739H10.5424C10.6223 11.6539 10.6223 11.5741 10.6223 11.5142V11.4942V11.4742V11.4543C10.6023 11.3345 10.6023 11.1947 10.6223 11.0749C10.6223 11.035 10.6223 11.015 10.6223 10.9751V10.9551V10.9351C10.6023 10.8952 10.6023 10.8353 10.6023 10.7954C10.6223 10.7355 10.6023 10.6955 10.6023 10.6356C10.6223 10.3761 10.6223 10.1365 10.6023 9.87689C10.6023 9.77706 10.6023 9.67722 10.6023 9.57739C10.5824 9.45759 10.5824 9.33779 10.6023 9.21799C10.6023 9.11816 10.6023 8.99836 10.6023 8.89852C10.6223 8.77872 10.6223 8.67889 10.6223 8.55909C10.6223 8.51915 10.6223 8.45925 10.6223 8.39935C10.6423 8.37939 10.6622 8.33945 10.6423 8.29952C10.6423 8.25959 10.6622 8.21965 10.6622 8.17972C10.6622 8.15975 10.6622 8.11982 10.6622 8.09985V8.07989V8.05992C10.6622 8.03995 10.6622 8.00002 10.6622 7.98005C10.6822 7.94012 10.6822 7.90018 10.6622 7.86025C10.7022 7.76042 10.7221 7.66058 10.7221 7.56075V7.52082C10.7221 7.50085 10.7221 7.48088 10.7022 7.46092C10.7022 7.42098 10.7221 7.36109 10.7621 7.32115C10.802 7.26125 10.8419 7.20135 10.8419 7.12148V7.10152C10.8419 7.10152 10.8419 7.10152 10.8619 7.08155C10.8819 7.06158 10.9018 7.02165 10.9218 7.00168V6.98172C10.9617 6.94178 10.9817 6.90185 11.0017 6.86191C11.0416 6.80201 11.0616 6.76208 11.1215 6.76208L11.1614 6.74212V6.70218C11.1614 6.66225 11.2013 6.64228 11.2413 6.62232C11.2812 6.60235 11.3211 6.56242 11.3411 6.54245C11.3611 6.54245 11.401 6.54245 11.421 6.52248C11.4609 6.50252 11.5008 6.48255 11.5408 6.46258C11.6007 6.42265 11.6007 6.40268 11.6406 6.42265L11.6805 6.44262L11.7005 6.42265C11.7205 6.42265 11.7404 6.40268 11.7604 6.38271C11.7804 6.38271 11.8003 6.38271 11.8003 6.36275C11.8203 6.34278 11.8403 6.34278 11.8403 6.36275C11.8602 6.36275 11.8802 6.38271 11.9002 6.36275H11.9401H12C12.1398 6.32281 12.2995 6.34278 12.4193 6.40268L12.4592 6.42265L12.4792 6.38271L12.4992 6.40268C12.5391 6.46258 12.599 6.48255 12.6789 6.48255C12.6988 6.50251 12.7188 6.50252 12.7388 6.52248C12.7388 6.52248 12.7587 6.52248 12.7587 6.54245L12.7787 6.56241C12.8186 6.60235 12.8586 6.62232 12.8985 6.62232C12.9784 6.70218 13.0582 6.80202 13.0982 6.92182V6.98172H13.1381C13.1581 7.06158 13.178 7.14145 13.2379 7.20135C13.218 7.24128 13.2379 7.26125 13.2379 7.30118V7.32115L13.218 7.36108L13.2579 7.40102H13.2779C13.2779 7.44095 13.2779 7.46092 13.2978 7.50085C13.2978 7.50085 13.2978 7.52082 13.3178 7.52082V7.54079C13.2779 7.60069 13.2978 7.68055 13.3577 7.72049C13.3577 7.72049 13.3577 7.72049 13.3777 7.72049C13.3577 7.74045 13.3577 7.76042 13.3577 7.80035V7.84029L13.3777 7.86025C13.3777 7.88022 13.3777 7.88022 13.3977 7.90019L13.3777 7.92015L13.3577 7.98005L13.3777 8.01999H13.3977C13.3977 8.03995 13.3977 8.05992 13.4176 8.07989V8.09985C13.3777 8.19969 13.3977 8.31949 13.4376 8.41932C13.4176 8.45926 13.4176 8.47922 13.4176 8.51916C13.4176 8.53912 13.4176 8.53912 13.4176 8.55909L13.3977 8.61899C13.4176 8.61899 13.4176 8.61899 13.4376 8.63896V8.65892L13.4176 8.71882H13.4376C13.4376 8.73879 13.4376 8.75875 13.4376 8.77872C13.4376 8.79869 13.4376 8.83862 13.4176 8.85859C13.3977 8.91849 13.4176 8.97839 13.4376 9.01832C13.4376 9.01832 13.4376 9.03829 13.4576 9.03829C13.4376 9.05826 13.4376 9.07822 13.4376 9.07822V9.09819H13.4176L13.4376 9.13812C13.4376 9.15809 13.4576 9.15809 13.4775 9.17805C13.4775 9.19802 13.4775 9.19802 13.4775 9.21799V9.23796L13.4376 9.25792L13.4576 9.29786C13.4376 9.31782 13.4376 9.33779 13.4576 9.35775L13.4376 9.39769C13.4376 9.41766 13.4576 9.41766 13.4576 9.43763C13.4376 9.49753 13.4775 9.55742 13.5175 9.59736C13.5374 9.59736 13.5374 9.61733 13.5574 9.63729H13.5374L13.5574 9.71716C13.5574 9.71716 13.5574 9.73713 13.5374 9.73713L13.4975 9.75709L13.5175 9.81699V9.83696C13.4975 9.85693 13.5175 9.87689 13.5175 9.89686C13.4975 9.91682 13.4775 9.93679 13.4775 9.97672V10.0366H13.5175C13.5175 10.0566 13.5175 10.0566 13.4975 10.0766C13.4975 10.0965 13.4975 10.1165 13.4775 10.1365C13.4775 10.1365 13.4775 10.1365 13.4775 10.1564L13.5574 10.1964C13.5574 10.2163 13.5374 10.2363 13.5374 10.2563C13.5374 10.2563 13.5374 10.2762 13.5175 10.2762H13.4576V10.3561C13.4576 10.3761 13.4576 10.3761 13.4576 10.396C13.4576 10.416 13.4576 10.416 13.4576 10.436V10.5158C13.4576 10.5358 13.4576 10.5358 13.4576 10.5558V10.5957C13.4576 10.6157 13.4576 10.6356 13.4576 10.6556C13.4576 10.6556 13.4576 10.6756 13.4576 10.6955L13.3977 10.7155L13.4576 10.7754C13.4576 10.7954 13.4376 10.8153 13.4376 10.8353H13.3977L13.4775 10.9351C13.4775 10.9551 13.4975 10.9551 13.4975 10.9751C13.4775 10.995 13.4576 11.035 13.4576 11.0749C13.4576 11.0949 13.4576 11.0949 13.4576 11.1148L13.4775 11.1348C13.4576 11.1348 13.4576 11.1548 13.4576 11.1747C13.4576 11.1947 13.4576 11.2147 13.4576 11.2346H13.3777L13.4376 11.2945L13.3777 11.3145L13.4176 11.3544V11.5142C13.4176 11.5341 13.4376 11.5541 13.4576 11.5741C13.4775 11.594 13.5175 11.594 13.5374 11.594V11.6539L13.6173 11.634C13.6572 11.614 13.6972 11.614 13.7571 11.634L13.817 11.6539V11.594C13.8369 11.3744 13.8369 11.1548 13.8369 10.9351C13.817 10.7355 13.8369 10.5358 13.8569 10.3561C13.9168 10.2962 13.8968 10.2563 13.8968 10.2363Z" fill="#4B4B4B"/>
    <path d="M0.099823 15.7671H15.594V0.272949H0.099823V15.7671ZM14.7754 14.9485H0.918458V1.09158H14.7754V14.9485Z" fill="#4B4B4B"/>
    <path d="M112.233 9.05826C112.173 9.05826 112.153 9.01832 112.173 8.95842L113.491 5.42432C113.511 5.36442 113.531 5.30452 113.571 5.30452C113.611 5.30452 113.631 5.38438 113.651 5.42432L114.948 8.95842C114.968 8.99836 114.948 9.03829 114.869 9.03829H112.233V9.05826ZM115.128 9.77706C115.188 9.77706 115.248 9.81699 115.268 9.87689L116.406 12.9118C116.466 13.0316 116.426 13.1714 116.306 13.2313C116.286 13.2313 116.286 13.2513 116.266 13.2513C116.126 13.2712 116.067 13.2912 116.067 13.3711C116.067 13.4709 116.246 13.4709 116.486 13.4909C117.624 13.5108 118.682 13.5108 119.201 13.5108C119.74 13.5108 119.86 13.4909 119.86 13.3711C119.86 13.2712 119.78 13.2513 119.681 13.2513C119.481 13.2513 119.281 13.2313 119.082 13.1914C118.782 13.1115 118.363 12.9118 117.824 11.614C116.905 9.43763 114.609 3.60734 114.27 2.80868C114.13 2.46924 114.03 2.34944 113.91 2.34944C113.77 2.34944 113.691 2.50918 113.511 2.92848L109.917 11.9335C109.637 12.6523 109.358 13.1315 108.699 13.2313C108.579 13.2513 108.379 13.2513 108.26 13.2513C108.14 13.2513 108.08 13.2712 108.08 13.3711C108.08 13.4909 108.16 13.5108 108.359 13.5108C109.098 13.5108 109.897 13.4709 110.057 13.4709C110.496 13.4709 111.115 13.5108 111.574 13.5108C111.734 13.5108 111.814 13.4909 111.814 13.3711C111.814 13.2912 111.774 13.2513 111.594 13.2513H111.374C110.935 13.2513 110.795 13.0716 110.795 12.812C110.815 12.5125 110.895 12.213 111.015 11.9335L111.794 9.87689C111.814 9.79703 111.854 9.75709 111.913 9.75709L115.128 9.77706ZM106.842 6.90185L106.403 6.60235C105.065 5.68388 104.705 5.18472 104.705 4.52581C104.705 3.66725 105.424 3.02831 106.602 3.02831C107.641 3.02831 108.1 3.46758 108.339 3.72715C108.579 3.98671 108.719 4.32615 108.759 4.68555C108.759 4.86525 108.799 4.94512 108.918 4.94512C109.038 4.94512 109.098 4.82531 109.098 4.50585C109.098 3.38771 109.158 2.96841 109.158 2.76874C109.158 2.66891 109.078 2.62897 108.938 2.58904C108.24 2.40934 107.521 2.32947 106.802 2.34944C104.586 2.34944 103.108 3.48754 103.108 5.08488C103.108 6.26292 103.707 7.26126 105.484 8.51916L106.223 9.03829C107.541 9.97673 107.8 10.6356 107.8 11.3544C107.8 12.1132 107.102 13.0117 105.664 13.0117C104.666 13.0117 103.727 12.6123 103.368 11.5541C103.288 11.3145 103.228 11.0749 103.228 10.8153C103.228 10.6955 103.208 10.5757 103.068 10.5757C102.988 10.5757 102.928 10.6356 102.908 10.7554C102.889 10.8353 102.869 10.9152 102.869 10.995C102.849 11.1348 102.809 11.4742 102.789 11.5741C102.689 12.1531 102.509 12.4726 102.15 12.6323C101.77 12.812 101.171 12.812 100.792 12.812C99.3145 12.812 98.2562 12.5924 98.2363 11.614C98.2163 11.1947 98.2363 9.87689 98.2363 9.37773V8.19969C98.2363 8.11982 98.2562 8.05992 98.3161 8.05992C98.6556 8.05992 100.712 8.07989 100.992 8.09986C101.531 8.15976 101.73 8.37939 101.79 8.65892C101.83 8.83862 101.85 8.99836 101.85 9.17806C101.85 9.23796 101.89 9.29786 101.95 9.29786C101.97 9.29786 101.97 9.29786 101.99 9.29786C102.11 9.29786 102.11 9.13813 102.11 9.01833C102.11 8.91849 102.13 8.33945 102.17 8.05992C102.21 7.32115 102.29 7.10152 102.29 7.00169C102.29 6.92182 102.25 6.88189 102.19 6.88189C102.11 6.88189 102.05 6.96175 101.95 7.06158C101.83 7.20135 101.611 7.24129 101.251 7.28122C100.912 7.30119 98.6356 7.30119 98.3161 7.30119C98.2363 7.30119 98.2163 7.24129 98.2163 7.14146V3.50751C98.2163 3.40768 98.2363 3.36774 98.3161 3.36774C98.5957 3.36774 100.732 3.38771 100.992 3.42765C101.71 3.50751 101.85 3.68721 101.95 3.94678C102.01 4.10651 102.03 4.28621 102.03 4.46591C102.03 4.58571 102.05 4.66558 102.17 4.66558C102.27 4.66558 102.29 4.58571 102.309 4.50585C102.329 4.32615 102.369 3.70718 102.389 3.54744C102.429 2.88854 102.509 2.70884 102.509 2.60901C102.509 2.52914 102.489 2.48921 102.429 2.48921C102.349 2.50917 102.27 2.52914 102.19 2.54911C101.99 2.58904 101.77 2.60901 101.571 2.62898C101.291 2.64894 97.817 2.64894 97.3577 2.64894C97.1581 2.64894 96.8186 2.62898 96.4393 2.62898C96.1398 2.62898 95.8003 2.62898 95.4809 2.60901C95.4609 2.52914 95.4409 2.50917 95.381 2.50917C94.9218 2.60901 94.4626 2.64894 94.0033 2.64894H89.1514C88.6722 2.64894 88.1331 2.62898 87.7338 2.56908C87.5341 2.54911 87.3344 2.50917 87.1348 2.44927C87.0549 2.44927 87.015 2.46924 86.9751 2.62898H86.8353C86.6356 2.62898 86.4559 2.62897 86.2762 2.64894C85.9567 2.66891 85.6972 2.66891 85.5374 2.66891C85.2379 2.66891 84.6789 2.62898 84.0599 2.62898C83.8602 2.62898 83.7205 2.64894 83.7205 2.74877C83.7205 2.82864 83.7804 2.86858 83.9201 2.86858C84.1398 2.84861 84.3794 2.88854 84.599 2.94844C84.8785 3.06824 84.9983 3.30784 85.0183 3.96675L85.0582 9.75709C84.8386 9.53746 78.5691 2.54911 78.3694 2.40934C78.2496 2.30951 78.0699 2.30951 77.9701 2.42931C77.9102 2.48921 77.8902 2.54911 77.8902 2.62898L77.7704 6.38272L77.5907 11.3345C77.5707 12.5724 77.3311 12.812 77.0117 13.0117C76.832 13.1115 76.6123 13.1514 76.4127 13.1514C76.1132 13.1714 75.8137 13.1514 75.5142 13.1115C75.1548 13.0516 74.8952 12.7521 74.8552 12.3727C74.7953 11.7538 74.7953 10.6356 74.7953 9.23796V6.80202C74.7953 4.62565 74.7953 4.22631 74.8153 3.76708C74.8353 3.26791 74.9551 3.02831 75.3344 2.94844C75.4742 2.92848 75.614 2.90851 75.7537 2.90851C75.8935 2.90851 75.9734 2.88854 75.9734 2.76874C75.9734 2.68888 75.8536 2.64894 75.6739 2.64894C75.1348 2.64894 74.2962 2.68887 73.9368 2.68887C73.5175 2.68887 72.6389 2.64894 72.0998 2.64894C71.8802 2.64894 71.7604 2.66891 71.7604 2.76874C71.7604 2.88854 71.8403 2.90851 71.98 2.90851C72.1597 2.90851 72.3195 2.92848 72.4992 2.96841C72.8186 3.04828 72.9584 3.28788 72.9784 3.76708C72.9983 4.22631 72.9983 4.62565 72.9983 6.80202V9.31783C72.9983 10.6955 72.9983 11.8336 72.9185 12.4326C72.8785 12.8519 72.7987 13.0915 72.4992 13.1514C72.3394 13.1914 72.1597 13.2113 71.98 13.2113C71.8203 13.2113 71.7604 13.2513 71.7604 13.3311C71.7604 13.431 71.8602 13.4709 72.0399 13.4709C72.599 13.4709 73.4975 13.431 73.8369 13.431C74.2163 13.431 76.3527 13.4709 76.4326 13.4709C77.1714 13.4709 77.9102 13.4509 78.0499 13.4509C78.3095 13.4509 78.8885 13.4909 79.807 13.4909C80.0067 13.4909 80.1265 13.4709 80.1265 13.3511C80.1265 13.2712 80.0466 13.2313 79.8869 13.2313C79.6473 13.2313 79.3877 13.2113 79.1481 13.1315C78.8686 13.0316 78.6889 12.6722 78.6489 11.5541L78.589 8.75876L78.5491 5.96341C78.7687 6.22298 84.4592 12.4326 85.2579 13.2912C85.3977 13.4509 85.5574 13.6107 85.6972 13.6107C85.817 13.6107 85.8569 13.4909 85.8569 13.1714L85.9967 4.18638C85.9967 4.06658 85.9967 3.96675 86.0166 3.86691C86.0566 3.32781 86.1764 3.12814 86.4359 3.00834C86.5957 2.94844 86.7554 2.92848 86.9151 2.92848C86.9151 3.34778 86.9151 4.16642 86.9151 4.34612C86.9151 4.50585 86.9351 4.56574 87.035 4.56574C87.1148 4.56574 87.1547 4.50585 87.1947 4.38605C87.2546 4.20634 87.3344 4.02664 87.4343 3.88688C87.6539 3.56741 87.9933 3.50751 88.812 3.46758L90.2496 3.40768V9.27789C90.2496 10.5957 90.2496 11.7338 90.1897 12.3328C90.1498 12.7521 89.9701 13.0716 89.6905 13.1315C89.431 13.1714 89.1514 13.1914 88.8919 13.1914C88.7122 13.1914 88.6722 13.2313 88.6722 13.3112C88.6722 13.411 88.7721 13.4509 88.9518 13.4509C89.5308 13.4509 90.7887 13.411 91.1082 13.411C91.5075 13.411 92.406 13.4509 93.3444 13.4509C93.5042 13.4509 93.624 13.411 93.624 13.3112C93.624 13.2313 93.5441 13.1914 93.4043 13.1914C93.1647 13.1914 92.9251 13.1714 92.6855 13.1315C92.2662 13.0716 92.1664 12.7521 92.1265 12.3528C92.0466 11.7338 92.0466 10.6157 92.0466 9.29786V3.42765L93.4443 3.46758C94.7221 3.48754 95.1414 3.88688 95.1814 4.26624L95.2013 4.42598C95.2213 4.64562 95.2413 4.70551 95.3611 4.70551C95.4409 4.70551 95.4809 4.62565 95.4809 4.48588C95.4809 4.14644 95.4809 3.24794 95.4809 2.88854C95.5807 2.88854 95.6606 2.90851 95.7604 2.92848C96.2396 3.02831 96.3594 3.26791 96.3794 3.74711C96.4193 4.20635 96.4193 4.60568 96.4193 6.80202V9.3378C96.4193 10.6556 96.4193 11.7937 96.3394 12.4127C96.2795 12.832 96.2196 13.1514 95.9201 13.2113C95.7404 13.2513 95.5807 13.2712 95.401 13.2712C95.2213 13.2712 95.1614 13.3112 95.1614 13.391C95.1614 13.4909 95.2612 13.5308 95.4409 13.5308C95.7205 13.5308 96.0998 13.5108 96.4393 13.5108C96.7787 13.5108 97.0982 13.4909 97.2579 13.4909C97.6972 13.4909 98.1364 13.5108 98.7554 13.5308C99.3744 13.5508 100.992 13.5707 102.09 13.5707C102.629 13.5707 102.769 13.5707 102.869 13.1914C102.928 13.2513 103.008 13.3112 103.108 13.3311C103.847 13.6107 104.646 13.7305 105.444 13.7105C106.323 13.7504 107.201 13.5308 107.98 13.1115C109.138 12.4326 109.478 11.4343 109.478 10.5957C109.478 9.21799 108.779 8.21966 106.842 6.90185ZM54.1098 13.7704C55.0083 13.7704 56.0666 13.6706 56.6256 13.4509C56.8253 13.391 56.9651 13.2313 56.985 13.0316C57.1248 12.4127 57.2446 11.7737 57.2845 11.1348C57.2845 11.015 57.2646 10.9152 57.1647 10.9152C57.0449 10.9152 57.025 10.9751 56.985 11.1947C56.9052 11.5341 56.7454 11.8736 56.5058 12.1331C55.9468 12.792 55.188 12.9318 53.9501 12.9318C52.0732 12.9318 49.5574 11.2346 49.5574 7.84029C49.5574 6.44262 49.817 5.08488 50.8353 4.12648C51.4542 3.54745 52.2529 3.24794 53.4509 3.24794C54.7288 3.24794 55.827 3.62731 56.2862 4.12648C56.6256 4.48588 56.8053 4.94512 56.8253 5.44429C56.8253 5.64395 56.8453 5.76375 56.9651 5.76375C57.0849 5.76375 57.1248 5.64395 57.1248 5.44429C57.1448 5.16475 57.1448 4.36608 57.1647 3.90685C57.1847 3.40768 57.2446 3.22798 57.2446 3.10818C57.2446 3.02831 57.1847 2.94844 57.0449 2.92848C56.6256 2.88854 56.1864 2.74877 55.6473 2.68887C54.9684 2.58904 54.3095 2.54911 53.6306 2.54911C51.5541 2.54911 50.2363 3.12814 49.218 4.06658C47.8802 5.32448 47.5807 7.02165 47.5807 8.00002C47.5807 9.39769 47.9401 10.995 49.3178 12.233C50.5957 13.3311 52.193 13.7704 54.1098 13.7704ZM23.2413 3.46758C23.2413 3.30784 23.2612 3.24794 23.381 3.22798C23.5408 3.20801 23.7005 3.18804 23.8602 3.20801C25.0982 3.20801 25.6772 4.48588 25.6772 5.44429C25.6772 6.16309 25.4576 6.68222 25.0782 6.98172C24.8386 7.20135 24.5191 7.26125 24.0399 7.26125C23.8203 7.26125 23.5807 7.26126 23.3611 7.22132C23.3012 7.20135 23.2612 7.18138 23.2612 7.06158L23.2413 3.46758ZM21.5042 9.3378C21.5042 10.6756 21.5042 11.8137 21.4243 12.4127C21.3644 12.832 21.3045 13.1514 21.005 13.2113C20.8253 13.2513 20.6656 13.2712 20.4859 13.2712C20.3062 13.2712 20.2662 13.3112 20.2662 13.391C20.2662 13.4909 20.3661 13.5308 20.5458 13.5308C21.1248 13.5308 22.0433 13.4909 22.3627 13.4909C22.802 13.4909 24.1198 13.5707 24.4592 13.5707C27.1148 13.5707 28.3328 11.9734 28.3328 10.416C28.3328 8.71883 26.8752 7.70052 25.6972 7.28122C26.4958 6.64228 27.1747 5.94345 27.1747 4.74545C27.1747 3.98671 26.7155 2.56908 24.0998 2.56908C23.6007 2.56908 23.0416 2.60901 22.3428 2.60901C22.0632 2.60901 21.1448 2.56908 20.386 2.56908C20.1664 2.56908 20.0666 2.58904 20.0666 2.70884C20.0666 2.82864 20.1464 2.82864 20.3062 2.82864C20.4859 2.82864 20.6855 2.84861 20.8652 2.86858C21.3444 2.96841 21.4642 3.20801 21.4842 3.68721C21.5042 4.14644 21.5042 4.54578 21.5042 6.76208V9.3378ZM26.5757 11.0749C26.5757 12.5724 25.4775 12.9318 24.8186 12.9318C24.4592 12.9518 24.0998 12.8919 23.7604 12.7521C23.3012 12.5724 23.2612 12.3128 23.2612 11.3544V7.92016C23.2612 7.84029 23.2812 7.82032 23.3411 7.82032C23.5607 7.82032 23.7005 7.82032 23.9601 7.84029C24.5191 7.86026 24.8586 7.96009 25.1581 8.19969C26.2562 8.95843 26.5757 10.1764 26.5757 11.0749ZM60.9185 9.05826C60.8586 9.05826 60.8586 9.01832 60.8586 8.95842L62.1764 5.42432C62.1963 5.36442 62.2163 5.30452 62.2562 5.30452C62.2962 5.30452 62.3161 5.38438 62.3361 5.42432L63.6339 8.95842C63.6539 8.99836 63.6339 9.03829 63.5541 9.03829H60.9185V9.05826ZM63.8336 9.77706C63.8935 9.77706 63.9534 9.81699 63.9734 9.87689L65.1115 12.9118C65.1714 13.0316 65.1315 13.1714 65.0117 13.2313C64.9917 13.2313 64.9917 13.2313 64.9717 13.2513C64.832 13.2712 64.772 13.2912 64.772 13.3711C64.772 13.4709 64.9518 13.4709 65.1914 13.4909C66.3295 13.5108 67.3877 13.5108 67.9068 13.5108C68.4459 13.5108 68.5657 13.4909 68.5657 13.3711C68.5657 13.2712 68.4859 13.2513 68.386 13.2513C68.1864 13.2513 67.9867 13.2313 67.787 13.1914C67.4875 13.1115 67.0682 12.9118 66.5291 11.614C65.6107 9.43763 63.3145 3.60734 62.975 2.80868C62.8353 2.46924 62.7354 2.34944 62.6156 2.34944C62.4759 2.34944 62.396 2.50918 62.2163 2.92848L58.6223 11.9335C58.3428 12.6523 58.0632 13.1315 57.584 13.2313C57.4842 13.2513 57.3844 13.2712 57.2845 13.2513C57.1647 13.2513 57.1048 13.2712 57.1048 13.3711C57.1048 13.4909 57.1847 13.5108 57.3844 13.5108C58.1231 13.5108 58.5824 13.4709 58.7421 13.4709C59.1814 13.4709 59.8003 13.5108 60.2596 13.5108C60.4193 13.5108 60.4992 13.4909 60.4992 13.3711C60.4992 13.2912 60.4592 13.2513 60.2795 13.2513H60.0998C59.6606 13.2513 59.5208 13.0716 59.5208 12.812C59.5408 12.5125 59.6206 12.213 59.7404 11.9335L60.5191 9.87689C60.5391 9.79703 60.579 9.75709 60.6389 9.75709L63.8336 9.77706ZM33.584 9.07822H30.9484C30.8885 9.07822 30.8686 9.03829 30.8885 8.97839L32.2063 5.44429C32.2263 5.38438 32.2463 5.32448 32.2862 5.32448C32.3261 5.32448 32.3461 5.40435 32.3661 5.44429L33.6639 8.97839C33.6639 9.03829 33.6639 9.07822 33.584 9.07822ZM47.5408 2.58904C47.4409 2.58904 47.401 2.58904 47.3012 2.58904H47.2812C47.2413 2.58904 47.2213 2.58904 47.2013 2.58904H47.1814C46.7421 2.60901 45.3444 2.58904 44.7454 2.58904C44.5458 2.58904 44.406 2.60901 44.406 2.70884C44.406 2.78871 44.4459 2.82864 44.6057 2.82864C44.8053 2.80868 45.005 2.84861 45.2047 2.90851C45.4842 3.02831 45.604 3.34778 45.624 4.00668L45.6639 9.83696C45.4443 9.61733 39.1747 2.58904 38.995 2.44927C38.8752 2.34944 38.6955 2.34944 38.5957 2.44927C38.5358 2.50917 38.5158 2.56907 38.5158 2.64894L38.396 6.44262L38.2163 11.3944C38.1963 12.6123 38.0965 13.1714 37.6373 13.1714C37.198 13.1714 37.0183 12.6323 36.579 11.614C35.6606 9.43763 33.3644 3.60734 33.025 2.80868C32.8852 2.46924 32.7854 2.34944 32.6656 2.34944C32.5258 2.34944 32.426 2.50918 32.2662 2.92848L28.6722 11.9335C28.3927 12.6523 28.1131 13.1315 27.4542 13.2113C27.3145 13.2313 27.1547 13.2313 27.015 13.2513C26.8952 13.2513 26.8353 13.2712 26.8353 13.3711C26.8353 13.4909 26.9151 13.5108 27.1148 13.5108C27.8536 13.5108 28.6522 13.4709 28.812 13.4709C29.2513 13.4709 29.8702 13.5108 30.3295 13.5108C30.4892 13.5108 30.5691 13.4909 30.5691 13.3711C30.5691 13.2912 30.5291 13.2513 30.3494 13.2513H30.1298C29.6905 13.2513 29.5508 13.0716 29.5508 12.812C29.5707 12.5125 29.6506 12.213 29.7704 11.9335L30.5491 9.87689C30.5691 9.79703 30.609 9.75709 30.6689 9.75709H33.8636C33.9235 9.75709 33.9834 9.79703 34.0033 9.85693L35.1414 12.8519C35.2013 12.9917 35.1414 13.1514 35.0017 13.1914C34.8619 13.2113 34.802 13.2313 34.802 13.3112C34.802 13.411 34.9817 13.411 35.2413 13.431C35.8802 13.4509 36.4992 13.4509 36.9983 13.4509C37.0582 13.4509 37.0782 13.4509 37.0982 13.4509C37.3977 13.4509 37.7171 13.4509 37.9767 13.4509C38.1165 13.4509 38.2163 13.4509 38.2962 13.4509C38.4958 13.4509 38.6556 13.4509 38.6955 13.4509C38.9551 13.4509 39.5341 13.4909 40.4526 13.4909C40.6523 13.4909 40.7721 13.4709 40.7721 13.3511C40.7721 13.2712 40.6922 13.2313 40.5324 13.2313C40.2928 13.2313 40.0333 13.2113 39.7937 13.1315C39.5141 13.0316 39.3344 12.6523 39.2945 11.5541L39.2346 8.75876L39.1947 5.96341C39.4143 6.22298 45.1048 12.3927 45.9035 13.2513C46.0433 13.411 46.203 13.5707 46.3428 13.5707C46.4626 13.5707 46.5025 13.4509 46.5025 13.1315L46.5624 9.83696L46.6622 4.00668C46.6822 3.32781 46.822 3.02831 47.0815 2.90851C47.2812 2.84861 47.4809 2.80868 47.6805 2.82864C47.8403 2.82864 47.8802 2.78871 47.8802 2.70884C47.8602 2.60901 47.7205 2.58904 47.5408 2.58904Z" fill="#4B4B4B"/>
    </g>
    <defs>
    <clipPath id="clip0_152_1658">
    <rect width="120" height="15.574" fill="white" transform="translate(0 0.213013)"/>
    </clipPath>
    </defs>
    </svg>
    