<svg width="120" height="34" viewBox="0 0 120 34" fill="none" xmlns="http://www.w3.org/2000/svg">
    <g clip-path="url(#clip0_152_1613)">
    <mask id="mask0_152_1613" style="mask-type:luminance" maskUnits="userSpaceOnUse" x="-14" y="-30" width="148" height="105">
    <path d="M-13.5477 74.626H133.405V-29.6151H-13.5477V74.626Z" fill="white"/>
    </mask>
    <g mask="url(#mask0_152_1613)">
    <path d="M20.3713 28.0658C20.3713 24.1992 22.5261 22.3138 24.9442 22.3138C26.9253 22.3138 29.3075 23.5827 29.3075 27.9221C29.3075 31.7468 27.3503 33.8357 24.7706 33.8357C22.3585 33.8357 20.3713 31.9383 20.3713 28.0837V28.0658ZM22.4303 28.1256C22.4303 31.5971 23.6932 32.6984 24.8244 32.6984C25.7881 32.6984 27.2485 31.9563 27.2485 28.0718C27.2485 26.6353 27.1109 23.4151 24.9023 23.4151C23.4358 23.4151 22.4303 24.8457 22.4303 28.1077V28.1256Z" fill="#4B4B4B"/>
    <path d="M33.168 22.4635L34.9756 30.418L36.8969 22.4635H38.088L39.9494 30.3941L41.769 22.4635H43.1157L40.3445 33.6681H39.1294L37.2141 25.4861L35.227 33.6681H34.0179L31.2407 22.4635H33.168Z" fill="#4B4B4B"/>
    <path d="M47.2755 22.4635L52.4169 30.4061V22.4635H53.7816V33.6681H52.5366L47.3892 25.7255V33.6681H46.0305V22.4635H47.2755Z" fill="#4B4B4B"/>
    <path d="M63.2863 22.4635V23.6486H59.2761V27.2877H63.017V28.4489H59.2761V32.4351H63.3522V33.6681H57.3967V22.4635H63.2863Z" fill="#4B4B4B"/>
    <path d="M7.39505 24.0017L7.30527 23.9598C6.85637 23.7444 6.23389 23.499 5.48572 23.499C3.79785 23.499 2.52297 25.1689 2.52297 28.0837C2.52297 31.3158 3.95347 32.6506 5.37798 32.6506C6.16207 32.6506 6.82644 32.2915 7.26337 32.0341L7.34718 31.9862L7.90381 33.0396L7.82001 33.0815C7.22148 33.3987 6.32367 33.8357 5.06076 33.8357C2.01421 33.8357 0.446045 31.2081 0.446045 28.1256C0.446045 24.9833 2.14589 22.3138 5.31813 22.3138C6.08426 22.3138 6.95214 22.4395 7.79607 22.8705L7.87987 22.9124L7.39505 24.0017Z" fill="#4B4B4B"/>
    <path d="M13.6797 22.4635C14.8648 22.4635 15.6309 22.4755 16.4749 22.9304C17.5103 23.505 17.7677 24.5644 17.7677 25.2287C17.7677 26.4857 17.1333 27.8683 15.1342 28.3531L18.8032 33.6681H16.6125L13.4223 28.6344H12.8896V33.6681H11.0342V22.4635H13.6797ZM12.8896 23.6127V27.5989H13.4583C14.3501 27.5989 15.8524 27.5989 15.8524 25.4382C15.8524 24.4925 15.5352 24.0556 15.1162 23.8341C14.9007 23.7264 14.6493 23.6666 14.386 23.6366C14.1166 23.6127 13.8413 23.6127 13.578 23.6127L12.8896 23.6127Z" fill="#4B4B4B"/>
    <path d="M117.592 24.4566H117.843V23.9H118.04C118.172 23.9 118.262 23.9179 118.316 23.9419C118.406 23.9957 118.447 24.1035 118.447 24.2711V24.3848L118.454 24.4566H118.699C118.681 24.4327 118.681 24.4027 118.675 24.3668C118.675 24.3309 118.669 24.295 118.669 24.2591V24.1573C118.669 24.0855 118.645 24.0137 118.591 23.9359C118.543 23.8641 118.459 23.8162 118.352 23.7982C118.441 23.7863 118.507 23.7623 118.555 23.7264C118.645 23.6726 118.693 23.5768 118.693 23.4511C118.693 23.2715 118.621 23.1518 118.471 23.092C118.393 23.0561 118.262 23.0381 118.088 23.0381H117.591L117.592 24.4566ZM118.304 23.6905C118.25 23.7144 118.172 23.7264 118.07 23.7264H117.843V23.2117H118.052C118.196 23.2117 118.292 23.2296 118.358 23.2656C118.418 23.2955 118.447 23.3673 118.447 23.4691C118.447 23.5768 118.4 23.6546 118.304 23.6905ZM119.028 22.8406C118.777 22.5892 118.471 22.4635 118.112 22.4635C117.753 22.4635 117.454 22.5892 117.203 22.8406C116.951 23.092 116.825 23.3972 116.825 23.7504C116.825 24.1095 116.945 24.4147 117.197 24.6661C117.448 24.9235 117.753 25.0492 118.112 25.0492C118.471 25.0492 118.777 24.9235 119.028 24.6661C119.279 24.4147 119.405 24.1095 119.405 23.7504C119.405 23.3972 119.279 23.092 119.028 22.8406ZM118.896 22.9663C119.112 23.1817 119.22 23.4451 119.22 23.7504C119.22 24.0616 119.112 24.3249 118.896 24.5464C118.687 24.7619 118.424 24.8756 118.112 24.8756C117.807 24.8756 117.544 24.7619 117.322 24.5464C117.113 24.3249 117.005 24.0616 117.005 23.7504C117.005 23.4451 117.113 23.1817 117.328 22.9663C117.544 22.7448 117.807 22.6371 118.112 22.6371C118.418 22.6371 118.681 22.7448 118.896 22.9663Z" fill="#4B4B4B"/>
    <path d="M114.276 22.4635L118.112 33.6681H116.113L114.922 30.0051H111.846L110.679 33.6681H109.284L113.079 22.4635H114.276ZM112.187 28.9038H114.575L113.396 25.133L112.187 28.9038Z" fill="#4B4B4B"/>
    <path d="M74.6466 22.4635C75.9454 22.4635 76.8372 22.4874 77.6453 23.0201C78.6388 23.6725 78.7825 24.7858 78.7825 25.3903C78.7825 27.0662 77.6872 28.7601 74.91 28.7601H73.5393V33.6681H71.6659V22.4635H74.6466ZM73.5393 23.6127V27.581H74.5508C75.6342 27.581 76.7894 27.3954 76.7894 25.4083C76.7894 24.4566 76.4662 24.0257 76.0472 23.8162C75.8317 23.7085 75.5863 23.6606 75.3289 23.6306C75.0656 23.6067 74.8022 23.6127 74.5508 23.6127H73.5393Z" fill="#4B4B4B"/>
    <path d="M83.1099 22.4635V32.4411H87.0423V33.6681H81.2305V22.4635H83.1099Z" fill="#4B4B4B"/>
    <path d="M93.8955 22.4635L97.7321 33.6681H95.733L94.5419 30.0051H91.4654L90.2983 33.6681H88.8977L92.6984 22.4635H93.8955ZM91.8066 28.9038H94.1948L93.0156 25.133L91.8066 28.9038Z" fill="#4B4B4B"/>
    <path d="M107.165 22.4635V23.4152L101.79 32.4351H107.458V33.6681H99.5876V32.7164L104.992 23.6486H99.9168V22.4635H107.165Z" fill="#4B4B4B"/>
    <path d="M60.7366 5.04015C60.0842 6.89561 56.5109 5.14788 54.6674 4.28599C53.3028 3.65155 52.3691 3.12483 51.8424 2.81958L53.1891 4.53139H51.3635C51.8902 4.83665 52.818 5.35737 54.1527 5.97985C55.9962 6.84773 59.5754 8.59546 60.2278 6.73401C61.3471 3.54381 67.8352 7.49415 68.4757 7.89517L68.9785 6.18934C68.2961 5.76438 61.8499 1.86192 60.7366 5.04015Z" fill="#4B4B4B"/>
    <path d="M59.8268 8.1046C59.1744 9.96006 55.5952 8.21234 53.7517 7.35044C52.387 6.716 51.4533 6.18928 50.9266 5.89001L52.2733 7.60183H50.4537C50.9745 7.9011 51.9082 8.42781 53.2369 9.05029C55.0804 9.91218 58.6597 11.6599 59.3121 9.79846C60.4373 6.60227 66.9793 10.5945 67.5659 10.9596L68.0687 9.25977C67.4282 8.85875 60.9401 4.9144 59.8268 8.1046Z" fill="#4B4B4B"/>
    <path d="M58.911 11.1692C58.2586 13.0306 54.6794 11.2829 52.8359 10.421C51.4772 9.78057 50.5375 9.25386 50.0168 8.95459L51.3635 10.6664H49.532C50.0587 10.9717 50.9924 11.4924 52.3271 12.1149C54.1706 12.9827 57.7499 14.7245 58.3963 12.863C59.5275 9.64889 66.1234 13.695 66.6621 14.0302L67.1589 12.3303C66.5663 11.9592 60.0303 7.967 58.911 11.1692Z" fill="#4B4B4B"/>
    <path d="M59.2582 16.149C49.5918 16.149 41.763 12.7074 41.763 8.46376C41.763 4.21415 49.5918 0.772569 59.2582 0.772569C68.9186 0.772569 76.7534 4.21415 76.7534 8.46376C76.7534 12.7074 68.9186 16.149 59.2582 16.149ZM59.2582 0.0483398C48.4247 0.0483398 39.6442 3.81313 39.6442 8.45179C39.6442 13.0964 48.4247 16.8612 59.2582 16.8612C70.0857 16.8612 78.8663 13.0964 78.8663 8.45179C78.8663 3.81313 70.0857 0.0483398 59.2582 0.0483398Z" fill="#4B4B4B"/>
    </g>
    <path d="M20.3713 28.0659C20.3713 24.1994 22.5261 22.314 24.9442 22.314C26.9253 22.314 29.3075 23.5829 29.3075 27.9222C29.3075 31.7469 27.3503 33.8358 24.7706 33.8358C22.3585 33.8358 20.3713 31.9384 20.3713 28.0839V28.0659ZM22.4303 28.1258C22.4303 31.5973 23.6932 32.6986 24.8244 32.6986C25.7881 32.6986 27.2485 31.9564 27.2485 28.0719C27.2485 26.6354 27.1109 23.4153 24.9023 23.4153C23.4358 23.4153 22.4303 24.8458 22.4303 28.1078V28.1258Z" fill="#4B4B4B"/>
    <path d="M33.168 22.4635L34.9756 30.418L36.8969 22.4635H38.088L39.9494 30.3941L41.769 22.4635H43.1157L40.3445 33.6681H39.1294L37.2141 25.4861L35.227 33.6681H34.0179L31.2407 22.4635H33.168Z" fill="#4B4B4B"/>
    <path d="M47.2755 22.4635L52.4169 30.4061V22.4635H53.7816V33.6681H52.5366L47.3892 25.7255V33.6681H46.0305V22.4635H47.2755Z" fill="#4B4B4B"/>
    <path d="M63.2864 22.4635V23.6486H59.2763V27.2877H63.0171V28.4489H59.2763V32.4351H63.3523V33.6681H57.3969V22.4635H63.2864Z" fill="#4B4B4B"/>
    <path d="M7.39505 24.0018L7.30527 23.96C6.85637 23.7445 6.23389 23.4991 5.48572 23.4991C3.79785 23.4991 2.52297 25.169 2.52297 28.0839C2.52297 31.316 3.95347 32.6507 5.37798 32.6507C6.16207 32.6507 6.82644 32.2916 7.26337 32.0342L7.34718 31.9863L7.90381 33.0397L7.82001 33.0816C7.22148 33.3989 6.32367 33.8358 5.06076 33.8358C2.01421 33.8358 0.446045 31.2082 0.446045 28.1258C0.446045 24.9834 2.14589 22.314 5.31813 22.314C6.08426 22.314 6.95214 22.4397 7.79607 22.8706L7.87987 22.9125L7.39505 24.0018Z" fill="#4B4B4B"/>
    <path d="M13.6797 22.4635C14.8648 22.4635 15.6309 22.4755 16.4749 22.9304C17.5103 23.505 17.7677 24.5644 17.7677 25.2287C17.7677 26.4857 17.1333 27.8683 15.1342 28.3531L18.8032 33.6681H16.6125L13.4223 28.6344H12.8896V33.6681H11.0342V22.4635H13.6797ZM12.8896 23.6127V27.5989H13.4583C14.3501 27.5989 15.8524 27.5989 15.8524 25.4382C15.8524 24.4925 15.5352 24.0556 15.1162 23.8341C14.9007 23.7264 14.6493 23.6666 14.386 23.6366C14.1166 23.6127 13.8413 23.6127 13.578 23.6127L12.8896 23.6127Z" fill="#4B4B4B"/>
    <path d="M117.592 24.4566H117.843V23.9H118.04C118.172 23.9 118.262 23.9179 118.316 23.9419C118.406 23.9957 118.447 24.1035 118.447 24.2711V24.3848L118.454 24.4566H118.699C118.681 24.4327 118.681 24.4027 118.675 24.3668C118.675 24.3309 118.669 24.295 118.669 24.2591V24.1573C118.669 24.0855 118.645 24.0137 118.591 23.9359C118.543 23.8641 118.459 23.8162 118.352 23.7982C118.441 23.7863 118.507 23.7623 118.555 23.7264C118.645 23.6726 118.693 23.5768 118.693 23.4511C118.693 23.2715 118.621 23.1518 118.471 23.092C118.393 23.0561 118.262 23.0381 118.088 23.0381H117.591L117.592 24.4566ZM118.304 23.6905C118.25 23.7144 118.172 23.7264 118.07 23.7264H117.843V23.2117H118.052C118.196 23.2117 118.292 23.2296 118.358 23.2656C118.418 23.2955 118.447 23.3673 118.447 23.4691C118.447 23.5768 118.4 23.6546 118.304 23.6905ZM119.028 22.8406C118.777 22.5892 118.471 22.4635 118.112 22.4635C117.753 22.4635 117.454 22.5892 117.203 22.8406C116.951 23.092 116.825 23.3972 116.825 23.7504C116.825 24.1095 116.945 24.4147 117.197 24.6661C117.448 24.9235 117.753 25.0492 118.112 25.0492C118.471 25.0492 118.777 24.9235 119.028 24.6661C119.279 24.4147 119.405 24.1095 119.405 23.7504C119.405 23.3972 119.279 23.092 119.028 22.8406ZM118.896 22.9663C119.112 23.1817 119.22 23.4451 119.22 23.7504C119.22 24.0616 119.112 24.3249 118.896 24.5464C118.687 24.7619 118.424 24.8756 118.112 24.8756C117.807 24.8756 117.544 24.7619 117.322 24.5464C117.113 24.3249 117.005 24.0616 117.005 23.7504C117.005 23.4451 117.113 23.1817 117.328 22.9663C117.544 22.7448 117.807 22.6371 118.112 22.6371C118.418 22.6371 118.681 22.7448 118.896 22.9663Z" fill="#4B4B4B"/>
    <path d="M114.276 22.4635L118.112 33.6681H116.113L114.922 30.0051H111.846L110.679 33.6681H109.284L113.079 22.4635H114.276ZM112.187 28.9038H114.575L113.396 25.133L112.187 28.9038Z" fill="#4B4B4B"/>
    <path d="M74.6466 22.4635C75.9454 22.4635 76.8372 22.4874 77.6453 23.0201C78.6388 23.6725 78.7825 24.7858 78.7825 25.3903C78.7825 27.0662 77.6872 28.7601 74.91 28.7601H73.5393V33.6681H71.6659V22.4635H74.6466ZM73.5393 23.6127V27.581H74.5508C75.6342 27.581 76.7894 27.3954 76.7894 25.4083C76.7894 24.4566 76.4662 24.0257 76.0472 23.8162C75.8317 23.7085 75.5863 23.6606 75.3289 23.6306C75.0656 23.6067 74.8022 23.6127 74.5508 23.6127H73.5393Z" fill="#4B4B4B"/>
    <path d="M83.1099 22.4635V32.4411H87.0423V33.6681H81.2305V22.4635H83.1099Z" fill="#4B4B4B"/>
    <path d="M93.8955 22.4635L97.7321 33.6681H95.733L94.5419 30.0051H91.4654L90.2983 33.6681H88.8977L92.6984 22.4635H93.8955ZM91.8066 28.9038H94.1948L93.0156 25.133L91.8066 28.9038Z" fill="#4B4B4B"/>
    <path d="M107.165 22.4635V23.4152L101.79 32.4351H107.458V33.6681H99.5876V32.7164L104.992 23.6486H99.9168V22.4635H107.165Z" fill="#4B4B4B"/>
    <path d="M60.7366 5.04015C60.0842 6.89561 56.5109 5.14788 54.6674 4.28599C53.3028 3.65155 52.3691 3.12483 51.8424 2.81958L53.1891 4.53139H51.3635C51.8902 4.83665 52.818 5.35737 54.1527 5.97985C55.9962 6.84773 59.5754 8.59546 60.2278 6.73401C61.3471 3.54381 67.8352 7.49415 68.4757 7.89517L68.9785 6.18934C68.2961 5.76438 61.8499 1.86192 60.7366 5.04015Z" fill="#4B4B4B"/>
    <path d="M59.8268 8.1046C59.1744 9.96006 55.5952 8.21234 53.7517 7.35044C52.387 6.716 51.4533 6.18928 50.9266 5.89001L52.2733 7.60183H50.4537C50.9745 7.9011 51.9082 8.42781 53.2369 9.05029C55.0804 9.91218 58.6597 11.6599 59.3121 9.79846C60.4373 6.60227 66.9793 10.5945 67.5659 10.9596L68.0687 9.25977C67.4282 8.85875 60.9401 4.9144 59.8268 8.1046Z" fill="#4B4B4B"/>
    <path d="M58.911 11.1692C58.2586 13.0306 54.6794 11.2829 52.8359 10.421C51.4772 9.78057 50.5375 9.25386 50.0168 8.95459L51.3635 10.6664H49.532C50.0587 10.9717 50.9924 11.4924 52.3271 12.1149C54.1706 12.9827 57.7499 14.7245 58.3963 12.863C59.5275 9.64889 66.1234 13.695 66.6621 14.0302L67.1589 12.3303C66.5663 11.9592 60.0303 7.967 58.911 11.1692Z" fill="#4B4B4B"/>
    <path d="M59.2582 16.149C49.5918 16.149 41.763 12.7074 41.763 8.46376C41.763 4.21415 49.5918 0.772569 59.2582 0.772569C68.9186 0.772569 76.7534 4.21415 76.7534 8.46376C76.7534 12.7074 68.9186 16.149 59.2582 16.149ZM59.2582 0.0483398C48.4247 0.0483398 39.6442 3.81313 39.6442 8.45179C39.6442 13.0964 48.4247 16.8612 59.2582 16.8612C70.0857 16.8612 78.8663 13.0964 78.8663 8.45179C78.8663 3.81313 70.0857 0.0483398 59.2582 0.0483398Z" fill="#4B4B4B"/>
    </g>
    <defs>
    <clipPath id="clip0_152_1613">
    <rect width="120" height="33.9033" fill="white" transform="translate(0 0.0483398)"/>
    </clipPath>
    </defs>
    </svg>
    