<svg width="40" height="40" viewBox="0 0 40 40" fill="none" xmlns="http://www.w3.org/2000/svg">
    <g clip-path="url(#clip0_143_1411)">
    <path fill-rule="evenodd" clip-rule="evenodd" d="M39.2495 36.4063C39.2495 38.4375 37.687 40 35.6558 40V39.9998H4.09367C2.06227 39.9998 0.5 38.4373 0.5 36.4061V3.51579C0.5 1.5625 2.06227 0 4.09367 0H35.6558C37.687 0 39.2495 1.5625 39.2495 3.51579V36.4063ZM37.9216 36.4064C37.9216 37.6565 36.9057 38.6717 35.6559 38.6717V38.6715H4.09371C2.84367 38.6715 1.82819 37.656 1.82819 36.4062V3.51588C1.82819 2.26584 2.84367 1.32825 4.09371 1.32825H35.6559C36.9059 1.32825 37.9216 2.26584 37.9216 3.51588V36.4064Z" fill="#4B4B4B"/>
    <path fill-rule="evenodd" clip-rule="evenodd" d="M4.48397 27.8905H6.04647C7.37463 27.8905 7.99953 28.3592 7.99953 29.9217V35.2339C7.99953 36.0936 7.3744 36.8749 6.35892 36.8749H4.48375L4.48397 27.8905ZM5.81213 35.7811H6.12458C6.43726 35.7811 6.59349 35.703 6.59349 35.1564V29.6092C6.59349 29.0624 6.43726 28.9845 6.12458 28.9845H5.81213V35.7811ZM9.09357 36.8749V27.8905H12.0621V29.0624H10.4217V31.7183H11.984V32.8907H10.4217V35.703H12.1402V36.8749H9.09357ZM12.9997 36.8749V27.8905H14.3279V35.703H16.0466V36.8749H12.9997ZM16.4372 36.8749V27.8905H17.7653V31.7183H19.0153V27.8905H20.3435V36.8749H19.0153V32.8907H17.7653V36.8749H16.4372ZM22.2185 27.8905H24.2496L25.2649 36.8747H23.8588L23.6243 34.4529H22.6869L22.3742 36.8747H21.2023L22.2185 27.8905ZM23.5464 33.2812L23.2337 29.5311H23.1556L22.8429 33.2812H23.5464ZM26.1248 27.8905H27.4527V36.8749H26.1248V27.8905ZM31.437 27.8905V28.906L29.6404 35.703H31.437V36.8749H28.2339V35.9371L30.0309 29.0624H28.2339V27.8905H31.437ZM32.2962 36.8749V27.8905H35.265V29.0624H33.6246V31.7183H35.1871V32.8907H33.6246V35.703H35.265V36.8749H32.2962Z" fill="#4B4B4B"/>
    <path fill-rule="evenodd" clip-rule="evenodd" d="M6.90603 4.76585H10.2654L10.8122 3.98449H14.9528L17.531 3.12524L16.7499 5.78156L17.7654 5.23454L18.0778 12.2657H32.3747V10.469H20.4996L19.7966 7.26571L20.4996 4.06261H34.7964V7.57839L32.9996 5.78156H21.9061L21.5155 7.26571L21.9061 8.82821H33.2341L34.7964 10.3907V16.172L36.437 22.422L35.2651 25.703H30.187L30.8122 24.0626L32.5309 23.5939L33.312 22.1093L31.1248 20L28.078 23.7499L27.7653 25.703H22.3748L22.7653 24.0626L24.2497 23.5939L28.3121 16.8753L22.9213 19.2187H17.8435L16.4372 22.0314L17.9216 24.2186L17.531 25.703H11.906L12.2184 24.0626L13.9371 23.5939L12.453 19.9217L9.01554 24.2186L9.40611 25.703H4.48405L4.87485 24.0626L6.12489 23.3594L8.31229 20.0784L7.37471 17.0313L5.57809 17.8907L8.23418 10.8596L7.06225 9.219L7.7655 8.35953L9.48422 9.53146L10.8905 7.96896H6.43734L6.12489 8.7501L5.34375 8.59387L5.49976 7.34405H10.6562L10.031 6.56269L7.60927 6.95326L6.90603 4.76585Z" fill="#4B4B4B"/>
    </g>
    <defs>
    <clipPath id="clip0_143_1411">
    <rect width="39" height="40" fill="white" transform="translate(0.5)"/>
    </clipPath>
    </defs>
    </svg>
    