<svg width="100" height="16" viewBox="0 0 100 16" fill="none" xmlns="http://www.w3.org/2000/svg">
    <g clip-path="url(#clip0_143_1421)">
    <path d="M9.425 10.05H4.875C3.875 10.05 3.35 10.45 3.35 11.175C3.35 12.125 4.475 13.175 5.625 13.175C7.5 13.175 7.8 11.65 8.95 11.65C9.65 11.65 10.425 12.25 10.425 12.775C10.425 13.475 8.85 15.425 5.575 15.425C2.4 15.45 0 13.5 0 9.77495C0 5.32495 2.7 3.62495 5.525 3.62495C10.275 3.62495 10.9 7.89995 10.9 8.77495C10.9 9.77495 10.475 10.05 9.425 10.05ZM5.325 8.29995C6.775 8.29995 7.5 7.99995 7.5 7.37495C7.5 6.67495 6.575 5.89995 5.55 5.89995C4.675 5.89995 3.55 6.49995 3.55 7.29995C3.525 7.94995 4.15 8.29995 5.325 8.29995ZM28.525 14.15C28.525 14.9 28.1 15.275 27.225 15.275C26.35 15.275 25.925 14.875 25.925 14.15V9.59995C25.925 7.49995 25.175 6.32495 23.825 6.32495C22.55 6.32495 21.65 7.27495 21.65 9.47495V14.15C21.65 14.9 21.225 15.275 20.35 15.275C19.475 15.275 19.05 14.875 19.05 14.15V9.22495C19.05 7.34995 18.35 6.29995 16.95 6.29995C15.5 6.29995 14.775 7.42495 14.775 9.34995V14.15C14.775 14.9 14.35 15.275 13.475 15.275C12.6 15.275 12.175 14.85 12.175 14V5.64995C12.175 4.89995 12.65 4.47495 13.575 4.47495C14.225 4.47495 15.1 4.77495 15.625 4.77495C16.575 4.77495 17.25 4.19995 18.5 4.19995C20.15 4.19995 20.675 5.19995 21.725 5.19995C22.65 5.19995 23.375 4.19995 25.3 4.19995C27.575 4.19995 28.575 5.29995 28.575 7.37495V14.15H28.525ZM46.4 14.15C46.4 14.9 45.975 15.275 45.1 15.275C44.225 15.275 43.8 14.875 43.8 14.15V9.59995C43.8 7.49995 43.05 6.32495 41.7 6.32495C40.425 6.32495 39.525 7.27495 39.525 9.47495V14.15C39.525 14.9 39.1 15.275 38.225 15.275C37.35 15.275 36.925 14.875 36.925 14.15V9.22495C36.925 7.34995 36.225 6.29995 34.825 6.29995C33.375 6.29995 32.65 7.42495 32.65 9.34995V14.15C32.65 14.9 32.225 15.275 31.35 15.275C30.475 15.275 30.05 14.85 30.05 14V5.64995C30.05 4.89995 30.525 4.47495 31.45 4.47495C32.1 4.47495 32.975 4.77495 33.5 4.77495C34.45 4.77495 35.125 4.19995 36.375 4.19995C38.025 4.19995 38.55 5.19995 39.6 5.19995C40.525 5.19995 41.25 4.19995 43.175 4.19995C45.45 4.19995 46.45 5.29995 46.45 7.37495V14.15H46.4ZM57 10.05H52.475C51.475 10.05 50.95 10.45 50.95 11.175C50.95 12.125 52.075 13.175 53.225 13.175C55.1 13.175 55.4 11.65 56.55 11.65C57.25 11.65 58.025 12.25 58.025 12.775C58.025 13.475 56.45 15.425 53.175 15.425C50 15.425 47.6 13.475 47.6 9.74995C47.6 5.29995 50.3 3.59995 53.125 3.59995C57.875 3.59995 58.475 7.87495 58.475 8.74995C58.5 9.77495 58.05 10.05 57 10.05ZM52.9 8.29995C54.35 8.29995 55.075 7.99995 55.075 7.37495C55.075 6.67495 54.15 5.89995 53.125 5.89995C52.25 5.89995 51.125 6.49995 51.125 7.29995C51.125 7.94995 51.725 8.29995 52.9 8.29995ZM69.625 5.19995C69.625 6.54995 69.325 6.94995 68.675 7.59995L66 10.275C65.075 11.2 64.65 11.75 64.65 12.025C64.65 12.625 65.05 12.95 65.875 12.95H68.275C69.15 12.95 69.575 13.475 69.575 14.175C69.575 14.95 69.05 15.3 68 15.3H60.85C60.075 15.3 59.5 14.9 59.5 14.075V13.475C59.5 12.9 59.8 12.35 60.45 11.7L64.025 8.07495C64.325 7.77495 64.5 7.54995 64.5 7.12495C64.5 6.59995 63.925 6.37495 63.1 6.37495H61.475C60.875 6.37495 60.125 6.07495 60.125 5.19995C60.125 4.49995 60.55 4.02495 61.4 4.02495H68.25C69.075 3.97495 69.625 4.37495 69.625 5.19995ZM80.3 10.05H75.75C74.75 10.05 74.225 10.45 74.225 11.175C74.225 12.125 75.35 13.175 76.5 13.175C78.375 13.175 78.675 11.65 79.825 11.65C80.525 11.65 81.3 12.25 81.3 12.775C81.3 13.475 79.725 15.425 76.45 15.425C73.275 15.425 70.875 13.475 70.875 9.74995C70.875 5.29995 73.575 3.59995 76.4 3.59995C81.15 3.59995 81.775 7.87495 81.775 8.74995C81.775 9.77495 81.35 10.05 80.3 10.05ZM76.2 8.29995C77.65 8.29995 78.375 7.99995 78.375 7.37495C78.375 6.67495 77.45 5.89995 76.425 5.89995C75.55 5.89995 74.425 6.49995 74.425 7.29995C74.4 7.94995 75.025 8.29995 76.2 8.29995ZM82.15 4.82495C82.15 4.07495 83.275 3.64995 83.45 3.19995C83.675 2.72495 83.675 2.49995 83.675 2.02495C83.675 1.54995 83.8 0.449951 85.375 0.449951C86.9 0.449951 87.025 1.44995 87.025 2.07495C87.025 2.49995 87.1 2.94995 87.325 3.29995C87.675 3.82495 88.95 3.82495 88.95 4.87495C88.95 5.92495 87.6 5.79995 87.2 6.67495C86.975 7.14995 87.025 7.42495 87.025 8.14995V10.675C87.025 11.425 87.1 11.625 87.275 11.975C87.625 12.725 89.075 12.725 89.075 14.025C89.075 14.95 88.5 15.425 87.325 15.425C84.925 15.425 83.7 14.325 83.7 12.2V8.27495C83.7 7.39995 83.625 6.74995 83.275 6.32495C82.925 5.87495 82.15 5.57495 82.15 4.82495ZM98.725 15.2C97.8 15.2 97.375 14.8 96.8 14.8C95.8 14.8 95.1 15.5 93.625 15.5C91.175 15.5 89.875 14.1 89.875 12.175C89.875 10.225 91.45 8.69995 94.975 8.24995C96.425 8.04995 96.85 7.49995 96.85 7.02495C96.85 6.14995 96.15 5.57495 95.325 5.57495C93.675 5.57495 93.8 7.02495 91.975 7.02495C91.375 7.02495 90.7 6.89995 90.7 6.14995C90.7 5.37495 91.625 3.69995 95.1 3.69995C98.15 3.69995 99.975 4.39995 99.975 7.52495V14.075C100 15 99.475 15.2 98.725 15.2ZM94.65 13.3C95.775 13.3 96.925 12.25 96.925 11.125C96.925 10.55 96.625 10.075 95.825 10.075C94.9 10.075 93.075 10.675 93.075 11.9C93.075 12.65 93.675 13.3 94.65 13.3Z" fill="#4B4B4B"/>
    </g>
    <defs>
    <clipPath id="clip0_143_1421">
    <rect width="100" height="15.05" fill="white" transform="translate(0 0.474976)"/>
    </clipPath>
    </defs>
    </svg>
    