<svg width="66" height="30" viewBox="0 0 66 30" fill="none" xmlns="http://www.w3.org/2000/svg">
    <g clip-path="url(#clip0_143_1456)">
    <mask id="mask0_143_1456" style="mask-type:luminance" maskUnits="userSpaceOnUse" x="-97" y="-302" width="262" height="364">
    <path d="M-96.374 61.2683H164.644V-301.887H-96.374V61.2683Z" fill="white"/>
    </mask>
    <g mask="url(#mask0_143_1456)">
    <mask id="mask1_143_1456" style="mask-type:luminance" maskUnits="userSpaceOnUse" x="-4" y="-4" width="76" height="37">
    <path d="M-3.31561 32.3232H71.5852V-3.53836H-3.31561V32.3232Z" fill="white"/>
    </mask>
    <g mask="url(#mask1_143_1456)">
    <mask id="mask2_143_1456" style="mask-type:luminance" maskUnits="userSpaceOnUse" x="0" y="0" width="66" height="30">
    <path d="M0.845657 0.320213H65.1543V29.6797H0.845657V0.320213Z" fill="white"/>
    </mask>
    <g mask="url(#mask2_143_1456)">
    <mask id="mask3_143_1456" style="mask-type:luminance" maskUnits="userSpaceOnUse" x="0" y="0" width="66" height="30">
    <path d="M0.845657 0.320213H65.1543V29.6797H0.845657V0.320213Z" fill="white"/>
    </mask>
    <g mask="url(#mask3_143_1456)">
    <mask id="mask4_143_1456" style="mask-type:luminance" maskUnits="userSpaceOnUse" x="-373" y="-277" width="843" height="632">
    <path d="M-372.45 -276.77H469.77V354.895H-372.45V-276.77Z" fill="white"/>
    </mask>
    <g mask="url(#mask4_143_1456)">
    <path d="M30.2087 14.9591L30.2059 14.642C30.2059 14.642 22.3774 14.6016 19.9589 14.5908C22.3338 14.1368 30.0218 12.6659 30.0218 12.6659L29.9681 12.3512C29.9681 12.3512 22.2297 13.5387 19.8416 13.9058C22.114 13.0819 29.4777 10.4243 29.4777 10.4243L29.3776 10.1257C29.3776 10.1257 21.9178 12.5058 19.6158 13.2416C21.7321 12.0778 28.5909 8.29924 28.5909 8.29924L28.4432 8.019C28.4432 8.019 21.4506 11.5377 19.2903 12.6223C21.198 11.1409 27.381 6.33591 27.381 6.33591L27.1909 6.08289C27.1909 6.08289 20.8341 10.6553 18.8715 12.0646C20.5234 10.3018 25.8797 4.58877 25.8797 4.58877L25.6519 4.36898C25.6519 4.36898 20.0882 9.87704 18.3715 11.5785C19.7287 9.57757 24.1238 3.09666 24.1238 3.09666L23.8647 2.9153C23.8647 2.9153 19.2335 9.22766 17.8018 11.1746C18.8291 8.98705 22.1568 1.90001 22.1568 1.90001L21.873 1.75908C21.873 1.75908 18.2818 8.71601 17.1749 10.8663C17.8478 8.54266 20.0246 1.02363 20.0246 1.02363L19.7243 0.931549C19.7243 0.931549 17.2665 8.3661 16.5079 10.6589C16.8081 8.26201 17.7818 0.493162 17.7818 0.493162L17.4691 0.44792C17.4691 0.44792 16.2072 8.17433 15.8156 10.5604C15.7384 8.14471 15.4854 0.320213 15.4854 0.320213L15.1687 0.323011C15.1687 0.323011 15.1302 8.15231 15.1182 10.5684C14.6622 8.19435 13.1885 0.506376 13.1885 0.506376L12.8779 0.560024C12.8779 0.560024 14.0657 8.29924 14.432 10.6865C13.6089 8.41414 10.9506 1.05045 10.9506 1.05045L10.6527 1.15294C10.6527 1.15294 13.0332 8.60912 13.7687 10.9115C12.6024 8.79528 8.82589 1.93643 8.82589 1.93643L8.54604 2.08417C8.54604 2.08417 12.0647 9.08193 13.1521 11.239C11.6696 9.33015 6.86295 3.1463 6.86295 3.1463L6.61034 3.33647C6.61034 3.33647 11.1824 9.69407 12.5904 11.6566C10.828 10.0015 5.11822 4.65043 5.11822 4.65043L4.89602 4.87503C4.89602 4.87503 10.4045 10.4399 12.1064 12.1574C10.1058 10.8018 3.62651 6.40357 3.62651 6.40357L3.44234 6.665C3.44234 6.665 9.75311 11.2971 11.7012 12.7271C9.5137 11.7002 2.42825 8.37331 2.42825 8.37331L2.28893 8.65556C2.28893 8.65556 9.24426 12.2447 11.3938 13.3545C9.07251 12.6815 1.55188 10.5032 1.55188 10.5032L1.4574 10.8075C1.4574 10.8075 8.89275 13.2632 11.1876 14.0211C8.78825 13.72 1.02061 12.7448 1.02061 12.7448L0.974567 13.0582C0.974567 13.0582 8.70258 14.3226 11.0863 14.7125C8.67215 14.7898 0.845657 15.0424 0.845657 15.0424L0.851259 15.3611C0.851259 15.3611 8.67976 15.3979 11.0967 15.4099C8.723 15.8651 1.03102 17.3388 1.03102 17.3388L1.08747 17.6511C1.08747 17.6511 8.82749 16.464 11.2156 16.0977C8.94199 16.9208 1.5763 19.5776 1.5763 19.5776L1.68119 19.8762C1.68119 19.8762 9.13936 17.4966 11.4398 16.7603C9.32353 17.9273 2.46388 21.7051 2.46388 21.7051L2.61321 21.9853C2.61321 21.9853 9.60737 18.4634 11.7653 17.3784C9.85759 18.8602 3.67254 23.6644 3.67254 23.6644L3.86352 23.9178C3.86352 23.9178 10.2219 19.3482 12.1829 17.9385C10.5294 19.7025 5.17587 25.4115 5.17587 25.4115L5.40247 25.6321C5.40247 25.6321 10.9662 20.1245 12.6849 18.4242C11.3269 20.4223 6.93102 26.9024 6.93102 26.9024L7.18965 27.0874C7.18965 27.0874 11.8233 20.7766 13.2554 18.8273C12.2265 21.0136 8.89955 28.0999 8.89955 28.0999L9.18181 28.2408C9.18181 28.2408 12.7718 21.2831 13.8807 19.1352C13.2086 21.4568 11.0314 28.9771 11.0314 28.9771L11.3313 29.0708C11.3313 29.0708 13.7903 21.639 14.5477 19.3414C14.2479 21.7407 13.273 29.5075 13.273 29.5075L13.5857 29.5512C13.5857 29.5512 14.85 21.8276 15.2387 19.4427C15.3152 21.8572 15.5706 29.6797 15.5706 29.6797L15.8885 29.6769C15.8885 29.6769 15.9249 21.8508 15.937 19.4323C16.3914 21.8055 17.8659 29.4939 17.8659 29.4939L18.1761 29.4419C18.1761 29.4419 16.9907 21.7035 16.6268 19.3142C17.4439 21.5862 20.1038 28.9486 20.1038 28.9486L20.4033 28.8478C20.4033 28.8478 18.0212 21.3916 17.2874 19.0892C18.4532 21.205 22.2325 28.0611 22.2325 28.0611L22.5127 27.9149C22.5127 27.9149 18.9897 20.9208 17.9051 18.7613C19.3884 20.6689 24.1914 26.854 24.1914 26.854L24.4449 26.6638C24.4449 26.6638 19.8752 20.3078 18.4624 18.3441C20.2279 19.9976 25.9378 25.3523 25.9378 25.3523L26.16 25.1257C26.16 25.1257 20.6511 19.5628 18.9496 17.8441C20.9486 19.2021 27.4291 23.5947 27.4291 23.5947L27.6133 23.3377C27.6133 23.3377 21.3029 18.7048 19.3544 17.2736C21.5419 18.3025 28.6289 21.6286 28.6289 21.6286L28.7663 21.3439C28.7663 21.3439 21.8101 17.7548 19.6634 16.6458C21.9847 17.3204 29.5037 19.4967 29.5037 19.4967L29.5982 19.196C29.5982 19.196 22.1645 16.7379 19.8704 15.9812C22.2661 16.2819 30.035 17.2551 30.035 17.2551L30.0794 16.9429C30.0794 16.9429 22.3546 15.6797 19.9665 15.2902C22.3834 15.2125 30.2087 14.9591 30.2087 14.9591Z" fill="#4B4B4B"/>
    <path d="M31.7017 15.7302H25.766L25.2171 13.7789H31.7017V15.7302Z" fill="#4B4B4B"/>
    <path d="M31.481 13.761H34.583V13.64C34.583 12.881 34.5029 12.481 34.2623 12.1003C34.0037 11.7003 33.6225 11.4986 33.0825 11.4986C32.06 11.4986 31.481 12.2993 31.481 13.7217V13.761ZM36.2044 17.2664L37.2437 18.8679C36.0655 19.8275 34.8224 20.2871 33.3819 20.2871C30.4373 20.2871 28.5361 18.2065 28.5361 14.9816C28.5361 13.1416 28.918 11.9205 29.8172 10.9201C30.6595 9.97882 31.6816 9.53764 33.0408 9.53764C34.2215 9.53764 35.3417 9.93919 36.0062 10.6174C36.9459 11.5794 37.3654 12.9603 37.3654 15.1033V15.7251H31.4394V15.8024C31.4394 17.3874 32.2209 18.2861 33.6009 18.2861C34.5229 18.2861 35.3853 17.9466 36.2044 17.2664Z" fill="#4B4B4B"/>
    <path d="M40.3701 17.4853C40.728 17.7852 41.3089 18.0854 41.8506 18.0854C43.1722 18.0854 43.6906 17.1866 43.6906 14.8426C43.6906 13.8633 43.6126 13.0818 43.434 12.579C43.2314 12.0205 42.813 11.719 42.1505 11.719C41.4911 11.719 40.8501 12.0005 40.3701 12.5013V17.4853ZM37.6049 9.95706L39.987 9.53829C40.0902 9.897 40.1467 10.1793 40.1695 10.4999C40.6295 9.93984 41.652 9.53829 42.6897 9.53829C43.412 9.53829 44.1518 9.7773 44.7139 10.1592C45.8133 10.9003 46.614 12.2194 46.614 14.5831C46.614 16.7847 46.2733 17.9273 45.1955 19.0475C44.4913 19.7877 43.5725 20.2085 42.4499 20.2085C41.652 20.2085 40.8874 20.0071 40.3076 19.6668C40.3481 19.9074 40.3481 20.5092 40.3481 20.5092V23.712L37.7658 24.3926V12.5413C37.7658 11.1998 37.7466 10.8202 37.6049 9.95706Z" fill="#4B4B4B"/>
    <path d="M54.6026 10.6174L53.3031 12.3817C52.7606 11.8789 52.1829 11.5802 51.6805 11.5802C50.4794 11.5802 49.9397 12.6215 49.9397 15.0225C49.9397 16.3644 50.0987 17.1644 50.4586 17.6063C50.7404 17.9659 51.2008 18.1857 51.662 18.1857C52.2814 18.1857 52.8431 17.9274 53.5021 17.3457L53.6626 17.204L54.8845 18.8274C54.4825 19.2266 54.3036 19.3647 53.9424 19.5869C53.221 20.0081 52.4211 20.2271 51.4398 20.2271C48.6158 20.2271 46.9735 18.2677 46.9735 14.9428C46.9735 12.5799 47.8747 11.0193 49.0778 10.197C49.7592 9.73741 50.7616 9.43714 51.6184 9.43714C52.301 9.43714 53.0212 9.6157 53.6013 9.89715C53.9833 10.0997 54.1614 10.2378 54.6026 10.6174Z" fill="#4B4B4B"/>
    <path d="M58.7867 11.5201C57.7654 11.5201 57.1861 12.0814 57.1861 13.0411C57.1861 14.0828 57.8267 14.5024 58.7675 14.5024C59.8276 14.5024 60.4069 13.9823 60.4069 13.0411C60.4069 12.0814 59.8092 11.5201 58.7867 11.5201ZM64.0333 9.15646L65.1543 10.8596C64.5734 11.4004 64.0133 11.6186 63.2719 11.6186C63.012 11.6186 62.9107 11.6002 62.57 11.5594C62.972 12.0414 63.1722 12.5607 63.1722 13.2409C63.1722 15.002 61.5696 16.2851 59.3872 16.2851C59.2683 16.2851 59.1887 16.2851 58.9861 16.2643C58.3071 16.5838 57.9244 16.8244 57.9244 17.1051C57.9244 17.246 58.0857 17.3457 58.3679 17.3457L59.8092 17.3649C61.3674 17.3873 62.1913 17.6259 62.9107 18.2861C63.5109 18.847 63.7931 19.5472 63.7931 20.4692C63.7931 21.3316 63.5305 21.9898 62.972 22.5899C62.0724 23.5531 60.5286 23.9119 58.9272 23.9119C57.4631 23.9119 55.9622 23.6721 55.0426 22.8121C54.4825 22.2904 54.2023 21.6911 54.2023 20.9897C54.2023 20.4284 54.3436 20.1489 54.4433 19.9468H56.9239C56.8482 20.1678 56.8054 20.2494 56.8054 20.6074C56.8054 21.4289 57.4856 21.8701 58.7275 21.8701C59.4881 21.8701 60.0706 21.7696 60.4302 21.529C60.8097 21.2892 61.0671 20.8888 61.0671 20.4884C61.0671 20.0897 60.8689 19.7278 60.5891 19.5688C60.3073 19.4291 59.9285 19.3066 59.1887 19.2666C59.0445 19.2666 58.669 19.2482 58.0465 19.2482C56.8482 19.2265 56.0631 19.1068 55.5831 18.9263C55.3433 18.8274 55.1435 18.6464 55.0026 18.4266C54.8829 18.1864 54.8048 17.905 54.8048 17.5871C54.8048 17.204 54.9029 16.8837 55.1251 16.6459C55.4213 16.3044 56.0855 16.0049 56.6849 15.864C55.2043 15.4828 54.4825 14.5432 54.4825 13.0219C54.4825 10.92 56.1848 9.55682 58.8071 9.55682C59.3872 9.55682 59.9077 9.61607 60.6492 9.81824C61.389 9.9972 61.5696 10.0388 61.9095 10.0388C62.6509 10.0388 63.4136 9.71816 64.0333 9.15646Z" fill="#4B4B4B"/>
    </g>
    </g>
    </g>
    </g>
    </g>
    </g>
    <defs>
    <clipPath id="clip0_143_1456">
    <rect width="64.9518" height="30" fill="white" transform="translate(0.524109)"/>
    </clipPath>
    </defs>
    </svg>
    