<svg width="38" height="40" viewBox="0 0 38 40" fill="none" xmlns="http://www.w3.org/2000/svg">
    <g clip-path="url(#clip0_143_1495)">
    <path fill-rule="evenodd" clip-rule="evenodd" d="M33.1422 0H37.1051V31.9471H28.4055C37.4167 21.5016 38.1212 8.24879 33.1422 0ZM9.60553 25.9971C10.0223 28.0768 10.9463 30.0291 11.7779 31.9814L7.12067 31.9699V27.5104L9.60553 25.9971ZM9.02822 21.8829L7.14517 22.9701V0H17.2671C10.7146 6.96792 8.86648 14.3841 9.02822 21.8829ZM30.704 10.7916C30.2529 7.1171 28.0461 4.50671 25.3307 4.09018C20.9411 3.3848 16.2719 8.52748 14.8974 15.2983C13.5221 22.0689 15.7645 27.7175 20.0169 28.1686C24.2448 28.6077 29.0752 23.535 30.3805 16.9613C30.4844 16.36 30.704 15.2387 30.7958 14.4075L27.791 16.1291C27.1561 20.1725 24.6027 24.3671 20.8369 24.1357C18.1899 24.0089 17.0352 20.0807 17.5207 15.4933C17.9712 9.73932 25.8734 3.83658 27.791 12.2936L25.1469 13.7378C24.8234 12.6162 24.0831 11.854 23.3313 11.854C21.8997 11.854 20.2705 13.9923 20.073 16.1981C19.8768 18.4056 20.5815 20.404 22.026 20.404C23.4587 20.404 25.1468 17.8285 25.2032 15.4008L33.0723 11.2768C33.8002 18.8439 28.4613 32.4434 19.2762 31.5543C13.9046 31.0458 10.8998 24.2395 12.6554 15.0439C14.4242 5.84612 20.6517 0.0925772 26.0704 0.727944C27.7007 0.923962 29.4215 1.91708 30.6107 3.44201C31.7899 4.98046 32.7133 7.1171 32.9349 9.55537L30.704 10.7916Z" fill="#4B4B4B"/>
    <path fill-rule="evenodd" clip-rule="evenodd" d="M23.0658 32.9292H30.3685V39.6532H27.5491V35.0782H26.0829V39.6876L23.0658 39.6532V32.9292Z" fill="#4B4B4B"/>
    <path fill-rule="evenodd" clip-rule="evenodd" d="M0.894928 26.0541L7.13454 22.9568L7.12102 27.522L0.894928 31.6461V26.0541Z" fill="#4B4B4B"/>
    <path fill-rule="evenodd" clip-rule="evenodd" d="M25.135 15.4817L9.55906 26.0428C9.2357 24.7369 8.98271 23.3619 9.01627 21.9183L17.0578 17.8397L25.0994 13.7841L25.135 15.4817ZM36.7696 35.7827C36.2269 35.3673 35.7069 35.1478 35.2337 35.1478C34.9898 35.1478 34.713 35.2159 34.5055 35.3438C34.3096 35.4364 34.0888 35.598 33.9968 35.7827C33.8571 35.9783 33.7885 36.2336 33.7885 36.4532C33.7885 36.7766 33.9268 37.1237 34.1339 37.3546C34.3315 37.5723 34.6786 37.7351 35.0597 37.7351H35.0941H35.1294C35.4288 37.7351 35.7408 37.7 35.9836 37.6083C36.2267 37.4805 36.5379 37.3188 36.8038 37.1581L36.7121 39.6766C36.0876 39.8731 35.4984 39.9999 34.9897 39.9999C34.8165 39.9999 34.5746 39.9767 34.3094 39.9431C33.7186 39.8731 33.1644 39.654 32.6913 39.3646C32.2167 39.0063 31.8011 38.6022 31.5598 38.117C31.3159 37.6083 31.1769 37.0311 31.1769 36.4872C31.1769 35.7827 31.3503 35.1122 31.6974 34.639C31.9987 34.1303 32.5174 33.6791 33.0725 33.4258C33.6512 33.1372 34.3095 32.9755 34.9898 32.9755C35.5686 32.9755 36.1925 33.0679 36.7358 33.2989L36.7696 35.7827Z" fill="#4B4B4B"/>
    <path fill-rule="evenodd" clip-rule="evenodd" d="M17.058 39.6648V32.9412H21.9001V34.7314H19.5882V35.4015H21.6573V37.0995H19.5882V37.8398H21.9564V39.6648H17.058Z" fill="#4B4B4B"/>
    </g>
    <defs>
    <clipPath id="clip0_143_1495">
    <rect width="36.2101" height="40" fill="white" transform="translate(0.894928)"/>
    </clipPath>
    </defs>
    </svg>
    