<svg width="62" height="20" viewBox="0 0 62 20" fill="none" xmlns="http://www.w3.org/2000/svg">
    <g clip-path="url(#clip0_143_1515)">
    <mask id="mask0_143_1515" style="mask-type:luminance" maskUnits="userSpaceOnUse" x="0" y="0" width="62" height="20">
    <path d="M0.903809 0V20H61.0961V0H0.903809Z" fill="white"/>
    </mask>
    <g mask="url(#mask0_143_1515)">
    <path d="M6.42846 6.77287H1.31448C1.09621 6.77287 0.903809 6.96691 0.903809 7.18512V20H6.42846V6.77287Z" fill="#4B4B4B"/>
    <path d="M0.919952 5.60071H6.52059V8.58307e-06H0.918335L0.919952 5.60071Z" fill="#4B4B4B"/>
    <path d="M51.1575 7.8756C51.0525 8.17146 50.1195 10.9524 50.1195 10.9524H52.1955C52.1955 10.9524 51.2626 8.17146 51.1575 7.8756ZM48.6903 0.903889L48.8908 0.391394C49.0977 0.0534821 49.3322 0.042141 49.8511 0.0470257H52.2053C52.923 0.0470257 53.1995 8.96454e-05 53.4404 0.391394C53.447 0.39785 56.472 8.14563 56.472 8.14563L56.4753 8.17957L61.0961 19.9888H55.5359L53.8268 15.5199H48.4882L46.7792 19.9888H41.2206L48.6871 0.903889H48.6903Z" fill="#4B4B4B"/>
    <path d="M16.4333 5.5733L14.7211 5.57976V14.5433L16.2829 14.5401L16.5158 14.5433C18.9911 14.5433 21.0008 12.5337 21.0008 10.0567C21.0008 7.58132 18.9911 5.5733 16.5158 5.5733H16.4333ZM16.4333 0.131044L16.5158 0.134356C21.9951 0.134356 26.4366 4.57894 26.4366 10.0567C26.4366 15.5377 21.9951 19.9823 16.5158 19.9823H16.4333L14.7211 19.9888H9.27246V2.22805L9.28215 0.541719C9.28215 0.323509 9.47618 0.131044 9.69605 0.131044H16.4333Z" fill="#4B4B4B"/>
    <path d="M38.8601 15.397H39.5359C39.7526 15.397 39.9466 15.5878 39.9466 15.8077V19.9888H28.3928L28.4026 19.8691V0.541719C28.4026 0.323509 28.5965 0.131044 28.8165 0.131044H41.3047C41.523 0.131044 41.7154 0.323509 41.7154 0.541719L39.9466 4.7277H33.8415V7.69133H38.8924L39.447 7.69613C39.6652 7.69613 39.8561 7.88851 39.8561 8.10846V8.79554L39.8642 12.3138H33.8415V15.397H38.8601Z" fill="#4B4B4B"/>
    </g>
    </g>
    <defs>
    <clipPath id="clip0_143_1515">
    <rect width="60.1923" height="20" fill="white" transform="translate(0.903809)"/>
    </clipPath>
    </defs>
    </svg>
    