<svg width="100" height="22" viewBox="0 0 100 22" fill="none" xmlns="http://www.w3.org/2000/svg">
    <g clip-path="url(#clip0_151_1379)">
    <path d="M23.5468 3.09228H27.8184V14.6878H32.3948V18.3497H23.5468V3.09228Z" fill="#4B4B4B"/>
    <mask id="mask0_151_1379" style="mask-type:luminance" maskUnits="userSpaceOnUse" x="-105" y="-33" width="1157" height="1635">
    <path d="M-104.573 1601.9H1051.24V-32.7571H-104.573V1601.9Z" fill="white"/>
    </mask>
    <g mask="url(#mask0_151_1379)">
    <path d="M34.1125 12.1814V3.09253H38.3842V12.094C38.3842 13.0318 38.5589 15.123 40.8248 15.123C43.0927 15.123 43.2674 13.0318 43.2674 12.094V3.09253H47.539V12.1814C47.539 13.8162 47.1895 18.7849 40.8248 18.7849C34.462 18.7849 34.1125 13.8162 34.1125 12.1814Z" fill="#4B4B4B"/>
    </g>
    <path d="M50.3239 3.09228H54.5955V9.49971L59.1952 3.09228H64.2086L58.4108 10.4802L64.36 18.3497H59.0205L54.5955 11.7889V18.3497H50.3239V3.09228Z" fill="#4B4B4B"/>
    <path d="M83.749 3.09149H88.0207V18.349H83.749V3.09149Z" fill="#4B4B4B"/>
    <path d="M91.15 3.09228H95.4216V14.6878H100V18.3497H91.15V3.09228Z" fill="#4B4B4B"/>
    <mask id="mask1_151_1379" style="mask-type:luminance" maskUnits="userSpaceOnUse" x="-105" y="-33" width="1157" height="1635">
    <path d="M-104.573 1601.9H1051.24V-32.7571H-104.573V1601.9Z" fill="white"/>
    </mask>
    <g mask="url(#mask1_151_1379)">
    <path d="M76.7829 10.7321C76.7829 7.72064 74.9306 6.22752 72.9016 6.22752C70.8726 6.22752 69.0202 7.72064 69.0202 10.7321C69.0202 13.7436 70.8726 15.2368 72.9016 15.2368C74.9306 15.2368 76.7829 13.7436 76.7829 10.7321ZM64.5156 10.7321C64.5156 6.56148 67.1932 2.48014 72.9016 2.48014C78.612 2.48014 81.2876 6.56148 81.2876 10.7321C81.2876 14.9028 78.612 18.9841 72.9016 18.9841C67.1932 18.9841 64.5156 14.9028 64.5156 10.7321Z" fill="#4B4B4B"/>
    </g>
    <path fill-rule="evenodd" clip-rule="evenodd" d="M20.1077 0.924576H0V21.0751H20.1077V0.924576ZM17.8834 4.74931L15.6252 8.40154C15.3786 8.81123 15.4155 9.13354 15.5301 9.44421L18.959 18.2166H4.75784C3.48413 18.2166 2.49777 17.1933 2.49777 15.974L2.48418 4.29691C2.51913 2.78825 4.71707 2.76301 4.75784 4.29108V15.2361C4.75396 15.5837 5.0588 15.974 5.46072 15.9643H15.8621L13.1691 9.62672C13.0992 9.38402 13.0506 9.14325 13.0506 8.90055C13.0506 8.6326 13.1691 8.2035 13.3457 7.854L15.8175 3.78431C16 3.41928 16.3689 3.17269 16.8077 3.15522C17.4232 3.12803 17.9494 3.55131 17.9766 4.20565C17.9785 4.33574 17.9474 4.62116 17.8834 4.74931ZM10.0505 12.1241V4.2915C10.0505 2.76342 12.2795 2.75177 12.3048 4.2915V12.2095C12.3048 14.0211 10.9515 15.2191 9.29329 15.2191C7.63707 15.2191 6.27986 13.992 6.27986 12.2095V4.2915C6.27986 2.76342 8.53411 2.76342 8.53411 4.2915V12.1241C8.53411 13.1745 10.0505 13.2386 10.0505 12.1241Z" fill="#4B4B4B"/>
    </g>
    <defs>
    <clipPath id="clip0_151_1379">
    <rect width="100" height="20.1504" fill="white" transform="translate(0 0.924805)"/>
    </clipPath>
    </defs>
    </svg>
    