<svg width="60" height="30" viewBox="0 0 60 30" fill="none" xmlns="http://www.w3.org/2000/svg">
    <g clip-path="url(#clip0_149_1155)">
    <path fill-rule="evenodd" clip-rule="evenodd" d="M0.0599365 0.0599365H59.9399V29.9399H0.0599365V0.0599365ZM52.4817 17.8722C52.8466 17.8358 52.8869 17.5557 52.9004 17.4492V12.5006C52.8869 12.3939 52.8482 12.167 52.4831 12.1306H49.26C48.895 12.167 48.8444 12.3939 48.8309 12.5006V17.4492C48.8445 17.5557 48.9112 17.8358 49.2762 17.8722H52.4817ZM47.721 10.2661H54.0103C54.9553 10.3423 55.7534 10.8216 55.8601 11.8938V18.0204C55.7534 19.0926 54.9553 19.6606 54.0103 19.7368H47.721C46.776 19.6606 45.9777 19.0926 45.8712 18.0204V11.8938C45.9777 10.8216 46.776 10.3423 47.721 10.2661ZM25.7453 12.1306H28.5571V19.7368H31.5168V12.1306H34.3285V10.2661H25.7453V12.1306ZM24.8575 10.2661V12.1306L20.1299 12.1306V13.9841H24.8575V15.8439H20.1299L20.1294 17.8724H24.9626L24.9598 19.7348L17.1623 19.7368V10.2661H24.8575ZM41.6048 13.9833C41.9727 13.9833 42.0237 13.8035 42.0237 13.5985V12.5682V12.5643C42.0237 12.3935 42.0237 12.1243 41.6093 12.1243H38.1761V13.9833H41.6048ZM44.6873 14.3207C44.6873 15.3528 43.7668 15.9812 42.8435 16.0551H42.3905L44.6814 19.7368H41.2777L39.354 16.0551H38.1761V19.7368H35.2166L35.2163 10.263H42.8302C43.7795 10.339 44.5802 10.9153 44.6873 11.9826V14.3207ZM13.0188 13.788L11.0359 19.7368H9.09718L7.09957 13.788V19.7368H4.13989V10.2661H8.13535L10.0592 15.0016L11.983 10.2661H15.9785V19.7368H13.0188V13.788Z" fill="#4B4B4B"/>
    </g>
    <defs>
    <clipPath id="clip0_149_1155">
    <rect width="60" height="30" fill="white"/>
    </clipPath>
    </defs>
    </svg>
    