<svg width="44" height="30" viewBox="0 0 44 30" fill="none" xmlns="http://www.w3.org/2000/svg">
    <g clip-path="url(#clip0_152_1415)">
    <path d="M34.3566 0.00390625H9.64146C4.58022 0.00390625 0.459839 3.82874 0.459839 8.52822V29.9961H34.3566C39.4159 29.9961 43.5401 26.1751 43.5401 21.4675V8.52822C43.5401 3.82874 39.4159 0.00390625 34.3566 0.00390625ZM15.5884 20.1961V15.1248C15.5884 13.8639 15.0683 13.233 14.0267 13.233C13.699 13.233 13.3924 13.3385 13.1055 13.5516C12.82 13.7631 12.6262 14.004 12.5211 14.2727V20.1961H11.1725V14.5044C11.1725 14.1115 11.0304 13.8001 10.7488 13.5722C10.4643 13.3457 10.0891 13.233 9.62419 13.233C9.35311 13.233 9.06332 13.3443 8.7577 13.5631C8.45064 13.7814 8.23329 14.0246 8.10327 14.288V20.1961H6.75652V12.1899H7.63932L8.08792 13.1145C8.60897 12.3958 9.26243 12.0374 10.0454 12.0374C11.1374 12.0374 11.9022 12.3929 12.3374 13.102C12.4899 12.8002 12.7711 12.5455 13.1861 12.3425C13.5982 12.1381 14.0228 12.0374 14.4604 12.0374C15.2477 12.0374 15.858 12.2821 16.2908 12.7738C16.7216 13.2632 16.9385 13.9546 16.9385 14.8398V20.1961H15.5884ZM35.1305 17.9334V8.91349H36.4791V17.6921C36.4791 18.1215 36.5957 18.4597 36.8318 18.7054C37.0649 18.953 37.372 19.0753 37.7505 19.0753V20.3487C36.0032 20.3487 35.1305 19.5421 35.1305 17.9334ZM30.9458 13.233C30.3432 13.233 29.838 13.4388 29.4292 13.8481C29.0406 14.2376 28.8203 14.7208 28.7666 15.2994H32.9873C32.9873 14.727 32.8169 14.2463 32.4758 13.862C32.1011 13.4426 31.5911 13.233 30.9458 13.233ZM34.2309 16.3338H28.7359C28.7359 17.2699 28.9787 17.9896 29.4685 18.4933C29.9013 18.9319 30.4569 19.1511 31.1343 19.1511C31.9092 19.1511 32.5545 18.9165 33.0707 18.4444L33.6417 19.4668C33.433 19.6856 33.112 19.8741 32.6792 20.0339C32.1385 20.2431 31.5359 20.3487 30.8705 20.3487C29.9118 20.3487 29.0977 20.0061 28.4288 19.3219C27.6832 18.5696 27.3105 17.5563 27.3105 16.2849C27.3105 14.964 27.6924 13.9037 28.4557 13.1073C29.1394 12.3929 29.9488 12.0374 30.8839 12.0374C31.9711 12.0374 32.8232 12.3593 33.4402 13.0017C34.0385 13.6211 34.3374 14.4425 34.3374 15.4654C34.3374 15.7787 34.3009 16.0685 34.2309 16.3338ZM23.239 13.3102H22.3576V12.1899H23.239V10.5145L24.5877 9.96997V12.1899H26.6771V13.3102H24.5877V17.2896C24.5877 17.9617 24.6947 18.441 24.9106 18.7251C25.125 19.0091 25.4729 19.1511 25.9493 19.1511C26.2952 19.1511 26.6522 19.0604 27.0216 18.8796L27.2193 20.1241C26.6623 20.2733 26.0486 20.3487 25.3832 20.3487C24.7825 20.3487 24.2734 20.1136 23.8599 19.6405C23.4458 19.1698 23.239 18.5759 23.239 17.8567V13.3102ZM20.0931 16.9408C20.3872 16.9408 20.6381 17.0516 20.8463 17.2699C21.0555 17.4891 21.1596 17.7545 21.1596 18.063C21.1596 18.3729 21.0555 18.6382 20.8463 18.8608C20.6381 19.0825 20.3872 19.1943 20.0931 19.1943C19.7994 19.1943 19.5476 19.0825 19.3393 18.8608C19.1321 18.6382 19.027 18.3729 19.027 18.063C19.027 17.7545 19.1321 17.4891 19.3393 17.2699C19.5476 17.0516 19.7994 16.9408 20.0931 16.9408ZM20.0931 13.6854C20.3872 13.6854 20.6381 13.7967 20.8463 14.015C21.0555 14.2357 21.1596 14.4991 21.1596 14.8081C21.1596 15.1185 21.0555 15.3829 20.8463 15.6055C20.6381 15.8272 20.3872 15.9366 20.0931 15.9366C19.7994 15.9366 19.5476 15.8272 19.3393 15.6055C19.1321 15.3829 19.027 15.1185 19.027 14.8081C19.027 14.4991 19.1321 14.2357 19.3393 14.015C19.5476 13.7967 19.7994 13.6854 20.0931 13.6854Z" fill="#4B4B4B"/>
    </g>
    <defs>
    <clipPath id="clip0_152_1415">
    <rect width="43.0803" height="30" fill="white" transform="translate(0.459839)"/>
    </clipPath>
    </defs>
    </svg>
    