<svg width="74" height="20" viewBox="0 0 74 20" fill="none" xmlns="http://www.w3.org/2000/svg">
    <g clip-path="url(#clip0_149_1245)">
    <path d="M13.2767 0.956715C13.0977 1.17363 12.9965 1.41585 12.9965 1.83703V13.4178H12.9323C12.9323 13.4178 6.59372 2.11723 6.28731 1.59481C6.0704 1.22424 5.82817 0.969355 5.50912 0.777743C5.19006 0.599689 4.85835 0.48491 4.22115 0.48491H2.12969C1.64433 0.48491 1.33884 0.650304 1.12192 0.906088C0.942957 1.1221 0.84082 1.36524 0.84082 1.78552V18.2009C0.84082 18.6221 0.942957 18.8643 1.12192 19.0813C1.33884 19.3361 1.64433 19.5015 2.12969 19.5015H3.31551C3.79997 19.5015 4.10637 19.3361 4.32329 19.0813C4.50134 18.8643 4.60348 18.6221 4.60348 18.2009V6.33902H4.66764C4.66764 6.33902 11.2484 17.9966 11.5169 18.4305C11.8866 19.0424 12.5111 19.5015 13.4041 19.5015H15.4323C15.9167 19.5015 16.2231 19.3361 16.4401 19.0813C16.6181 18.8643 16.7203 18.6221 16.7203 18.2009V3.39254H43.3643C43.6328 3.39254 43.8361 3.31662 43.9898 3.18917C44.1552 3.03552 44.232 2.83125 44.232 2.52576V1.40321C44.232 1.09681 44.1552 0.892531 43.9898 0.73978C43.8361 0.612339 43.6328 0.535523 43.3643 0.535523H14.2844C13.8 0.535523 13.4936 0.701834 13.2767 0.956715ZM24.909 5.34391C20.4829 5.34391 17.9956 8.80107 17.9956 12.4489C17.9956 16.339 20.6619 19.7573 24.9343 19.7573C27.0646 19.7573 29.1561 18.9538 30.3546 17.5375C30.8779 16.9256 31.2991 16.0706 31.2991 15.5482C31.2991 15.3692 31.2602 15.2165 31.159 15.1017C31.0568 14.9742 30.9032 14.8974 30.6357 14.8974H28.5821C28.1736 14.8974 27.8934 15.0502 27.6892 15.3566C27.0899 16.2369 26.2222 16.696 24.9469 16.696C23.0335 16.696 21.7971 15.2418 21.7076 13.6474H30.585C30.98 13.6474 31.2602 13.5579 31.4518 13.3672C31.6687 13.163 31.7709 12.8692 31.7709 12.3206C31.7709 10.6503 31.2475 8.91586 30.1512 7.58903C29.0286 6.24955 27.3195 5.34391 24.909 5.34391ZM38.5939 5.34391C35.0997 5.34391 32.8039 7.00243 32.8039 9.65518C32.8039 10.5988 33.1483 11.3643 33.7096 11.9636C34.3603 12.6659 35.2913 13.1503 36.6434 13.4947L39.5637 14.234C40.3672 14.4383 41.0812 14.6805 41.0812 15.3819C41.0812 16.4665 39.9334 16.8361 38.7096 16.8361C38.1094 16.8361 37.4849 16.7213 36.9742 16.4665C36.6172 16.2875 36.3117 16.0326 36.0948 15.6883C35.9032 15.3945 35.8399 15.1776 35.5462 15.0122C35.3672 14.9101 35.1503 14.8974 34.8575 14.8974H33.2757C32.9314 14.8974 32.766 14.9996 32.6512 15.1396C32.5364 15.2797 32.4975 15.484 32.4975 15.6883C32.4975 16.198 32.6765 16.8361 33.0977 17.4101C34.0666 18.7107 36.0948 19.7573 38.6834 19.7573C41.2349 19.7573 44.768 18.698 44.768 15.2797C44.768 14.4003 44.5122 13.6474 44.0404 13.0355C43.4411 12.2573 42.587 11.7213 41.1328 11.3517L38.2378 10.6114C37.0384 10.3059 36.4771 10.089 36.4771 9.34879C36.4771 8.63477 37.1152 8.06082 38.5939 8.06082C39.4616 8.06082 40.2524 8.25244 40.7631 8.78841C41.1834 9.23491 41.1075 9.46448 41.4392 9.64253C41.6425 9.74466 41.8721 9.74467 42.23 9.74467H43.6707C43.9003 9.74467 44.0666 9.70671 44.1931 9.5657C44.2962 9.45092 44.3594 9.27286 44.3594 8.97912C44.3594 8.31571 43.9256 7.46159 43.161 6.81083C42.1405 5.93049 40.5335 5.34391 38.5939 5.34391ZM46.5404 5.82927H45.8264C45.5588 5.82927 45.3546 5.9052 45.2018 6.03264C45.0355 6.18628 44.9587 6.39054 44.9587 6.69603V7.57637C44.9587 7.88277 45.0355 8.08614 45.2018 8.23979C45.3546 8.36724 45.5588 8.44405 45.8264 8.44405H46.5404V14.8079C46.5404 16.4403 46.9869 17.4607 47.8157 18.2777C48.5812 19.0297 49.5764 19.5015 51.3108 19.5015H52.3945C52.6629 19.5015 52.8663 19.4256 53.02 19.2982C53.1854 19.1445 53.2875 18.9403 53.2875 18.6348V17.5249C53.2875 17.2185 53.1854 17.0151 53.02 16.8614C52.8663 16.734 52.6629 16.6572 52.3945 16.6572H52.2418C51.553 16.6572 51.0812 16.4791 50.7622 16.1727C50.3799 15.8157 50.1883 15.2671 50.1883 14.553V8.44405H52.5102C52.7777 8.44405 52.982 8.36724 53.1347 8.23979C53.3001 8.08614 53.377 7.88277 53.377 7.57637V6.69603C53.377 6.39054 53.3001 6.18628 53.1347 6.03264C52.982 5.9052 52.7777 5.82927 52.5102 5.82927H50.2009V1.67074C50.2009 1.33904 50.0988 1.0968 49.946 0.906088C49.7544 0.676519 49.4869 0.535523 49.0919 0.535523H47.6503C47.2544 0.535523 46.9869 0.676519 46.7953 0.906088C46.6425 1.0968 46.5404 1.33904 46.5404 1.67074V5.82927ZM54.3468 18.3663C54.3468 18.698 54.448 18.9403 54.6017 19.1319C54.7924 19.3614 55.0608 19.5015 55.4558 19.5015H56.9733C57.3692 19.5015 57.6367 19.3614 57.8283 19.1319C57.9811 18.9403 58.0832 18.698 58.0832 18.3663V1.67164C58.0832 1.33994 57.9811 1.09771 57.8283 0.906088C57.6367 0.676519 57.3692 0.535523 56.9733 0.535523H55.4558C55.0608 0.535523 54.7924 0.676519 54.6017 0.906088C54.448 1.09771 54.3468 1.33994 54.3468 1.67164V18.3663ZM21.7329 10.9305C21.8983 9.36143 23.0977 8.18826 24.9216 8.18826C26.7076 8.18826 27.944 9.36143 28.1103 10.9305H21.7329ZM71.8965 3.39254C72.164 3.39254 72.3683 3.31662 72.521 3.18917C72.6873 3.03552 72.7642 2.83125 72.7642 2.52576V1.33903C72.7642 0.879878 72.6747 0.650313 72.521 0.48491C72.3809 0.331261 72.1514 0.242676 71.8965 0.242676C71.6922 0.242676 71.4889 0.268005 71.1445 0.305952L60.9655 1.31373C60.6727 1.33905 60.5326 1.42851 60.4305 1.5433C60.3157 1.67074 60.2642 1.83703 60.2642 2.0666V2.72913C60.2642 2.98491 60.3157 3.09969 60.4052 3.20182C60.5191 3.32926 60.6854 3.39254 60.9149 3.39254H71.8965ZM66.2719 5.34391C61.8459 5.34391 59.3585 8.80107 59.3585 12.4489C59.3585 16.339 62.0248 19.7573 66.2973 19.7573C68.4276 19.7573 70.5191 18.9538 71.7175 17.5375C72.2409 16.9256 72.662 16.0706 72.662 15.5482C72.662 15.3692 72.6232 15.2165 72.521 15.1017C72.4198 14.9742 72.2662 14.8974 71.9986 14.8974H69.9451C69.5366 14.8974 69.2564 15.0502 69.0521 15.3566C68.4529 16.2369 67.5852 16.696 66.3099 16.696C64.3965 16.696 63.1592 15.2418 63.0706 13.6474H71.9733C72.3683 13.6474 72.6494 13.5579 72.8401 13.3672C73.057 13.163 73.1591 12.8692 73.1591 12.3206C73.1591 10.6503 72.6358 8.91586 71.5395 7.58903C70.4169 6.24955 68.6825 5.34391 66.2719 5.34391ZM63.0959 10.9305C63.2622 9.36143 64.4607 8.18826 66.2846 8.18826C68.0706 8.18826 69.307 9.36143 69.4733 10.9305H63.0959Z" fill="#4B4B4B"/>
    </g>
    <defs>
    <clipPath id="clip0_149_1245">
    <rect width="72.8037" height="20" fill="white" transform="translate(0.598145)"/>
    </clipPath>
    </defs>
    </svg>
    