<svg width="88" height="24" viewBox="0 0 88 24" fill="none" xmlns="http://www.w3.org/2000/svg">
    <path d="M36.4719 13.5596C36.4719 12.724 35.7922 12.0463 34.959 12.0463C34.1234 12.0463 33.447 12.724 33.447 13.5596V17.8477C33.447 17.8932 33.455 17.9311 33.4615 17.9742L33.4536 17.9775C33.4835 18.4632 33.38 18.7339 33.1543 19.0595C32.9271 19.3747 32.5365 19.6922 32.0803 19.9428C31.6269 20.1981 31.128 20.3859 30.7547 20.4983C30.5716 20.5574 30.4161 20.5972 30.3125 20.6187C30.3065 20.6239 30.3037 20.6239 30.2962 20.6239H7.21814C6.40315 20.6187 5.93195 20.4281 5.5741 20.1864C5.21999 19.9433 4.96145 19.6098 4.768 19.2182C4.57503 18.8276 4.46168 18.3995 4.40453 18.081C4.37737 17.9185 4.36284 17.7887 4.35348 17.7049C4.35348 17.6651 4.35066 17.6332 4.34973 17.6168V17.6159V6.56891C4.34973 6.54924 4.34598 6.53894 4.34364 6.52395H4.34973C4.34036 5.92863 4.48088 5.56562 4.71648 5.21621C4.95348 4.87522 5.32538 4.56983 5.74319 4.32439C6.16239 4.08317 6.61767 3.90893 6.95725 3.81104C7.12587 3.75764 7.26498 3.72111 7.35772 3.7019C7.36054 3.69956 7.36522 3.69956 7.36897 3.69956H30.1617C31.7908 3.72111 32.4901 4.21104 32.9463 4.68693L18.7204 10.3582L12.34 7.39796V7.40452C12.147 7.31131 11.9348 7.25651 11.7081 7.25651C10.8706 7.25651 10.1962 7.93708 10.1962 8.77315C10.1962 9.37831 10.554 9.89588 11.0725 10.1394V10.1432L18.0379 13.3741L18.0393 13.3713C18.2365 13.4603 18.4473 13.5147 18.6731 13.5147C18.8712 13.5147 19.0604 13.4725 19.2347 13.4041V13.4065L19.2628 13.3976V13.3924L35.6058 6.88555L35.6039 6.88133C36.1632 6.65744 36.5609 6.11692 36.5609 5.48084C36.5609 5.38529 36.5482 5.2977 36.5328 5.20777H36.5351C36.5328 5.20262 36.5328 5.19419 36.53 5.17967C36.5285 5.17733 36.5285 5.17265 36.5285 5.16515C36.4719 4.9155 36.2456 3.91877 35.3735 2.86489C34.4592 1.73045 32.6924 0.650345 30.1617 0.6747H7.21814C7.13337 0.6747 7.05374 0.688753 6.9699 0.699526V0.696247C6.96287 0.697653 6.94273 0.699526 6.92165 0.705147C6.91744 0.705147 6.91229 0.707958 6.90714 0.710768C6.62423 0.764633 5.47902 0.991802 4.23029 1.70375C3.54316 2.10657 2.81201 2.66442 2.23682 3.48551C1.6696 4.28786 1.2977 5.35579 1.32768 6.5558C1.32768 6.55955 1.32581 6.56376 1.32581 6.56891V17.6384C1.32581 17.6473 1.32768 17.658 1.32768 17.666H1.32581C1.33517 17.7836 1.34033 19.0843 2.05884 20.5602C2.42043 21.2913 2.98672 22.0806 3.86073 22.6792C4.72819 23.2834 5.88323 23.6544 7.21814 23.6506H30.4582C30.5524 23.6506 30.6474 23.6337 30.7369 23.622C30.7411 23.622 30.7482 23.6178 30.7547 23.6178L30.7749 23.6122C31.0044 23.5654 32.2353 23.3176 33.5543 22.5836C34.2625 22.1874 35.0082 21.6454 35.5993 20.8389C36.1721 20.0684 36.5473 19.0056 36.4719 17.8435V13.5596Z" fill="#4B4B4B"/>
    <path d="M48.0898 0.727221C49.0158 0.727221 49.8406 0.901463 50.5699 1.25182C51.3001 1.60405 51.8107 2.0626 52.1011 2.63825C52.3278 3.08041 52.4453 3.55629 52.4453 4.0645C52.4453 4.85748 52.1952 5.55116 51.7029 6.14555C51.2102 6.74743 50.5839 7.16711 49.827 7.40552C49.3338 7.57039 48.8148 7.65517 48.2701 7.65517L47.5699 7.59709C47.4434 7.57039 47.338 7.54697 47.2579 7.52964C47.1769 7.51137 47.0504 7.46219 46.8846 7.38631C47.5591 7.32167 48.1553 7.1568 48.6757 6.88935C49.2814 6.55726 49.7165 6.15023 49.9858 5.66451C50.19 5.29776 50.2884 4.88792 50.2884 4.44108C50.2884 3.6495 50.0378 3.05933 49.5324 2.67057C49.0336 2.28087 48.3783 2.08649 47.5774 2.08649C47.1343 2.08649 46.6921 2.12724 46.2443 2.20171V10.813V11.5564L46.3408 12.2051C46.4682 12.6356 46.7619 12.9751 47.2275 13.2168L43.4504 13.2749C43.7052 13.11 43.8869 12.9456 43.9975 12.7808C44.1094 12.6135 44.1942 12.3896 44.2598 12.1133C44.2836 11.9231 44.2996 11.6707 44.2996 11.3475C44.2996 11.0323 44.3028 10.7821 44.3169 10.6018V3.41484V2.31038C44.3169 2.08087 44.2935 1.88649 44.2495 1.73051C44.2012 1.56985 44.1239 1.40732 44.0195 1.24339C43.8621 1.01434 43.6766 0.86118 43.4668 0.78296L48.0898 0.727221Z" fill="#4B4B4B"/>
    <path d="M57.7562 13.5391C56.7904 13.5391 55.899 13.2894 55.0793 12.7859C54.2601 12.2852 53.6737 11.6346 53.3177 10.8336C53.0653 10.2758 52.9365 9.65799 52.9365 8.98351C52.9365 8.44907 53.0198 7.95071 53.1847 7.48185C53.3501 7.01065 53.5594 6.59706 53.8124 6.24156C54.3594 5.49447 55.1009 4.95395 56.0409 4.62046C56.6775 4.39235 57.3211 4.27619 57.9857 4.27619C58.6073 4.27619 59.1843 4.37174 59.7187 4.55254C60.249 4.74037 60.7337 5.02234 61.1665 5.40501C61.663 5.83734 62.0434 6.35022 62.316 6.95632C62.5895 7.56429 62.7272 8.17928 62.7272 8.81442C62.7272 9.81771 62.4387 10.7114 61.8719 11.4992C61.3 12.2885 60.5632 12.8562 59.6593 13.1962C59.026 13.4248 58.3923 13.5391 57.7562 13.5391ZM57.8517 12.2899C58.2845 12.2899 58.6822 12.2145 59.0518 12.0632C59.4176 11.888 59.7267 11.6594 59.9801 11.392C60.5272 10.8079 60.8003 10.0814 60.8003 9.21489C60.8003 8.51418 60.6588 7.85047 60.3806 7.22939C60.0513 6.59238 59.6269 6.13383 59.1047 5.84998C58.7131 5.63359 58.27 5.52445 57.7754 5.52445C57.3688 5.52445 56.9726 5.61298 56.5871 5.78441C56.2007 5.95677 55.8929 6.17832 55.663 6.44671C55.1309 7.04156 54.8676 7.77553 54.8676 8.64346C54.8676 9.32028 55.0133 9.96759 55.3126 10.5906C55.6091 11.2135 56.0269 11.6744 56.559 11.9667C56.9506 12.1835 57.3843 12.2899 57.8517 12.2899Z" fill="#4B4B4B"/>
    <path d="M69.7369 4.52456V6.13161C69.0039 5.72739 68.2287 5.52457 67.4091 5.52457H66.8779L66.2896 5.659C65.861 5.82762 65.646 6.07446 65.646 6.40936C65.646 6.64918 65.7678 6.87541 66.0053 7.0815C66.2095 7.24637 66.5186 7.40516 66.935 7.55832C67.3697 7.68619 67.7777 7.81828 68.1707 7.9616C68.5613 8.09884 68.9664 8.27027 69.3828 8.45856C69.9529 8.77941 70.3444 9.14944 70.5599 9.57005C70.7126 9.87966 70.7875 10.2014 70.7875 10.5495C70.7875 10.9968 70.677 11.4057 70.4555 11.7729C70.2339 12.1462 69.9379 12.4595 69.5707 12.7144C68.7838 13.2652 67.7716 13.5392 66.5294 13.5392C65.6329 13.5392 64.8086 13.3851 64.0605 13.0788L63.3776 11.1972C63.9481 11.5621 64.52 11.8375 65.0915 12.0225C65.3945 12.1228 65.6887 12.194 65.9758 12.2338C66.2601 12.2736 66.5861 12.29 66.9542 12.29L67.603 12.2338L68.2882 12.0455C68.7969 11.7996 69.0479 11.4722 69.0479 11.0534C69.0479 10.7588 68.9374 10.5148 68.7159 10.3176C68.4943 10.1209 68.1739 9.93305 67.7603 9.7546C66.7842 9.41127 66.2802 9.23609 66.2423 9.2197C65.8221 9.0314 65.5116 8.89838 65.3144 8.8225C64.742 8.52461 64.3491 8.17894 64.1359 7.77191C63.9842 7.47588 63.9097 7.16675 63.9097 6.83466C63.9097 6.31756 64.046 5.86697 64.3256 5.50209C64.6034 5.13113 64.9758 4.85103 65.446 4.6618C65.6858 4.54423 66.009 4.4543 66.4119 4.38592C66.8189 4.31472 67.2217 4.27585 67.6278 4.27585L68.6938 4.33627L69.7369 4.52456ZM67.195 3.29551L64.0605 0.349339C64.3144 0.349339 64.5861 0.378848 64.876 0.445827C65.1683 0.510465 65.446 0.593839 65.7125 0.699695C66.2072 0.895949 66.699 1.16902 67.195 1.51985C67.7271 1.17933 68.2119 0.90719 68.6582 0.699695C69.2255 0.464094 69.7576 0.349339 70.2526 0.349339L67.195 3.29551Z" fill="#4B4B4B"/>
    <path d="M74.5167 5.75643V9.56443V10.1574L74.5734 10.8998L74.7458 11.3972C74.8835 11.6375 75.0319 11.8164 75.1832 11.9298C75.4526 12.1462 75.8366 12.2553 76.3313 12.2553L76.713 12.1982L77.0947 12.0628L76.0868 13.4441C75.8933 13.505 75.6896 13.5392 75.4732 13.5392C74.9031 13.5392 74.4287 13.4263 74.0455 13.2038C73.6647 12.9809 73.3785 12.6844 73.1879 12.3162C73.0741 12.1129 72.9781 11.8581 72.9055 11.5626C72.8254 11.2605 72.7879 10.9574 72.7879 10.6502L72.7692 9.73446L72.7879 5.75643H71.4928V5.07117C72.1275 4.95408 72.6324 4.71098 72.9991 4.32924C73.3153 3.97467 73.5322 3.49926 73.6455 2.90534C73.7233 2.49971 73.764 2.088 73.764 1.67067H74.5167V4.50489H76.3078H76.6891L77.0306 4.39669L77.0872 6.13161C76.8858 5.94566 76.6877 5.83746 76.4957 5.80373C76.3078 5.7672 76.1378 5.75643 75.9912 5.75643H75.661H74.5167Z" fill="#4B4B4B"/>
    <path d="M86.5993 12.2899L85.766 13.5391L84.855 13.4042C84.5257 13.3255 84.2531 13.2262 84.0344 13.1002C83.5168 12.7676 83.2573 12.2519 83.2573 11.5522V8.52964C82.9421 8.68467 82.6409 8.79802 82.3617 8.87625L81.4254 9.12824L80.7364 9.29826C80.6474 9.3362 80.5453 9.3807 80.4236 9.42332C80.3036 9.46735 80.1969 9.51607 80.1069 9.56618C79.6868 9.83457 79.4802 10.2238 79.4802 10.7217C79.4802 11.2664 79.6994 11.6796 80.1463 11.9484C80.5252 12.1765 80.9964 12.2899 81.5547 12.2899L82.2376 12.2145L82.9238 12.0266L81.7983 13.444C81.6475 13.4852 81.4905 13.5081 81.3313 13.5213C81.1725 13.5316 81.0006 13.5391 80.8095 13.5391C80.1093 13.5391 79.4802 13.3817 78.9228 13.0618C78.3889 12.733 78.0076 12.325 77.7823 11.8412C77.6282 11.4725 77.5528 11.1016 77.5528 10.732C77.5528 10.1114 77.7355 9.60459 78.105 9.2074C78.3973 8.89264 78.8367 8.6383 79.4226 8.44767L82.4564 7.72213C82.7116 7.63361 82.8957 7.51745 83.0133 7.38021C83.1767 7.21253 83.2573 7.00128 83.2573 6.74742C83.2573 6.4542 83.1262 6.19518 82.8568 5.96333C82.6559 5.78815 82.3678 5.65935 81.9997 5.58206L81.4254 5.52445C80.9926 5.52445 80.5392 5.61063 80.0629 5.77317C79.5833 5.93804 79.3327 6.02797 79.305 6.03921C79.0929 6.15022 78.9331 6.23547 78.8306 6.28418L80.1069 4.39235L81.35 4.27619L82.4564 4.35676C82.8156 4.40687 83.1308 4.48228 83.4123 4.5858C84.0344 4.8228 84.469 5.2125 84.7112 5.74928C84.9018 6.15537 84.9974 6.63079 84.9974 7.17927V10.0393V11.0126C85.0334 11.2931 85.0967 11.5091 85.1721 11.6641C85.4011 12.0051 85.877 12.2145 86.5993 12.2899Z" fill="#4B4B4B"/>
    <path d="M48.1354 16.7375V17.8902C47.8417 17.7094 47.548 17.5693 47.2557 17.4691C46.9199 17.3693 46.5977 17.3192 46.2824 17.3192C45.7686 17.3192 45.318 17.4513 44.9344 17.7136C44.5517 17.9801 44.2745 18.3352 44.1096 18.7839C43.9976 19.0757 43.94 19.4096 43.94 19.7844C43.94 20.3361 44.0773 20.8476 44.3508 21.3183C44.6239 21.7942 44.9855 22.1357 45.4323 22.3427C45.7452 22.4954 46.0955 22.5722 46.4843 22.5722C46.8436 22.5722 47.2042 22.5165 47.5644 22.3994C47.9265 22.2846 48.2745 22.1357 48.6145 21.9497L48.1354 23.1066C47.9176 23.2031 47.6768 23.2818 47.4234 23.3319C47.1621 23.3792 46.9002 23.4073 46.6262 23.4073C45.9663 23.4073 45.378 23.3043 44.8543 23.0945C44.3353 22.8865 43.9157 22.6013 43.5948 22.2425C43.3747 21.9891 43.1981 21.7019 43.0655 21.3792C42.8932 20.9684 42.8051 20.4841 42.8051 19.9333C42.8051 19.3853 42.9124 18.8752 43.125 18.405C43.3363 17.9291 43.6426 17.5323 44.0342 17.2218C44.2951 17.018 44.585 16.8607 44.9058 16.7375C45.3386 16.5712 45.8084 16.4855 46.3157 16.4855C46.5012 16.4855 46.6698 16.4963 46.8197 16.5117C46.97 16.5314 47.1101 16.5464 47.2337 16.5595L48.1354 16.7375Z" fill="#4B4B4B"/>
    <path d="M49.6468 18.6419L49.9761 18.6175C50.1058 18.588 50.1944 18.5501 50.2407 18.5131L50.2688 19.2761C50.377 19.047 50.5372 18.8634 50.7592 18.7191C50.9761 18.5824 51.2103 18.5131 51.4562 18.5131L51.8183 18.5397V19.4676C51.7166 19.3576 51.5635 19.3023 51.3569 19.3023C50.9761 19.3023 50.6979 19.4166 50.5255 19.64C50.355 19.8615 50.2688 20.2269 50.2688 20.7365V22.1407V22.4705V22.7613C50.3194 22.9562 50.444 23.1112 50.645 23.2232L48.985 23.2555C49.1424 23.1328 49.2454 23.0185 49.2932 22.9065C49.3405 22.7974 49.3611 22.6513 49.3611 22.4705V22.1407V19.7416V19.4147V19.1323C49.3072 18.9318 49.1939 18.7782 49.0107 18.6695L49.6468 18.6419Z" fill="#4B4B4B"/>
    <path d="M53.1846 18.6419L53.5289 18.6175C53.5668 18.6138 53.6188 18.6025 53.6736 18.588C53.7308 18.5693 53.7935 18.5397 53.8596 18.5131L53.8774 19.2859C54.0746 19.0306 54.2741 18.8447 54.4765 18.7191C54.7172 18.5824 54.995 18.5131 55.306 18.5131C55.6081 18.5131 55.9008 18.5693 56.1894 18.691C56.4737 18.8105 56.6915 18.9828 56.8418 19.2006C56.9079 19.2971 56.9655 19.4147 57.0067 19.5562C57.0517 19.7051 57.0723 19.825 57.0723 19.9229V20.3271V20.6943V22.1496V22.4822V22.7613C57.1224 22.9562 57.246 23.1112 57.4498 23.2232L55.7786 23.2555C55.942 23.1328 56.0484 23.0185 56.0961 22.9065C56.1397 22.7974 56.1659 22.6513 56.1659 22.4705V22.1496V20.7983C56.1659 20.2423 56.0793 19.8358 55.9041 19.581C55.7111 19.3065 55.3903 19.1721 54.9462 19.1721C54.6324 19.1721 54.3823 19.2447 54.2015 19.3913C54.0516 19.5201 53.9626 19.6784 53.9294 19.8583C53.8957 20.0419 53.8774 20.2124 53.8774 20.3758V22.1496V22.4822V22.7613C53.9294 22.9562 54.0516 23.1112 54.2572 23.2232L52.5912 23.2555C52.7518 23.1328 52.8549 23.0185 52.9013 22.9065C52.9476 22.7974 52.9734 22.6513 52.9734 22.4705V22.1407V19.7538V19.4241L52.9434 19.1323C52.8886 18.9318 52.7725 18.7782 52.5912 18.6695L53.1846 18.6419Z" fill="#4B4B4B"/>
    <path d="M62.7274 20.7982H59.0416C59.0416 21.2362 59.1536 21.61 59.3728 21.9252C59.5934 22.2399 59.8908 22.4643 60.259 22.595C60.4997 22.6793 60.7625 22.7224 61.0501 22.7224C61.3377 22.7224 61.629 22.6793 61.9213 22.595C62.2187 22.4952 62.4787 22.3613 62.6941 22.1945L62.2262 23.1355C62.0112 23.2231 61.785 23.2835 61.5452 23.3257C61.3021 23.3627 61.0683 23.3856 60.8421 23.3856C60.2201 23.3856 59.6688 23.2503 59.1929 22.9762C58.7133 22.7083 58.3723 22.3458 58.1751 21.8901C58.0341 21.5772 57.9667 21.2516 57.9667 20.9181C57.9667 20.4006 58.0955 19.9481 58.3671 19.5495C58.6332 19.1504 58.9929 18.8652 59.4482 18.691C59.7681 18.5692 60.1082 18.5134 60.4702 18.5134C60.9644 18.5134 61.4 18.6385 61.7808 18.8886C62.1569 19.1392 62.4257 19.4755 62.5859 19.89C62.6379 20.0231 62.6759 20.1673 62.6941 20.3163C62.7185 20.4676 62.7274 20.6282 62.7274 20.7982ZM61.6777 20.2109C61.6145 19.854 61.4749 19.5917 61.2595 19.4245C61.0393 19.254 60.7498 19.172 60.3836 19.172C60.0557 19.172 59.7723 19.2661 59.5372 19.4511C59.2997 19.6404 59.1512 19.8966 59.0917 20.2109H61.6777Z" fill="#4B4B4B"/>
    <path d="M71.6569 16.6552V17.8079C71.5464 17.7137 71.4494 17.6388 71.3618 17.5802C71.2747 17.5282 71.1674 17.4692 71.0391 17.4163C70.8321 17.3222 70.5918 17.2631 70.3192 17.2383L69.833 17.2074C69.2466 17.2074 68.7224 17.3474 68.269 17.6224C67.8114 17.902 67.4873 18.2763 67.2835 18.7503C67.143 19.0931 67.0714 19.4566 67.0714 19.8463C67.0714 20.007 67.0812 20.1484 67.1051 20.2716C67.1215 20.3971 67.1561 20.5428 67.2035 20.7081C67.2887 20.9625 67.4124 21.2121 67.5632 21.4519C67.8798 21.9142 68.3014 22.2505 68.8325 22.4679C69.188 22.614 69.5576 22.6862 69.9459 22.6862C70.1815 22.6862 70.4161 22.674 70.6508 22.6351C70.885 22.6065 71.1145 22.5564 71.3464 22.4955V21.0566V20.7194L71.2897 20.3906C71.2227 20.162 71.0822 20.0084 70.8719 19.9287L72.4077 19.9002C72.3806 19.9789 72.3642 20.0552 72.3642 20.1269V20.3573V22.6534V22.8852L72.4012 23.1068C71.9534 23.2033 71.5445 23.2819 71.1721 23.3321C70.7979 23.3789 70.4129 23.4075 70.01 23.4075C69.3257 23.4075 68.6976 23.304 68.1365 23.0946C67.5711 22.8866 67.1145 22.5929 66.7707 22.214C66.5369 21.9606 66.351 21.6838 66.2198 21.37C66.0306 20.9559 65.9407 20.4936 65.9407 19.9854C65.9407 19.3967 66.062 18.865 66.313 18.3882C66.565 17.9086 66.9215 17.5203 67.3824 17.2219C67.6854 17.0107 68.0236 16.8481 68.4049 16.7264C68.9267 16.5671 69.4845 16.4856 70.078 16.4856C70.5815 16.4856 71.1056 16.5465 71.6569 16.6552Z" fill="#4B4B4B"/>
    <path d="M75.2994 23.3857C74.7903 23.3857 74.3233 23.2555 73.8919 22.9867C73.4633 22.7225 73.1551 22.381 72.9668 21.9604C72.8338 21.6668 72.7692 21.3412 72.7692 20.9871C72.7692 20.7084 72.8118 20.441 72.8961 20.1979C72.9865 19.9478 73.0938 19.73 73.2277 19.5435C73.5134 19.1492 73.905 18.8653 74.3968 18.6911C74.7312 18.5693 75.0718 18.5131 75.4156 18.5131C75.7448 18.5131 76.0474 18.5618 76.3266 18.6559C76.609 18.7501 76.861 18.9004 77.0891 19.1009C77.3495 19.3309 77.5528 19.5998 77.6924 19.9215C77.8367 20.2396 77.9102 20.5609 77.9102 20.8977C77.9102 21.426 77.7603 21.8949 77.4573 22.3113C77.1613 22.7248 76.772 23.0265 76.2975 23.2031C75.9664 23.3253 75.6306 23.3857 75.2994 23.3857ZM75.3495 22.7225C75.5725 22.7225 75.7823 22.6846 75.9729 22.6063C76.1659 22.5113 76.3266 22.3951 76.4619 22.2504C76.7453 21.9445 76.8882 21.5623 76.8882 21.108C76.8882 20.7407 76.816 20.3927 76.6699 20.0621C76.4957 19.73 76.2741 19.4916 76.0062 19.3426C75.7987 19.226 75.565 19.1721 75.3083 19.1721C75.0971 19.1721 74.8896 19.2185 74.6868 19.307C74.4844 19.3965 74.3233 19.5108 74.2071 19.6536C73.928 19.967 73.7874 20.352 73.7874 20.8077C73.7874 21.1618 73.8671 21.5042 74.023 21.8302C74.1781 22.1595 74.3954 22.3993 74.6722 22.5562C74.8783 22.6663 75.1036 22.7225 75.3495 22.7225Z" fill="#4B4B4B"/>
    <path d="M79.1703 18.6419L79.5019 18.6175C79.6312 18.588 79.7201 18.5501 79.7656 18.5131L79.7951 19.2761C79.8995 19.047 80.063 18.8634 80.2794 18.7191C80.5 18.5824 80.7319 18.5131 80.9825 18.5131L81.3459 18.5397V19.4676C81.2415 19.3576 81.0897 19.3023 80.8808 19.3023C80.4967 19.3023 80.2237 19.4166 80.0494 19.64C79.8789 19.8615 79.7951 20.2269 79.7951 20.7365V22.1407V22.4705V22.7613C79.8415 22.9562 79.9689 23.1112 80.1726 23.2232L78.5084 23.2555C78.6691 23.1328 78.7698 23.0185 78.8176 22.9065C78.8616 22.7974 78.885 22.6513 78.885 22.4705V22.1407V19.7416V19.4147V19.1323C78.8335 18.9318 78.715 18.7782 78.5365 18.6695L79.1703 18.6419Z" fill="#4B4B4B"/>
    <path d="M86.6743 20.7982H82.9876C82.9876 21.2362 83.0991 21.61 83.3206 21.9252C83.5398 22.2399 83.8326 22.4643 84.2003 22.595C84.4466 22.6793 84.7089 22.7224 84.9975 22.7224C85.2837 22.7224 85.5741 22.6793 85.8691 22.595C86.1628 22.4952 86.4214 22.3613 86.6415 22.1945L86.1703 23.1355C85.9581 23.2231 85.7305 23.2835 85.4898 23.3257C85.2481 23.3627 85.0157 23.3856 84.7862 23.3856C84.168 23.3856 83.6162 23.2503 83.138 22.9762C82.6593 22.7083 82.3206 22.3458 82.123 21.8901C81.9792 21.5772 81.9099 21.2516 81.9099 20.9181C81.9099 20.4006 82.0424 19.9481 82.3113 19.5495C82.5801 19.1504 82.9422 18.8652 83.3956 18.691C83.715 18.5692 84.0546 18.5134 84.4176 18.5134C84.9113 18.5134 85.3478 18.6385 85.7272 18.8886C86.1024 19.1392 86.3717 19.4755 86.5324 19.89C86.5867 20.0231 86.6228 20.1673 86.6415 20.3163C86.6621 20.4676 86.6743 20.6282 86.6743 20.7982ZM85.6195 20.2109C85.5628 19.854 85.4228 19.5917 85.204 19.4245C84.9862 19.254 84.6949 19.172 84.3281 19.172C84.0031 19.172 83.7211 19.2661 83.4841 19.4511C83.2485 19.6404 83.0944 19.8966 83.0387 20.2109H85.6195Z" fill="#4B4B4B"/>
    </svg>
    