<svg width="100" height="16" viewBox="0 0 100 16" fill="none" xmlns="http://www.w3.org/2000/svg">
    <g clip-path="url(#clip0_149_1320)">
    <path fill-rule="evenodd" clip-rule="evenodd" d="M21.1111 0.939819C21.2037 0.939819 21.25 0.939819 21.3426 1.03241L21.574 1.2176C21.6666 1.31019 21.6203 1.35649 21.6203 1.44908L20.8796 2.65278L17.6852 3.53241H27.7315C27.8703 3.53241 27.9166 3.53241 27.9629 3.625L28.1944 3.85649C28.2407 3.90278 28.2407 3.94908 28.1944 4.04167L27.4537 5.24538L23.9815 6.1713H34.2592C34.3518 6.1713 34.3981 6.1713 34.4444 6.2176L34.6759 6.44908C34.7222 6.49538 34.7222 6.58797 34.7222 6.63426L34.1203 7.60649L23.6574 10.4769L4.30553 2.79167C3.70368 2.56019 3.74997 2.4676 3.88886 2.18982L4.53701 1.07871C4.6296 1.03241 4.6296 0.939819 4.81479 0.939819H21.1111Z" fill="#4B4B4B"/>
    <path fill-rule="evenodd" clip-rule="evenodd" d="M32.4074 9.31941C32.5 9.31941 32.5463 9.27312 32.6389 9.36571L32.9167 9.64349C33.0093 9.73608 33.0092 9.78238 32.963 9.87497L30.0926 14.6898H13.6574C13.5648 14.6898 13.5185 14.6898 13.4259 14.5972L13.1944 14.3657C13.1018 14.2731 13.1481 14.2268 13.2407 14.1342L14.4444 12.0972H7.08332C7.03703 12.0972 6.89814 12.0972 6.85184 12.0509L6.62036 11.8194C6.52777 11.7268 6.57407 11.6342 6.66666 11.4953L7.87036 9.5046H0.509251C0.416658 9.5046 0.370362 9.5046 0.277769 9.41201L0.0462877 9.18052C-0.0463049 9.08793 0.0462877 8.94904 0.13888 8.81015L3.10184 3.90275C3.14814 3.81015 3.28703 3.76386 3.37962 3.81015L23.5185 11.7268L32.4074 9.31941Z" fill="#4B4B4B"/>
    <path fill-rule="evenodd" clip-rule="evenodd" d="M50.0925 13.3009C49.8148 12.1435 50.1388 10.8009 51.1111 9.22686C52.0833 7.69908 53.3796 6.35649 55.0925 5.19908C56.8055 4.04167 58.6111 3.43982 60.5555 3.43982H60.6944C62.6388 3.43982 63.7037 4.04167 63.9814 5.19908C64.2592 6.35649 63.8888 7.69908 62.9629 9.22686C61.9907 10.7546 60.6944 12.0972 58.9814 13.2546C57.2685 14.412 55.4629 15.0139 53.5185 15.0139H53.3333C51.4814 15.0602 50.4166 14.4583 50.0925 13.3009ZM55.4166 12.4213L55.8333 12.3287C56.4351 12.1898 57.0833 11.912 57.7777 11.4028C58.4722 10.9398 59.1203 10.1991 59.7222 9.27315C60.324 8.34723 60.5555 7.65278 60.4166 7.14352C60.2777 6.68056 60.0462 6.35649 59.6296 6.2176L59.3518 6.125L59.074 6.07871L58.7037 6.125L58.287 6.2176C57.7314 6.35649 57.1296 6.68056 56.4351 7.14352C55.6944 7.65278 55.0462 8.34723 54.4907 9.27315C53.8888 10.1991 53.6574 10.8935 53.7962 11.3565C53.8888 11.8194 54.1666 12.1435 54.537 12.2824L54.8148 12.375L55.1388 12.4213H55.4166Z" fill="#4B4B4B"/>
    <path fill-rule="evenodd" clip-rule="evenodd" d="M46.1574 14.6898H43.0555L48.0555 6.31021H44.4444L39.3981 14.6898H36.2963L42.8703 3.76392H52.7314L46.1574 14.6898Z" fill="#4B4B4B"/>
    <path fill-rule="evenodd" clip-rule="evenodd" d="M71.2036 3.76392L66.1573 12.1898H68.7499L73.7962 3.76392H76.8981L71.8518 12.1898H74.4907L79.537 3.76392H82.6851L76.111 14.6898H61.5277L68.1018 3.76392H71.2036Z" fill="#4B4B4B"/>
    <path fill-rule="evenodd" clip-rule="evenodd" d="M92.4537 3.76392L90.8797 6.31021H88.6574L83.6111 14.6898H80.5093L85.5093 6.31021H82.8241L84.3982 3.76392H92.4537Z" fill="#4B4B4B"/>
    <path fill-rule="evenodd" clip-rule="evenodd" d="M97.2222 14.6899H94.4444L94.9537 12.7454H90.6018L88.8426 14.6899H85.5555L96.1574 3.71765H100L97.2222 14.6899ZM95.6018 10.2454L96.5278 6.68061L93.0555 10.2454H95.6018Z" fill="#4B4B4B"/>
    </g>
    <defs>
    <clipPath id="clip0_149_1320">
    <rect width="100" height="14.1204" fill="white" transform="translate(0 0.939819)"/>
    </clipPath>
    </defs>
    </svg>
    