<svg width="100" height="26" viewBox="0 0 100 26" fill="none" xmlns="http://www.w3.org/2000/svg">
    <g clip-path="url(#clip0_152_1594)">
    <path d="M37.1384 11.8206L34.8948 7.74489H33.986V11.8206H31.8047V1.51709H35.9425C36.6501 1.51709 37.2609 1.63594 37.7765 1.87365C38.2921 2.11135 38.6853 2.45693 38.9577 2.91222C39.2302 3.36752 39.3673 3.91241 39.3673 4.54872C39.3673 5.29657 39.168 5.92194 38.7694 6.42838C38.3708 6.93488 37.8021 7.28778 37.0653 7.4889L39.5666 11.8224H37.142L37.1384 11.8206ZM33.986 3.39494V6.01699H35.6829C36.1382 6.01699 36.4856 5.90363 36.7288 5.67691C36.972 5.45016 37.0927 5.1192 37.0927 4.68403C37.0927 4.24885 36.972 3.90144 36.7288 3.69848C36.4856 3.49551 36.1327 3.39494 35.6683 3.39494H33.986Z" fill="#4B4B4B"/>
    <path d="M45.8218 3.80451H47.8972V11.8206H45.8218V10.8661C45.5585 11.23 45.2258 11.5152 44.8217 11.7218C44.4175 11.9285 43.9622 12.0327 43.4576 12.0327C42.8012 12.0327 42.2142 11.8535 41.7004 11.4951C41.1848 11.1367 40.7844 10.6357 40.4955 9.99393C40.2065 9.35215 40.064 8.62803 40.064 7.81988C40.064 7.01168 40.2084 6.27112 40.4955 5.62933C40.7825 4.98754 41.1848 4.48836 41.7004 4.12998C42.2161 3.77159 42.8012 3.59241 43.4576 3.59241C43.9622 3.59241 44.4175 3.69846 44.8217 3.91056C45.2258 4.12266 45.5585 4.41156 45.8218 4.77544V3.80451ZM45.0027 9.88057C45.2751 9.69957 45.4909 9.43257 45.6463 9.0852C45.8036 8.73591 45.8804 8.31536 45.8804 7.81988C45.8804 7.32435 45.8017 6.9038 45.6463 6.55457C45.489 6.20714 45.2751 5.94019 45.0027 5.75914C44.7302 5.57813 44.4175 5.48672 44.0628 5.48672C43.7081 5.48672 43.3936 5.57813 43.1157 5.75914C42.8378 5.94019 42.6238 6.20714 42.4721 6.55457C42.3203 6.9038 42.2453 7.32435 42.2453 7.81988C42.2453 8.31536 42.3203 8.73591 42.4721 9.0852C42.6238 9.43257 42.8378 9.69957 43.1157 9.88057C43.3936 10.0634 43.7099 10.153 44.0628 10.153C44.4157 10.153 44.7302 10.0616 45.0027 9.88057Z" fill="#4B4B4B"/>
    <path d="M49.8464 2.34175C49.6196 2.11502 49.5062 1.81881 49.5062 1.45494C49.5062 1.09107 49.6196 0.794855 49.8464 0.568123C50.0731 0.341391 50.3693 0.226196 50.7332 0.226196C51.097 0.226196 51.3896 0.339563 51.6126 0.568123C51.8339 0.794855 51.9454 1.09107 51.9454 1.45494C51.9454 1.81881 51.8339 2.11502 51.6126 2.34175C51.3896 2.56849 51.097 2.68368 50.7332 2.68368C50.3693 2.68368 50.0731 2.57031 49.8464 2.34175ZM51.748 11.8206H49.6726V3.80454H51.748V11.8206Z" fill="#4B4B4B"/>
    <path d="M56.1874 3.80447H58.3854V5.62382H56.1874V11.8224H54.1124V5.62382H52.7482V3.80447H54.1124V3.31992C54.1124 2.44042 54.3646 1.76936 54.8692 1.30493C55.3737 0.840493 56.0666 0.608276 56.9448 0.608276C57.2683 0.608276 57.5754 0.637532 57.8697 0.6997C58.1624 0.760041 58.4312 0.842324 58.6723 0.942889L58.1422 2.53367C57.8697 2.42213 57.5717 2.36728 57.2481 2.36728C56.8734 2.36728 56.6047 2.45322 56.4381 2.62509C56.2715 2.79697 56.1874 3.06028 56.1874 3.41318V3.8063V3.80447Z" fill="#4B4B4B"/>
    <path d="M61.4919 3.80447H63.6899V5.62382H61.4919V11.8224H59.4168V5.62382H58.0528V3.80447H59.4168V3.31992C59.4168 2.44042 59.6691 1.76936 60.1736 1.30493C60.6782 0.840493 61.3711 0.608276 62.2492 0.608276C62.5728 0.608276 62.8799 0.637532 63.1742 0.6997C63.4669 0.760041 63.7357 0.842324 63.9768 0.942889L63.4467 2.53367C63.1742 2.42213 62.8762 2.36728 62.5526 2.36728C62.1779 2.36728 61.9091 2.45322 61.7426 2.62509C61.576 2.79697 61.4919 3.06028 61.4919 3.41318V3.8063V3.80447Z" fill="#4B4B4B"/>
    <path d="M71.7661 8.54763H66.3557C66.427 9.15466 66.6229 9.59352 66.9464 9.86596C67.27 10.1384 67.7437 10.2755 68.3706 10.2755C68.8044 10.2755 69.2062 10.2134 69.5755 10.0872C69.9449 9.96101 70.2653 9.78181 70.5378 9.54961L71.4319 10.974C71.0274 11.3178 70.5575 11.5811 70.0221 11.7621C69.4861 11.9431 68.9103 12.0345 68.294 12.0345C67.4254 12.0345 66.6777 11.8682 66.0502 11.5354C65.4233 11.2026 64.9459 10.7217 64.6186 10.0963C64.2897 9.46914 64.1268 8.72677 64.1268 7.86923C64.1268 7.01169 64.2876 6.273 64.6111 5.62568C64.9353 4.9784 65.3924 4.47923 65.9826 4.1245C66.5734 3.7716 67.2482 3.59424 68.005 3.59424C68.7623 3.59424 69.4239 3.76612 69.9907 4.10987C70.5559 4.45363 70.9928 4.94366 71.302 5.57996C71.6091 6.21632 71.7645 6.96411 71.7645 7.82352V8.55125L71.7661 8.54763ZM66.3557 7.12324H69.6745C69.6234 6.52712 69.4569 6.08279 69.1753 5.79023C68.8917 5.49769 68.5079 5.35142 68.0231 5.35142C67.0545 5.35142 66.4983 5.94202 66.3557 7.12505V7.12324Z" fill="#4B4B4B"/>
    <path d="M73.2142 2.34175C72.9874 2.11502 72.8741 1.81881 72.8741 1.45494C72.8741 1.09107 72.9874 0.794855 73.2142 0.568123C73.4409 0.341391 73.7373 0.226196 74.1013 0.226196C74.4648 0.226196 74.7575 0.339563 74.9805 0.568123C75.2019 0.794855 75.3137 1.09107 75.3137 1.45494C75.3137 1.81881 75.2019 2.11502 74.9805 2.34175C74.7575 2.56849 74.4648 2.68368 74.1013 2.68368C73.7373 2.68368 73.4409 2.57031 73.2142 2.34175ZM75.1157 11.8206H73.0407V3.80454H75.1157V11.8206Z" fill="#4B4B4B"/>
    <path d="M77.7672 11.7676C77.2004 11.5902 76.7214 11.3159 76.3281 10.9411L77.2973 9.45635C77.8933 10.0213 78.6507 10.3048 79.5703 10.3048C79.9742 10.3048 80.2797 10.2426 80.4862 10.1146C80.6927 9.98845 80.797 9.7983 80.797 9.54598C80.797 9.33384 80.7039 9.16013 80.5176 9.02298C80.3308 8.88589 79.9891 8.75789 79.4953 8.63719C78.8587 8.49642 78.3361 8.33915 77.9263 8.16725C77.5171 7.9954 77.186 7.75219 76.9338 7.43952C76.6815 7.12685 76.5548 6.71726 76.5548 6.21263C76.5548 5.67686 76.6922 5.21245 76.9646 4.81932C77.2371 4.42619 77.6267 4.12266 78.1312 3.91056C78.6358 3.69846 79.2228 3.59241 79.8886 3.59241C80.5139 3.59241 81.0935 3.68383 81.6235 3.86485C82.1542 4.04587 82.6055 4.31466 82.9801 4.66755L82.0115 6.09192C81.739 5.83961 81.4155 5.64764 81.0424 5.51597C80.6693 5.38432 80.2797 5.31849 79.8758 5.31849C79.4713 5.31849 79.1988 5.37883 78.9961 5.50134C78.7933 5.62204 78.6927 5.80485 78.6927 6.04621C78.6927 6.18703 78.7347 6.30587 78.8204 6.40278C78.9067 6.4997 79.0546 6.59113 79.2685 6.68256C79.4825 6.774 79.7842 6.86357 80.1775 6.955C80.722 7.08667 81.1919 7.24388 81.5868 7.42493C81.9823 7.60594 82.3037 7.86374 82.556 8.19839C82.8088 8.53112 82.9349 8.95534 82.9349 9.47099C82.9349 9.98664 82.8029 10.4364 82.5395 10.8204C82.2766 11.2044 81.8923 11.5024 81.3878 11.7145C80.8832 11.9266 80.276 12.0327 79.5682 12.0327C78.9322 12.0327 78.3308 11.9449 77.7656 11.7676H77.7672Z" fill="#4B4B4B"/>
    <path d="M91.4208 8.54763H86.0099C86.0812 9.15466 86.2771 9.59352 86.6007 9.86596C86.9243 10.1384 87.3979 10.2755 88.0249 10.2755C88.4586 10.2755 88.8609 10.2134 89.2303 10.0872C89.5996 9.96101 89.9195 9.78181 90.192 9.54961L91.0861 10.974C90.6816 11.3178 90.2122 11.5811 89.6763 11.7621C89.1404 11.9431 88.5645 12.0345 87.9482 12.0345C87.0797 12.0345 86.3319 11.8682 85.705 11.5354C85.0775 11.2026 84.6001 10.7217 84.2728 10.0963C83.9439 9.46914 83.7811 8.72677 83.7811 7.86923C83.7811 7.01169 83.9423 6.273 84.2659 5.62568C84.5895 4.9784 85.0466 4.47923 85.6369 4.1245C86.2276 3.7716 86.9024 3.59424 87.6592 3.59424C88.4166 3.59424 89.0781 3.76612 89.6449 4.10987C90.2101 4.45363 90.647 4.94366 90.9562 5.57996C91.2633 6.21632 91.4187 6.96411 91.4187 7.82352V8.55125L91.4208 8.54763ZM86.0099 7.12324H89.3288C89.2777 6.52712 89.1111 6.08279 88.8295 5.79023C88.5464 5.49769 88.1622 5.35142 87.6779 5.35142C86.7087 5.35142 86.1526 5.94202 86.0099 7.12505V7.12324Z" fill="#4B4B4B"/>
    <path d="M98.6578 3.96359C99.0872 4.21043 99.4183 4.57247 99.6509 5.04788C99.8829 5.52328 100 6.09379 100 6.76117V11.8224H97.9079V7.01897C97.9079 6.50337 97.7892 6.11752 97.5513 5.85972C97.3139 5.60192 96.9536 5.47392 96.4672 5.47392C96.1032 5.47392 95.7833 5.55434 95.5055 5.71709C95.2277 5.87984 94.9824 6.12119 94.7705 6.44483V11.8242H92.6949V3.80451H94.7705V4.74435C95.0228 4.38048 95.3538 4.09707 95.7631 3.89593C96.1729 3.6948 96.6301 3.59241 97.1346 3.59241C97.72 3.59241 98.2283 3.71674 98.6578 3.96359Z" fill="#4B4B4B"/>
    <path d="M38.9577 21.0838C39.2503 21.5024 39.3966 22.0163 39.3966 22.6215C39.3966 23.5613 39.0949 24.2873 38.4951 24.7956C37.8935 25.3057 37.0433 25.5617 35.9425 25.5617H31.8047V15.2563H35.5787C36.6703 15.2563 37.5132 15.4904 38.1093 15.9603C38.7054 16.4302 39.0034 17.094 39.0034 17.9534C39.0034 18.9737 38.5646 19.7069 37.6851 20.1512C38.2409 20.3542 38.6652 20.665 38.9577 21.0838ZM33.986 17.105V19.5149H35.4105C35.8749 19.5149 36.2168 19.4143 36.4326 19.2114C36.6501 19.0102 36.7581 18.7122 36.7581 18.3173C36.7581 17.8839 36.641 17.573 36.4088 17.3847C36.1766 17.1982 35.8273 17.105 35.3629 17.105H33.9842H33.986ZM35.6829 23.7113C36.1583 23.7113 36.513 23.6107 36.7507 23.4077C36.9885 23.2066 37.1073 22.883 37.1073 22.4386C37.1073 22.0236 36.9939 21.7164 36.7672 21.5134C36.5404 21.3123 36.1638 21.2099 35.639 21.2099H33.9879V23.7113H35.6847H35.6829Z" fill="#4B4B4B"/>
    <path d="M45.959 17.5456H48.0343V25.5617H45.959V24.6072C45.6957 24.971 45.3629 25.2563 44.9588 25.4629C44.5547 25.6696 44.0994 25.7738 43.5947 25.7738C42.9383 25.7738 42.3514 25.5946 41.8376 25.2362C41.3219 24.8778 40.9215 24.3768 40.6326 23.735C40.3437 23.0932 40.201 22.3692 40.201 21.561C40.201 20.7527 40.3455 20.0122 40.6326 19.3704C40.9197 18.7286 41.3219 18.2295 41.8376 17.8711C42.3532 17.5127 42.9383 17.3335 43.5947 17.3335C44.0994 17.3335 44.5547 17.4395 44.9588 17.6516C45.3629 17.8637 45.6957 18.1527 45.959 18.5165V17.5456ZM45.1398 23.6216C45.4123 23.4406 45.628 23.1737 45.7834 22.8263C45.9407 22.477 46.0175 22.0564 46.0175 21.561C46.0175 21.0654 45.9388 20.6449 45.7834 20.2956C45.6262 19.9482 45.4123 19.6813 45.1398 19.5003C44.8674 19.3192 44.5547 19.2278 44.2 19.2278C43.8453 19.2278 43.5307 19.3192 43.2528 19.5003C42.9749 19.6813 42.7609 19.9482 42.6092 20.2956C42.4574 20.6449 42.3824 21.0654 42.3824 21.561C42.3824 22.0564 42.4574 22.477 42.6092 22.8263C42.7609 23.1737 42.9749 23.4406 43.2528 23.6216C43.5307 23.8045 43.8471 23.8941 44.2 23.8941C44.5529 23.8941 44.8674 23.8026 45.1398 23.6216Z" fill="#4B4B4B"/>
    <path d="M55.7707 17.7046C56.2002 17.9515 56.5312 18.3135 56.7632 18.789C56.9958 19.2644 57.1129 19.8348 57.1129 20.5022V25.5635H55.0208V20.7601C55.0208 20.2444 54.9021 19.8586 54.6642 19.6008C54.4269 19.343 54.0666 19.215 53.5801 19.215C53.2163 19.215 52.8962 19.2955 52.6183 19.4582C52.3404 19.6209 52.0954 19.8623 51.8833 20.1859V25.5653H49.8079V17.5492H51.8833V18.4891C52.1356 18.1252 52.4665 17.8418 52.8761 17.6407C53.2858 17.4396 53.743 17.3372 54.2475 17.3372C54.8324 17.3372 55.3412 17.4615 55.7707 17.7083V17.7046Z" fill="#4B4B4B"/>
    <path d="M62.8101 21.2886L66.0231 25.5617H63.5382L60.7952 21.9249V25.5617H58.7202V14.6511H60.7952V20.804L63.403 17.5456H65.873L62.8123 21.2886H62.8101Z" fill="#4B4B4B"/>
    <path fill-rule="evenodd" clip-rule="evenodd" d="M0 1.51526H24.0446V25.5617H0V1.51526ZM20.4516 8.76526L17.3871 11.8298L16.5423 10.985V8.96638L15.6738 9.83489V12.2759L14.478 13.4718L20.6838 19.6777L18.2282 22.1333L12.0223 15.9274L5.81645 22.1333L3.36077 19.6777L9.56663 13.4718L8.37082 12.2759V9.83489L7.50232 8.96638V10.985L6.65755 11.8298L3.59299 8.76526L2.77383 9.58443L2.76834 9.57895C2.76834 9.05233 2.92376 7.2421 4.37741 5.82505C6.00661 4.23792 7.63579 5.16496 8.19711 5.72633L11.1483 8.6775L10.4169 9.40886L12.0223 11.0143L13.6277 9.40886L12.8963 8.6775L15.8475 5.72633C16.4107 5.16679 18.0398 4.23792 19.6672 5.82505C21.1209 7.2421 21.2763 9.05233 21.2763 9.57895L21.2708 9.58443L20.4516 8.76526Z" fill="#4B4B4B"/>
    </g>
    <defs>
    <clipPath id="clip0_152_1594">
    <rect width="100" height="25.5476" fill="white" transform="translate(0 0.226196)"/>
    </clipPath>
    </defs>
    </svg>
    