<svg width="100" height="20" viewBox="0 0 100 20" fill="none" xmlns="http://www.w3.org/2000/svg">
    <g clip-path="url(#clip0_152_1652)">
    <path d="M33.6158 1.98565V14.0803C33.6158 16.7455 31.2805 18.7722 28.1963 18.7722C25.112 18.7722 22.7768 16.7455 22.7768 14.0803V4.82759C22.7768 3.26339 24.0332 1.98565 25.5966 1.98565H25.7955V14.0582C25.7955 15.4898 27.0724 16.3714 28.3067 16.3714C29.4961 16.3714 30.7738 15.5561 30.7738 14.0582V4.67369C30.7738 3.19711 31.986 1.98565 33.4619 1.98565H33.6158Z" fill="#4B4B4B"/>
    <path d="M39.5628 6.25951C43.6817 6.25951 44.3431 8.57268 44.3431 9.96089V18.5964H44.2112C42.6912 18.5964 41.3914 17.3187 41.3914 15.7979V10.0051C41.3914 9.18981 41.0607 8.21992 39.4523 8.21992C38.7034 8.21992 38.263 8.30825 37.7784 8.48429V18.5964H34.826V7.16311C36.0816 6.61226 38.109 6.25951 39.5628 6.25951Z" fill="#4B4B4B"/>
    <path d="M48.5613 6.25952V15.8208C48.5613 17.3401 47.327 18.5965 45.7856 18.5965H45.653V6.25952H48.5613ZM47.1075 1.98593C47.9883 1.98593 48.6931 2.6465 48.6931 3.46174C48.6931 4.25489 47.9883 4.89339 47.1075 4.89339C46.226 4.89339 45.4991 4.25489 45.4991 3.46174C45.4991 2.6465 46.226 1.98593 47.1075 1.98593Z" fill="#4B4B4B"/>
    <path d="M56.9493 1.74343C58.3367 1.74343 59.6366 2.052 60.7162 2.71258V5.62083C60.0556 4.76137 59.1078 4.16631 57.5878 4.16631C54.5919 4.16631 52.7412 7.11876 52.7412 10.1809C52.7412 13.067 54.6803 16.2168 57.5878 16.2168C58.8655 16.2168 60.0335 15.8427 60.7162 14.917V17.781C59.8568 18.4202 58.5135 18.7723 56.9264 18.7723C52.169 18.7723 49.657 14.411 49.657 10.203C49.657 6.0612 52.169 1.74343 56.9493 1.74343Z" fill="#4B4B4B"/>
    <path d="M65.9329 6.2595C66.4175 6.2595 67.0347 6.30379 67.5855 6.39126V8.74859C66.5714 8.02172 65.2274 8.26403 64.6331 8.57257V15.8207C64.6331 17.34 63.3775 18.5964 61.8575 18.5964H61.7028V7.20647C62.8487 6.6556 64.016 6.2595 65.9329 6.2595Z" fill="#4B4B4B"/>
    <path d="M75.2514 10.8858C75.1631 8.44009 73.643 8.17645 72.8278 8.17645H72.7181C71.0655 8.21986 70.2944 9.38791 70.2944 11.5685L75.2514 10.8858ZM77.8069 12.5598L70.4704 13.5731C70.7127 15.5777 71.7261 16.6353 73.5767 16.6353C75.6255 16.6353 76.661 15.9747 77.41 15.4459V17.8909C76.661 18.2879 75.2728 18.7724 73.2903 18.7724C69.6994 18.7724 67.5629 16.3488 67.5629 12.4714C67.5629 8.70449 69.5455 6.25947 72.8057 6.25947C76.0225 6.25947 77.8069 8.39666 77.8069 12.0973V12.5598Z" fill="#4B4B4B"/>
    <path d="M85.4988 8.63893C85.1902 8.55059 84.8603 8.50717 84.4855 8.50717C82.0618 8.50717 81.5551 10.8417 81.5551 12.7808C81.5551 15.4901 82.4588 16.8342 84.2873 16.8342C84.5952 16.8342 85.2786 16.7678 85.4988 16.7236V8.63893ZM88.3849 1.98586V18.4417C87.6794 18.5964 85.3662 18.7724 84.3971 18.7724H84.199C80.6081 18.7281 78.6477 16.6573 78.6477 12.9346C78.6477 9.16769 80.6965 6.74403 83.8683 6.74403C84.4855 6.74403 85.0143 6.81035 85.4767 6.92093V4.78371C85.4767 3.24159 86.7103 1.98596 88.2524 1.98596L88.3849 1.98586Z" fill="#4B4B4B"/>
    <path d="M92.6683 6.25952V15.8208C92.6683 17.3401 91.4347 18.5965 89.8926 18.5965H89.76V6.25952H92.6683ZM91.2138 1.98593C92.0953 1.98593 92.8008 2.6465 92.8008 3.46174C92.8008 4.25489 92.0953 4.89339 91.2138 4.89339C90.333 4.89339 89.6061 4.25489 89.6061 3.46174C89.6061 2.6465 90.333 1.98593 91.2138 1.98593Z" fill="#4B4B4B"/>
    <path d="M97.8194 1.98565V6.25923H99.7143V8.6166H97.8194V15.16C97.8194 15.9523 98.0838 16.1946 98.9425 16.1946C99.1627 16.1946 99.4933 16.1283 99.7143 16.0406V18.4856C99.5817 18.5299 99.0088 18.7721 98.2377 18.7721C96.0792 18.7721 94.8891 17.7153 94.8891 15.7983V8.6165H93.6113V6.25914H94.8891V4.76122C94.8891 3.2412 96.1226 1.98555 97.6434 1.98555L97.8194 1.98565Z" fill="#4B4B4B"/>
    <path fill-rule="evenodd" clip-rule="evenodd" d="M10.2813 5.35718L10.2988 5.33214C10.4466 5.11575 10.3849 4.95575 10.2858 4.86964L8.73385 3.91259C8.62642 3.84023 8.55556 3.71758 8.55556 3.57736C8.55556 3.35642 8.68737 3.18953 8.98757 3.10646C9.94454 2.84362 13.3107 2.70573 14.4543 2.70573C14.8513 2.70573 15.5347 2.70419 16.148 2.72082L16.1214 2.69492C14.4444 1.26174 12.2676 0.396973 9.88814 0.396973C4.58444 0.396973 0.285706 4.6957 0.285706 9.99941C0.285706 12.3309 1.1162 14.468 2.49831 16.1313C3.70443 14.3972 6.682 10.1205 7.33496 9.2474C8.08697 8.24091 9.80129 6.00161 10.0916 5.62218L10.106 5.60491L10.2813 5.35718Z" fill="#4B4B4B"/>
    <path fill-rule="evenodd" clip-rule="evenodd" d="M4.03298 17.6123C5.65358 18.8603 7.68409 19.6032 9.88831 19.6032C15.192 19.6032 19.4907 15.3045 19.4907 10.0008C19.4907 8.39541 19.0976 6.88297 18.4012 5.55344C18.7319 5.23496 19.1136 4.73133 18.8629 4.09971C18.7852 3.9116 18.4119 3.48482 18.3159 3.38122L18.3288 3.41773C18.5627 4.12326 18.1003 4.56516 17.7681 4.86612C17.586 5.03134 15.1478 7.33017 12.2884 9.83078C9.76793 12.0342 6.94884 14.2766 5.31605 15.4994C3.01887 17.2191 2.57163 17.469 2.57163 17.469C2.51143 17.5018 2.4101 17.5299 2.33543 17.5299C2.19524 17.5299 2.07334 17.4666 1.99639 17.3668L1.994 17.3625L1.98861 17.4364C2.23471 17.8349 2.64309 18.2973 2.88081 18.2973C2.95548 18.2973 3.0568 18.2693 3.11776 18.2371C3.11776 18.2371 3.29772 18.1372 4.03298 17.6123Z" fill="#4B4B4B"/>
    </g>
    <defs>
    <clipPath id="clip0_152_1652">
    <rect width="100" height="19.7777" fill="white" transform="translate(0 0.111206)"/>
    </clipPath>
    </defs>
    </svg>
    