<svg width="72" height="30" viewBox="0 0 72 30" fill="none" xmlns="http://www.w3.org/2000/svg">
    <g clip-path="url(#clip0_150_1374)">
    <path d="M67.9745 29.0864L57.417 0.0191808L57.4097 0H57.2013L55.0273 5.97324L51.0694 16.8476L51.0601 16.839C49.6883 15.6286 47.753 14.8719 45.3157 14.5902L44.5723 14.5134L45.3098 14.4189C49.3292 13.6966 52.0311 11.1581 52.0311 8.0997C52.0311 3.90566 48.0864 0.978238 42.4359 0.978238H30.6792V1.19055H34.0955V22.8618L25.7987 0.0191808L25.7914 0H25.583L23.409 5.97324L15.0235 29.0117L14.972 29.0176C14.8286 29.0353 14.6869 29.0494 14.5467 29.0599C14.3357 29.0765 14.126 29.0864 13.9157 29.0864H5.44294L21.5484 1.19055L21.6681 0.980878H1.97051V9.61037H2.17952C2.21655 5.40707 4.66445 1.19055 10.0728 1.19055H16.5977L0.370544 29.2954H22.2316V21.0277H22.0226C21.9942 24.6913 19.9174 28.171 15.4012 28.9568L15.2577 28.9812L18.697 19.5276H28.3319L31.8036 29.0864H28.3788V29.2954H41.8208V29.0864H38.3814V14.6675H42.3499C46.3885 14.6675 48.7048 16.4719 48.7048 19.6163V22.174C48.7048 22.4557 48.724 22.8678 48.7451 23.2124V23.2249L46.6121 29.0851H43.8255V29.2941H49.5937V29.0851H46.837L48.7795 23.7488C48.7835 23.8004 48.7855 23.8315 48.7855 23.8315L48.8391 24.3123L48.8907 24.6304C49.2147 26.5982 49.9674 28.0447 51.1269 28.9296L51.2936 29.0507C52.1746 29.6632 53.2692 29.9734 54.5491 29.9734C56.2443 29.9734 57.3746 29.5507 58.3079 28.5559L58.1855 28.4409C57.3257 29.2346 56.6041 29.556 55.6999 29.556C54.1595 29.556 53.3532 27.6875 53.3532 25.8448V22.2613C53.3614 21.372 53.2222 20.4877 52.9412 19.644L52.9028 19.5329V19.529H59.9502L63.4219 29.0877H59.9971V29.2967H71.6295V29.0877L67.9745 29.0864ZM18.7738 19.3186L23.5201 6.27882L28.2558 19.3186H18.7738ZM38.3834 14.4579V1.19055H41.4127C45.4592 1.19055 47.5956 3.59612 47.5956 8.14467C47.5956 12.9823 46.3693 14.4579 42.3499 14.4579H38.3834ZM52.8208 19.3186L52.8003 19.267C52.4871 18.5043 52.0312 17.8083 51.4569 17.2166L51.2585 17.0182L51.2374 16.9984L55.1357 6.27882L59.8715 19.3186H52.8208Z" fill="#4B4B4B"/>
    </g>
    <defs>
    <clipPath id="clip0_150_1374">
    <rect width="71.2589" height="30" fill="white" transform="translate(0.370544)"/>
    </clipPath>
    </defs>
    </svg>
    