<svg width="180" height="84" viewBox="0 0 180 84" fill="none" xmlns="http://www.w3.org/2000/svg">
    <path d="M21.5935 77.4227C21.2582 77.9975 20.6972 78.3253 20.0281 78.3253C19.3665 78.3253 18.7995 77.9975 18.4718 77.4227L6.89476 57.3618C6.5899 56.8343 6.48472 56.354 5.46497 56.354H0.556748C0.354017 56.354 0.178723 56.4562 0.0765957 56.6315C-0.0255319 56.813 -0.0255319 57.0157 0.0765957 57.1911L13.8653 81.0696C14.6869 82.4967 16.1061 83.3184 17.7447 83.3184H22.313C23.9577 83.3184 25.3768 82.4967 26.1984 81.0696L39.9871 57.1911C40.0816 57.0157 40.0816 56.813 39.9871 56.6315C39.8774 56.4562 39.7036 56.354 39.4994 56.354H34.6003C33.579 56.354 33.4738 56.8343 33.169 57.3618L21.5935 77.4227ZM45.0021 56.9075V82.7574C45.0021 83.0531 45.2505 83.3108 45.5554 83.3108H50.2624C50.5688 83.3108 50.8157 83.0638 50.8157 82.7574V56.9075C50.8157 56.601 50.5581 56.354 50.2624 56.354H45.5554C45.2597 56.354 45.0021 56.6224 45.0021 56.9075ZM77.3323 77.4227C76.997 77.9975 76.4375 78.3253 75.7684 78.3253C75.1053 78.3253 74.5383 77.9975 74.2106 77.4227L62.6336 57.3618C62.3287 56.8343 62.2037 56.354 61.2038 56.354H56.2955C56.1126 56.354 55.919 56.4562 55.8169 56.6315C55.7148 56.813 55.7255 57.034 55.8169 57.1911L69.6041 81.0696C70.4273 82.4967 71.8464 83.3184 73.4835 83.3184H78.0518C79.6965 83.3184 81.1156 82.4967 81.9387 81.0696L95.7259 57.1911C95.822 57.0157 95.822 56.813 95.7259 56.6315C95.6177 56.4562 95.4226 56.354 95.2382 56.354H90.3391C89.3392 56.354 89.202 56.8541 88.9093 57.3618L77.3323 77.4227ZM134.972 67.3359C135.277 67.3359 135.524 67.6133 135.524 67.8893V71.7755C135.524 72.0515 135.275 72.329 134.972 72.329C125.983 72.329 119.793 72.329 110.806 72.329C110.501 72.329 110.252 72.0805 110.252 71.7755V67.8893C110.252 67.5829 110.499 67.3359 110.806 67.3359C119.793 67.3359 125.983 67.3359 134.972 67.3359ZM134.972 78.3177H107.707C105.844 78.3177 104.265 76.7687 104.265 74.8766V64.7898C104.265 62.8962 105.815 61.3472 107.707 61.3472H134.972C135.277 61.3472 135.524 61.0926 135.524 60.7861V56.9075C135.524 56.601 135.246 56.354 134.972 56.354H106.44C102.075 56.354 98.4514 59.9796 98.4514 64.3369V75.3264C98.4514 79.6868 102.046 83.3108 106.44 83.3108H134.972C135.277 83.3108 135.524 83.0638 135.524 82.7574V78.8787C135.524 78.5662 135.277 78.3177 134.972 78.3177ZM150.666 70.4827L140.058 82.3945C139.943 82.5241 139.903 82.8046 139.972 82.9845C140.043 83.166 140.249 83.3108 140.475 83.3108H146.308C147.018 83.3108 147.181 83.0653 147.535 82.672L155.955 73.2742C156.509 72.6568 157.192 72.3351 158.021 72.3351H161.908C162.738 72.3351 163.433 72.6796 163.967 73.2742L172.387 82.6644C172.719 83.0379 172.91 83.3108 173.614 83.3108H179.446C179.673 83.3108 179.881 83.166 179.957 82.9845C180.028 82.8062 180.013 82.5561 179.868 82.3945L169.262 70.4827C168.974 70.1595 168.974 69.5054 169.262 69.1807L179.868 57.2703C180.016 57.1057 180.03 56.8572 179.957 56.6742C179.884 56.4974 179.635 56.354 179.446 56.354H173.614C172.951 56.354 172.701 56.6498 172.387 56.999L163.967 66.383C163.446 66.9639 162.696 67.3282 161.908 67.3282H158.021C157.231 67.3282 156.504 66.9959 155.955 66.383L147.535 56.9929C147.188 56.6056 146.979 56.354 146.308 56.354H140.475C140.287 56.354 140.042 56.4974 139.972 56.6742C139.9 56.8587 139.927 57.1255 140.058 57.2703L150.666 69.1807C150.956 69.5039 150.953 70.161 150.666 70.4827Z" fill="#1E1E1E"/>
    <path fill-rule="evenodd" clip-rule="evenodd" d="M67.9732 1.62486C82.6582 -0.54162 97.3433 -0.54162 112.028 1.62486C116.802 2.32923 120.049 5.63308 120.802 10.4006C120.991 11.5959 121.147 12.7927 121.27 13.988C121.403 15.2793 121.011 16.4426 120.125 17.3909C119.24 18.3408 118.106 18.8088 116.808 18.7646L96.4942 18.0618C94.3313 17.987 92.5783 16.3649 92.3375 14.2136L91.6698 8.27829C91.5007 6.77349 91.5205 5.52635 90.0023 5.52635C88.4826 5.52635 88.5024 6.76892 88.3332 8.27829L87.6671 14.2136C87.4247 16.3649 85.6718 17.987 83.5088 18.0618L63.193 18.7646C61.8958 18.8088 60.7602 18.3408 59.8762 17.3924C58.989 16.4441 58.5973 15.2793 58.7314 13.988C58.8534 12.7942 59.0104 11.5959 59.1994 10.4006C59.9524 5.6346 63.1991 2.32923 67.9732 1.62486ZM121.27 27.3833C121.147 28.5786 120.99 29.7769 120.802 30.9722C120.049 35.7397 116.802 39.042 112.028 39.7464C97.3433 41.9144 82.6582 41.9144 67.9732 39.7464C63.1991 39.042 59.9524 35.7397 59.1994 30.9722C59.0104 29.7754 58.8534 28.5786 58.7314 27.3833C58.5973 26.0904 58.9905 24.9271 59.8762 23.9788C60.7618 23.0305 61.8974 22.5609 63.1945 22.6066L83.5088 23.3095C85.6718 23.3842 87.4247 25.0064 87.6671 27.1576L88.3332 33.0929C88.5008 34.6038 88.4826 35.8464 90.0023 35.8464C91.5205 35.8464 91.5022 34.6008 91.6698 33.0929L92.3375 27.1576C92.5783 25.0064 94.3313 23.3842 96.4942 23.3095L116.807 22.6066C118.104 22.5609 119.24 23.0305 120.125 23.9803C121.011 24.9286 121.403 26.0934 121.27 27.3833Z" fill="#D11434"/>
    </svg>
    