<?xml version="1.0" encoding="utf-8"?>
<!-- Generator: Adobe Illustrator 27.9.0, SVG Export Plug-In . SVG Version: 6.00 Build 0)  -->
<svg version="1.1" id="Layer_1" xmlns="http://www.w3.org/2000/svg" xmlns:xlink="http://www.w3.org/1999/xlink" x="0px" y="0px"
	 viewBox="0 0 180 84" style="enable-background:new 0 0 180 84;" xml:space="preserve">
<style type="text/css">
	.st0{fill:#FFFFFF;}
	.st1{fill-rule:evenodd;clip-rule:evenodd;fill:#D11434;}
</style>
<path class="st0" d="M21.6,77.4c-0.3,0.6-0.9,0.9-1.6,0.9c-0.7,0-1.2-0.3-1.6-0.9L6.9,57.4c-0.3-0.5-0.4-1-1.4-1H0.6
	c-0.2,0-0.4,0.1-0.5,0.3C0,56.8,0,57,0.1,57.2l13.8,23.9c0.8,1.4,2.2,2.2,3.9,2.2h4.6c1.6,0,3.1-0.8,3.9-2.2L40,57.2
	c0.1-0.2,0.1-0.4,0-0.6c-0.1-0.2-0.3-0.3-0.5-0.3h-4.9c-1,0-1.1,0.5-1.4,1L21.6,77.4z M45,56.9v25.8c0,0.3,0.2,0.6,0.6,0.6h4.7
	c0.3,0,0.6-0.2,0.6-0.6V56.9c0-0.3-0.3-0.6-0.6-0.6h-4.7C45.3,56.4,45,56.6,45,56.9z M77.3,77.4c-0.3,0.6-0.9,0.9-1.6,0.9
	c-0.7,0-1.2-0.3-1.6-0.9L62.6,57.4c-0.3-0.5-0.4-1-1.4-1h-4.9c-0.2,0-0.4,0.1-0.5,0.3c-0.1,0.2-0.1,0.4,0,0.6l13.8,23.9
	c0.8,1.4,2.2,2.2,3.9,2.2h4.6c1.6,0,3.1-0.8,3.9-2.2l13.8-23.9c0.1-0.2,0.1-0.4,0-0.6c-0.1-0.2-0.3-0.3-0.5-0.3h-4.9
	c-1,0-1.1,0.5-1.4,1L77.3,77.4z M135,67.3c0.3,0,0.6,0.3,0.6,0.6v3.9c0,0.3-0.2,0.6-0.6,0.6c-9,0-15.2,0-24.2,0
	c-0.3,0-0.6-0.2-0.6-0.6v-3.9c0-0.3,0.2-0.6,0.6-0.6C119.8,67.3,126,67.3,135,67.3z M135,78.3h-27.3c-1.9,0-3.4-1.5-3.4-3.4V64.8
	c0-1.9,1.6-3.4,3.4-3.4H135c0.3,0,0.6-0.3,0.6-0.6v-3.9c0-0.3-0.3-0.6-0.6-0.6h-28.5c-4.4,0-8,3.6-8,8v11c0,4.4,3.6,8,8,8H135
	c0.3,0,0.6-0.2,0.6-0.6v-3.9C135.5,78.6,135.3,78.3,135,78.3z M150.7,70.5l-10.6,11.9c-0.1,0.1-0.2,0.4-0.1,0.6
	c0.1,0.2,0.3,0.3,0.5,0.3h5.8c0.7,0,0.9-0.2,1.2-0.6l8.4-9.4c0.6-0.6,1.2-0.9,2.1-0.9h3.9c0.8,0,1.5,0.3,2.1,0.9l8.4,9.4
	c0.3,0.4,0.5,0.6,1.2,0.6h5.8c0.2,0,0.4-0.1,0.5-0.3c0.1-0.2,0.1-0.4-0.1-0.6l-10.6-11.9c-0.3-0.3-0.3-1,0-1.3l10.6-11.9
	c0.1-0.2,0.2-0.4,0.1-0.6c-0.1-0.2-0.3-0.3-0.5-0.3h-5.8c-0.7,0-0.9,0.3-1.2,0.6l-8.4,9.4c-0.5,0.6-1.3,0.9-2.1,0.9H158
	c-0.8,0-1.5-0.3-2.1-0.9l-8.4-9.4c-0.3-0.4-0.6-0.6-1.2-0.6h-5.8c-0.2,0-0.4,0.1-0.5,0.3c-0.1,0.2,0,0.5,0.1,0.6l10.6,11.9
	C151,69.5,151,70.2,150.7,70.5z"/>
<path class="st1" d="M68,1.6c14.7-2.2,29.4-2.2,44.1,0c4.8,0.7,8,4,8.8,8.8c0.2,1.2,0.3,2.4,0.5,3.6c0.1,1.3-0.3,2.5-1.1,3.4
	c-0.9,0.9-2,1.4-3.3,1.4l-20.3-0.7c-2.2-0.1-3.9-1.7-4.2-3.8l-0.7-5.9c-0.2-1.5-0.1-2.8-1.7-2.8c-1.5,0-1.5,1.2-1.7,2.8l-0.7,5.9
	c-0.2,2.2-2,3.8-4.2,3.8l-20.3,0.7c-1.3,0-2.4-0.4-3.3-1.4c-0.9-0.9-1.3-2.1-1.1-3.4c0.1-1.2,0.3-2.4,0.5-3.6
	C60,5.6,63.2,2.3,68,1.6z M121.3,27.4c-0.1,1.2-0.3,2.4-0.5,3.6c-0.8,4.8-4,8.1-8.8,8.8c-14.7,2.2-29.4,2.2-44.1,0
	c-4.8-0.7-8-4-8.8-8.8c-0.2-1.2-0.3-2.4-0.5-3.6c-0.1-1.3,0.3-2.5,1.1-3.4c0.9-0.9,2-1.4,3.3-1.4l20.3,0.7c2.2,0.1,3.9,1.7,4.2,3.8
	l0.7,5.9c0.2,1.5,0.1,2.8,1.7,2.8c1.5,0,1.5-1.2,1.7-2.8l0.7-5.9c0.2-2.2,2-3.8,4.2-3.8l20.3-0.7c1.3,0,2.4,0.4,3.3,1.4
	C121,24.9,121.4,26.1,121.3,27.4z"/>
</svg>
