<svg width="180" height="30" viewBox="0 0 180 30" fill="none" xmlns="http://www.w3.org/2000/svg">
    <path d="M69.2972 20.073C69.0625 20.4738 68.6723 20.704 68.2043 20.704C67.7409 20.704 67.3446 20.4738 67.116 20.073L59.025 6.05701C58.8116 5.68813 58.7384 5.35126 58.0266 5.35126H54.5953C54.4536 5.35126 54.3316 5.4229 54.2615 5.54484C54.1899 5.67288 54.1899 5.81464 54.2615 5.93659L63.8966 22.6201C64.4713 23.617 65.4636 24.1916 66.6084 24.1916H69.8003C70.9496 24.1916 71.9419 23.617 72.5166 22.6201L82.1517 5.93659C82.2187 5.81464 82.2187 5.67288 82.1517 5.54484C82.0755 5.4229 81.9535 5.35126 81.8117 5.35126H78.3866C77.6748 5.35126 77.6001 5.68813 77.3867 6.05701L69.2972 20.073ZM85.6576 5.73843V23.7999C85.6576 24.0072 85.8298 24.187 86.0432 24.187H89.3326C89.5461 24.187 89.7198 24.0133 89.7198 23.7999V5.73843C89.7198 5.52503 89.54 5.35126 89.3326 5.35126H86.0432C85.8374 5.35126 85.6576 5.53875 85.6576 5.73843ZM108.251 20.073C108.016 20.4738 107.626 20.704 107.158 20.704C106.694 20.704 106.298 20.4738 106.069 20.073L97.9785 6.05701C97.7666 5.68813 97.6782 5.35126 96.9801 5.35126H93.5489C93.4224 5.35126 93.2852 5.4229 93.215 5.54484C93.1434 5.67288 93.151 5.82684 93.215 5.93659L102.85 22.6201C103.425 23.617 104.417 24.1916 105.562 24.1916H108.754C109.903 24.1916 110.895 23.617 111.47 22.6201L121.105 5.93659C121.172 5.81464 121.172 5.67288 121.105 5.54484C121.029 5.4229 120.893 5.35126 120.765 5.35126H117.34C116.642 5.35126 116.546 5.70185 116.34 6.05701L108.251 20.073ZM148.532 13.0246C148.745 13.0246 148.918 13.2197 148.918 13.4118V16.1265C148.918 16.3201 148.744 16.5137 148.532 16.5137C142.25 16.5137 137.926 16.5137 131.643 16.5137C131.431 16.5137 131.257 16.3399 131.257 16.1265V13.4118C131.257 13.1984 131.429 13.0246 131.643 13.0246C137.926 13.0246 142.25 13.0246 148.532 13.0246ZM148.532 20.6979H129.478C128.176 20.6979 127.073 19.6157 127.073 18.2941V11.2457C127.073 9.92264 128.155 8.84038 129.478 8.84038H148.532C148.745 8.84038 148.918 8.66204 148.918 8.44864V5.73843C148.918 5.52503 148.724 5.35126 148.532 5.35126H128.593C125.542 5.35126 123.009 7.88465 123.009 10.9302V18.6081C123.009 21.6537 125.521 24.187 128.593 24.187H148.532C148.745 24.187 148.918 24.0133 148.918 23.7999V21.0897C148.918 20.8717 148.745 20.6979 148.532 20.6979ZM159.501 15.2242L152.087 23.5453C152.006 23.6368 151.978 23.8334 152.027 23.9584C152.076 24.0849 152.219 24.187 152.378 24.187H156.454C156.951 24.187 157.065 24.0148 157.312 23.7404L163.196 17.1737C163.583 16.7424 164.06 16.5183 164.639 16.5183H167.357C167.936 16.5183 168.423 16.7591 168.796 17.1737L174.68 23.7359C174.913 23.9965 175.046 24.187 175.538 24.187H179.614C179.771 24.187 179.917 24.0849 179.969 23.9584C180.019 23.8349 180.009 23.6596 179.908 23.5453L172.495 15.2242C172.294 14.997 172.294 14.5413 172.497 14.3141L179.908 5.99299C180.012 5.87714 180.021 5.70337 179.969 5.57533C179.919 5.45186 179.745 5.35126 179.614 5.35126H175.538C175.075 5.35126 174.899 5.55856 174.68 5.80245L168.796 12.3585C168.432 12.7655 167.907 13.02 167.357 13.02H164.639C164.089 13.02 163.58 12.7868 163.196 12.3585L157.312 5.79788C157.068 5.52808 156.923 5.35126 156.454 5.35126H152.378C152.247 5.35126 152.074 5.45186 152.027 5.57533C151.977 5.7049 151.995 5.89086 152.087 5.99299L159.501 14.3141C159.702 14.5397 159.7 14.9986 159.501 15.2242Z" fill="#1E1E1E"/>
    <path fill-rule="evenodd" clip-rule="evenodd" d="M6.47623 1.45361C16.7378 -0.0600179 27.0009 -0.0600179 37.2641 1.45361C40.6008 1.94596 42.8689 4.25375 43.3948 7.58435C43.5274 8.41967 43.6372 9.25651 43.7225 10.0918C43.8155 10.9942 43.5411 11.8067 42.9223 12.4697C42.3034 13.1328 41.5108 13.459 40.6053 13.4285L26.408 12.9377C24.8959 12.8859 23.6719 11.7518 23.5027 10.2488L23.0362 6.10273C22.9189 5.05096 22.9326 4.17906 21.8701 4.17906C20.8092 4.17906 20.823 5.04792 20.7041 6.10273L20.2391 10.2488C20.07 11.7518 18.8459 12.8859 17.3338 12.9377L3.13496 13.43C2.22953 13.4605 1.43537 13.1328 0.8165 12.4697C0.197633 11.8067 -0.0752167 10.9942 0.0177656 10.0918C0.103127 9.25804 0.212876 8.42119 0.343966 7.58435C0.871374 4.25528 3.13953 1.94596 6.47623 1.45361ZM43.7225 19.451C43.6372 20.2864 43.5274 21.1232 43.3948 21.9585C42.8704 25.2891 40.6008 27.5969 37.2641 28.0893C27.0009 29.6044 16.7378 29.6044 6.47623 28.0893C3.13953 27.5969 0.871374 25.2891 0.343966 21.9585C0.212876 21.1232 0.103127 20.2864 0.0177656 19.451C-0.0752167 18.5471 0.197633 17.7347 0.8165 17.0731C1.43689 16.4101 2.22953 16.0808 3.13649 16.1128L17.3338 16.6052C18.8459 16.657 20.07 17.7911 20.2391 19.294L20.7041 23.4401C20.8214 24.495 20.8092 25.3638 21.8701 25.3638C22.9326 25.3638 22.9189 24.4934 23.0362 23.4401L23.5027 19.294C23.6719 17.7911 24.8959 16.657 26.408 16.6052L40.6038 16.1143C41.5108 16.0823 42.3034 16.4101 42.9223 17.0731C43.5411 17.7362 43.8155 18.5487 43.7225 19.451Z" fill="#D11434"/>
    </svg>
    