<?xml version="1.0" encoding="utf-8"?>
<!-- Generator: Adobe Illustrator 27.9.0, SVG Export Plug-In . SVG Version: 6.00 Build 0)  -->
<svg version="1.1" id="Layer_1" xmlns="http://www.w3.org/2000/svg" xmlns:xlink="http://www.w3.org/1999/xlink" x="0px" y="0px"
	 viewBox="0 0 180 30" style="enable-background:new 0 0 180 30;" xml:space="preserve">
<style type="text/css">
	.st0{fill:#FFFFFF;}
	.st1{fill-rule:evenodd;clip-rule:evenodd;fill:#D11434;}
</style>
<path class="st0" d="M69.3,20.1c-0.2,0.4-0.6,0.6-1.1,0.6c-0.5,0-0.9-0.2-1.1-0.6L59,6.1c-0.2-0.4-0.3-0.7-1-0.7h-3.4
	c-0.1,0-0.3,0.1-0.3,0.2c-0.1,0.1-0.1,0.3,0,0.4l9.6,16.7c0.6,1,1.6,1.6,2.7,1.6h3.2c1.1,0,2.1-0.6,2.7-1.6l9.6-16.7
	c0.1-0.1,0.1-0.3,0-0.4c-0.1-0.1-0.2-0.2-0.3-0.2h-3.4c-0.7,0-0.8,0.3-1,0.7L69.3,20.1z M85.7,5.7v18.1c0,0.2,0.2,0.4,0.4,0.4h3.3
	c0.2,0,0.4-0.2,0.4-0.4V5.7c0-0.2-0.2-0.4-0.4-0.4H86C85.8,5.4,85.7,5.5,85.7,5.7z M108.3,20.1c-0.2,0.4-0.6,0.6-1.1,0.6
	c-0.5,0-0.9-0.2-1.1-0.6L98,6.1c-0.2-0.4-0.3-0.7-1-0.7h-3.4c-0.1,0-0.3,0.1-0.3,0.2c-0.1,0.1-0.1,0.3,0,0.4l9.6,16.7
	c0.6,1,1.6,1.6,2.7,1.6h3.2c1.1,0,2.1-0.6,2.7-1.6l9.6-16.7c0.1-0.1,0.1-0.3,0-0.4c-0.1-0.1-0.2-0.2-0.3-0.2h-3.4
	c-0.7,0-0.8,0.4-1,0.7L108.3,20.1z M148.5,13c0.2,0,0.4,0.2,0.4,0.4v2.7c0,0.2-0.2,0.4-0.4,0.4c-6.3,0-10.6,0-16.9,0
	c-0.2,0-0.4-0.2-0.4-0.4v-2.7c0-0.2,0.2-0.4,0.4-0.4C137.9,13,142.2,13,148.5,13z M148.5,20.7h-19.1c-1.3,0-2.4-1.1-2.4-2.4v-7
	c0-1.3,1.1-2.4,2.4-2.4h19.1c0.2,0,0.4-0.2,0.4-0.4V5.7c0-0.2-0.2-0.4-0.4-0.4h-19.9c-3.1,0-5.6,2.5-5.6,5.6v7.7
	c0,3,2.5,5.6,5.6,5.6h19.9c0.2,0,0.4-0.2,0.4-0.4v-2.7C148.9,20.9,148.7,20.7,148.5,20.7z M159.5,15.2l-7.4,8.3
	c-0.1,0.1-0.1,0.3-0.1,0.4c0,0.1,0.2,0.2,0.4,0.2h4.1c0.5,0,0.6-0.2,0.9-0.4l5.9-6.6c0.4-0.4,0.9-0.7,1.4-0.7h2.7
	c0.6,0,1.1,0.2,1.4,0.7l5.9,6.6c0.2,0.3,0.4,0.5,0.9,0.5h4.1c0.2,0,0.3-0.1,0.4-0.2c0.1-0.1,0-0.3-0.1-0.4l-7.4-8.3
	c-0.2-0.2-0.2-0.7,0-0.9l7.4-8.3c0.1-0.1,0.1-0.3,0.1-0.4c0-0.1-0.2-0.2-0.4-0.2h-4.1c-0.5,0-0.6,0.2-0.9,0.5l-5.9,6.6
	c-0.4,0.4-0.9,0.7-1.4,0.7h-2.7c-0.6,0-1.1-0.2-1.4-0.7l-5.9-6.6c-0.2-0.3-0.4-0.4-0.9-0.4h-4.1c-0.1,0-0.3,0.1-0.4,0.2
	c0,0.1,0,0.3,0.1,0.4l7.4,8.3C159.7,14.5,159.7,15,159.5,15.2z"/>
<path class="st1" d="M6.5,1.5c10.3-1.5,20.5-1.5,30.8,0c3.3,0.5,5.6,2.8,6.1,6.1c0.1,0.8,0.2,1.7,0.3,2.5c0.1,0.9-0.2,1.7-0.8,2.4
	c-0.6,0.7-1.4,1-2.3,1l-14.2-0.5c-1.5-0.1-2.7-1.2-2.9-2.7L23,6.1c-0.1-1.1-0.1-1.9-1.2-1.9c-1.1,0-1,0.9-1.2,1.9l-0.5,4.1
	c-0.2,1.5-1.4,2.6-2.9,2.7L3.1,13.4c-0.9,0-1.7-0.3-2.3-1C0.2,11.8-0.1,11,0,10.1c0.1-0.8,0.2-1.7,0.3-2.5C0.9,4.3,3.1,1.9,6.5,1.5z
	 M43.7,19.5c-0.1,0.8-0.2,1.7-0.3,2.5c-0.5,3.3-2.8,5.6-6.1,6.1c-10.3,1.5-20.5,1.5-30.8,0c-3.3-0.5-5.6-2.8-6.1-6.1
	c-0.1-0.8-0.2-1.7-0.3-2.5c-0.1-0.9,0.2-1.7,0.8-2.4c0.6-0.7,1.4-1,2.3-1l14.2,0.5c1.5,0.1,2.7,1.2,2.9,2.7l0.5,4.1
	c0.1,1.1,0.1,1.9,1.2,1.9c1.1,0,1-0.9,1.2-1.9l0.5-4.1c0.2-1.5,1.4-2.6,2.9-2.7l14.2-0.5c0.9,0,1.7,0.3,2.3,1
	C43.5,17.7,43.8,18.5,43.7,19.5z"/>
</svg>
