<svg width="16" height="16" viewBox="0 0 16 16" fill="none" xmlns="http://www.w3.org/2000/svg">
<g clip-path="url(#clip0_110_982)">
<path d="M8.37731 16H5.81265L7.14598 10.6667H4.39065C4.12436 10.6666 3.8618 10.6042 3.62393 10.4845C3.38606 10.3648 3.17949 10.1911 3.02072 9.97734C2.86194 9.76357 2.75537 9.51563 2.70952 9.25332C2.66367 8.99102 2.67981 8.72162 2.75665 8.46667L5.31731 0H11.6286L9.62865 5.33333H12.3106C12.6158 5.33353 12.9152 5.4164 13.177 5.57315C13.4388 5.72989 13.6533 5.95465 13.7975 6.22353C13.9418 6.4924 14.0106 6.79535 13.9964 7.10017C13.9823 7.40499 13.8858 7.70029 13.7173 7.95467L8.37731 16ZM7.52065 14.6667H7.66198L12.606 7.21733C12.6414 7.16391 12.6617 7.10189 12.6647 7.03786C12.6677 6.97383 12.6532 6.91019 12.6229 6.85371C12.5927 6.79722 12.5476 6.75 12.4926 6.71706C12.4376 6.68413 12.3747 6.66671 12.3106 6.66667H7.70465L9.70465 1.33333H6.30665L4.03265 8.85067C4.01567 8.90657 4.01203 8.96567 4.02201 9.02323C4.03199 9.08079 4.05532 9.13521 4.09012 9.18214C4.12493 9.22906 4.17024 9.26718 4.22242 9.29343C4.27461 9.31969 4.33223 9.33335 4.39065 9.33333H8.85731L7.52065 14.6667Z" fill="black"/>
</g>
<defs>
<clipPath id="clip0_110_982">
<rect width="16" height="16" fill="white"/>
</clipPath>
</defs>
</svg>
