<svg width="16" height="16" viewBox="0 0 16 16" fill="none" xmlns="http://www.w3.org/2000/svg">
<path d="M7.33335 2.33333C7.33335 3.62 6.28669 4.66667 5.00002 4.66667C3.71335 4.66667 2.66669 3.62 2.66669 2.33333C2.66669 1.04667 3.71335 0 5.00002 0C6.28669 0 7.33335 1.04667 7.33335 2.33333ZM11 4.66667C12.2867 4.66667 13.3334 3.62 13.3334 2.33333C13.3334 1.04667 12.2867 0 11 0C9.71335 0 8.66669 1.04667 8.66669 2.33333C8.66669 3.62 9.71335 4.66667 11 4.66667ZM11 5.33333C9.71335 5.33333 8.66669 6.38 8.66669 7.66667C8.66669 8.95333 9.71335 10 11 10C12.2867 10 13.3334 8.95333 13.3334 7.66667C13.3334 6.38 12.2867 5.33333 11 5.33333ZM7.33335 13C7.33335 14.2867 6.28669 15.3333 5.00002 15.3333C3.71335 15.3333 2.66669 14.2867 2.66669 13C2.66669 11.7133 3.71335 10.6667 5.00002 10.6667C6.28669 10.6667 7.33335 11.7133 7.33335 13ZM6.00002 13C6.00002 12.4487 5.55135 12 5.00002 12C4.44869 12 4.00002 12.4487 4.00002 13C4.00002 13.5513 4.44869 14 5.00002 14C5.55135 14 6.00002 13.5513 6.00002 13ZM7.33335 7.66667C7.33335 8.95333 6.28669 10 5.00002 10C3.71335 10 2.66669 8.95333 2.66669 7.66667C2.66669 6.38 3.71335 5.33333 5.00002 5.33333C6.28669 5.33333 7.33335 6.38 7.33335 7.66667ZM6.00002 7.66667C6.00002 7.11533 5.55135 6.66667 5.00002 6.66667C4.44869 6.66667 4.00002 7.11533 4.00002 7.66667C4.00002 8.218 4.44869 8.66667 5.00002 8.66667C5.55135 8.66667 6.00002 8.218 6.00002 7.66667ZM13.3334 13C13.3334 14.2867 12.2867 15.3333 11 15.3333C9.71335 15.3333 8.66669 14.2867 8.66669 13C8.66669 11.7133 9.71335 10.6667 11 10.6667C12.2867 10.6667 13.3334 11.7133 13.3334 13ZM12 13C12 12.4487 11.5514 12 11 12C10.4487 12 10 12.4487 10 13C10 13.5513 10.4487 14 11 14C11.5514 14 12 13.5513 12 13Z" fill="black"/>
</svg>
