<svg width="16" height="16" viewBox="0 0 16 16" fill="none" xmlns="http://www.w3.org/2000/svg">
<g clip-path="url(#clip0_112_1014)">
<path d="M4.66665 8H11.3333V9.33333H4.66665V8ZM4.66665 12H9.33331V10.6667H4.66665V12ZM14.6666 5.05733V16H1.33331V2C1.33331 1.46957 1.54403 0.960859 1.9191 0.585786C2.29417 0.210714 2.80288 0 3.33331 0L9.60931 0L14.6666 5.05733ZM9.99998 4.66667H12.3906L9.99998 2.276V4.66667ZM13.3333 14.6667V6H8.66665V1.33333H3.33331C3.1565 1.33333 2.98693 1.40357 2.86191 1.5286C2.73688 1.65362 2.66665 1.82319 2.66665 2V14.6667H13.3333Z" fill="black"/>
</g>
<defs>
<clipPath id="clip0_112_1014">
<rect width="16" height="16" fill="white"/>
</clipPath>
</defs>
</svg>
