<svg width="16" height="16" viewBox="0 0 16 16" fill="none" xmlns="http://www.w3.org/2000/svg">
<g clip-path="url(#clip0_8_142)">
<path d="M8 0C3.58867 0 0 3.58867 0 8C0 12.4113 3.58867 16 8 16C12.4113 16 16 12.4113 16 8C16 3.58867 12.4113 0 8 0ZM8 14.6667C4.324 14.6667 1.33333 11.676 1.33333 8C1.33333 7.004 1.55333 6.05867 1.94667 5.20867L3.33333 6.66667H5.33333L6 7.33333V8.66667L7.33333 10V12.6667H8.66667L10.6667 8.33333L8 6.66667H6.33333L5.33333 5.66667L6.33333 4.66667L7.66667 5.33333L8.33333 4.66667L7.33333 3C7.33333 3 7.82533 2.23467 8.41067 1.34667C10.592 1.48 12.494 2.66667 13.6113 4.404L12 5.33333L12.6667 8L14.5973 8.95867C14.1313 12.182 11.35 14.6667 8 14.6667Z" fill="black"/>
</g>
<defs>
<clipPath id="clip0_8_142">
<rect width="16" height="16" fill="white"/>
</clipPath>
</defs>
</svg>
