<svg width="16" height="16" viewBox="0 0 16 16" fill="none" xmlns="http://www.w3.org/2000/svg">
<g clip-path="url(#clip0_66_1961)">
<path d="M14 0.666672H2C1.46957 0.666672 0.960859 0.877385 0.585786 1.25246C0.210714 1.62753 0 2.13624 0 2.66667L0 15.3333H16V2.66667C16 2.13624 15.7893 1.62753 15.4142 1.25246C15.0391 0.877385 14.5304 0.666672 14 0.666672ZM2 2.00001H14C14.1768 2.00001 14.3464 2.07024 14.4714 2.19527C14.5964 2.32029 14.6667 2.48986 14.6667 2.66667V3.11134L9.41467 8.36401C9.03895 8.73821 8.53028 8.94832 8 8.94832C7.46972 8.94832 6.96105 8.73821 6.58533 8.36401L1.33333 3.11134V2.66667C1.33333 2.48986 1.40357 2.32029 1.5286 2.19527C1.65362 2.07024 1.82319 2.00001 2 2.00001ZM1.33333 14V5.00001L5.64267 9.30667C6.26842 9.93084 7.11617 10.2814 8 10.2814C8.88383 10.2814 9.73158 9.93084 10.3573 9.30667L14.6667 5.00001V14H1.33333Z" fill="black"/>
</g>
<defs>
<clipPath id="clip0_66_1961">
<rect width="16" height="16" fill="white"/>
</clipPath>
</defs>
</svg>
