<svg width="16" height="16" viewBox="0 0 16 16" fill="none" xmlns="http://www.w3.org/2000/svg">
<g clip-path="url(#clip0_253_2671)">
<path d="M16 5.33333V1.33333C16 0.979711 15.8595 0.640573 15.6095 0.390524C15.3594 0.140476 15.0203 0 14.6667 0L10.6667 0V1.33333H13.724L8 7.05733L2.276 1.33333H5.33333V0H1.33333C0.979711 0 0.640573 0.140476 0.390524 0.390524C0.140476 0.640573 0 0.979711 0 1.33333L0 5.33333H1.33333V2.276L7.05733 8L1.33333 13.724V10.6667H0V14.6667C0 15.0203 0.140476 15.3594 0.390524 15.6095C0.640573 15.8595 0.979711 16 1.33333 16H5.33333V14.6667H2.276L8 8.94267L13.724 14.6667H10.6667V16H14.6667C15.0203 16 15.3594 15.8595 15.6095 15.6095C15.8595 15.3594 16 15.0203 16 14.6667V10.6667H14.6667V13.724L8.94267 8L14.6667 2.276V5.33333H16Z" fill="black"/>
</g>
<defs>
<clipPath id="clip0_253_2671">
<rect width="16" height="16" fill="white"/>
</clipPath>
</defs>
</svg>
