<svg width="16" height="16" viewBox="0 0 16 16" fill="none" xmlns="http://www.w3.org/2000/svg">
<g clip-path="url(#clip0_152_1758)">
<path d="M9.60931 0H3.33331C2.23065 0 1.33331 0.897333 1.33331 2V16H14.6666V5.05733L9.60931 0ZM9.99998 2.276L12.3906 4.66667H9.99998V2.276ZM13.3333 14.6667H2.66665V2C2.66665 1.63267 2.96531 1.33333 3.33331 1.33333H8.66665V6H13.3333V14.6667ZM8.66665 11.338L10.194 9.80333L11.1366 10.746L8.93731 12.9453C8.67865 13.204 8.33931 13.3327 7.99998 13.3327C7.66065 13.3327 7.32065 13.204 7.06265 12.9453L4.86331 10.746L5.80598 9.80333L7.33331 11.3307V7.33267H8.66665V11.338Z" fill="black"/>
</g>
<defs>
<clipPath id="clip0_152_1758">
<rect width="16" height="16" fill="white"/>
</clipPath>
</defs>
</svg>
