<svg width="16" height="16" viewBox="0 0 16 16" fill="none" xmlns="http://www.w3.org/2000/svg">
<path d="M14 16H2C1.46957 16 0.960859 15.7893 0.585786 15.4142C0.210714 15.0391 0 14.5304 0 14V7.99999H5.33333V9.33332C5.33333 9.68695 5.47381 10.0261 5.72386 10.2761C5.97391 10.5262 6.31305 10.6667 6.66667 10.6667H9.33333C9.68696 10.6667 10.0261 10.5262 10.2761 10.2761C10.5262 10.0261 10.6667 9.68695 10.6667 9.33332V7.99999H16V14C16 14.5304 15.7893 15.0391 15.4142 15.4142C15.0391 15.7893 14.5304 16 14 16ZM1.33333 9.33332V14C1.33333 14.1768 1.40357 14.3464 1.5286 14.4714C1.65362 14.5964 1.82319 14.6667 2 14.6667H14C14.1768 14.6667 14.3464 14.5964 14.4714 14.4714C14.5964 14.3464 14.6667 14.1768 14.6667 14V9.33332H12C12 10.0406 11.719 10.7188 11.219 11.2189C10.7189 11.719 10.0406 12 9.33333 12H6.66667C5.95942 12 5.28115 11.719 4.78105 11.2189C4.28095 10.7188 4 10.0406 4 9.33332H1.33333Z" fill="black"/>
<path d="M14.6667 5.33332H1.33333V6.66666H14.6667V5.33332Z" fill="black"/>
<path d="M14.6667 2.66666H1.33333V3.99999H14.6667V2.66666Z" fill="black"/>
</svg>
