<svg width="16" height="16" viewBox="0 0 16 16" fill="none" xmlns="http://www.w3.org/2000/svg">
<path d="M4.37732 3.04614C4.37732 3.91838 3.62128 4.62548 2.68866 4.62548C1.75604 4.62548 1 3.91838 1 3.04614C1 2.17388 1.75604 1.4668 2.68866 1.4668C3.62128 1.4668 4.37732 2.17388 4.37732 3.04614Z" fill="#D2D2D2"/>
<path d="M1.23096 5.78647H4.11754V14.5335H1.23096V5.78647Z" fill="#D2D2D2"/>
<path d="M8.76483 5.78647H5.87823V14.5336H8.76483C8.76483 14.5336 8.76483 11.7799 8.76483 10.0581C8.76483 9.02473 9.1177 7.98673 10.5256 7.98673C12.1168 7.98673 12.1072 9.33913 12.0998 10.3869C12.0901 11.7564 12.1133 13.154 12.1133 14.5336H14.9999V9.91706C14.9754 6.96926 14.2073 5.61099 11.6803 5.61099C10.1796 5.61099 9.24937 6.29229 8.76483 6.90873V5.78647Z" fill="#D2D2D2"/>
</svg>
