<svg width="16" height="16" viewBox="0 0 16 16" fill="none" xmlns="http://www.w3.org/2000/svg">
<g clip-path="url(#clip0_58_750)">
<path d="M16 2.66667H4.66669V4.00001H16V2.66667Z" fill="black"/>
<path d="M16 7.33333H4.66669V8.66666H16V7.33333Z" fill="black"/>
<path d="M16 12H4.66669V13.3333H16V12Z" fill="black"/>
<path d="M1.33333 4.66667C2.06971 4.66667 2.66667 4.06971 2.66667 3.33333C2.66667 2.59695 2.06971 2 1.33333 2C0.596954 2 0 2.59695 0 3.33333C0 4.06971 0.596954 4.66667 1.33333 4.66667Z" fill="black"/>
<path d="M1.33333 9.33334C2.06971 9.33334 2.66667 8.73638 2.66667 8.00001C2.66667 7.26363 2.06971 6.66667 1.33333 6.66667C0.596954 6.66667 0 7.26363 0 8.00001C0 8.73638 0.596954 9.33334 1.33333 9.33334Z" fill="black"/>
<path d="M1.33333 14C2.06971 14 2.66667 13.403 2.66667 12.6667C2.66667 11.9303 2.06971 11.3333 1.33333 11.3333C0.596954 11.3333 0 11.9303 0 12.6667C0 13.403 0.596954 14 1.33333 14Z" fill="black"/>
</g>
<defs>
<clipPath id="clip0_58_750">
<rect width="16" height="16" fill="white"/>
</clipPath>
</defs>
</svg>
