<svg width="202" height="84" viewBox="0 0 202 84" fill="none" xmlns="http://www.w3.org/2000/svg">
<path d="M8.29783 46.3449C4.25141 46.3366 1 45.8838 1 41.8473C1 37.8109 4.25141 37.3591 8.29783 37.3497C8.42736 37.3497 8.53906 37.3497 8.66859 37.3441L83.3505 34.7767C89.2235 34.5755 93.9823 30.2037 94.6384 24.4065L96.4481 8.41714C96.9062 4.34991 96.8527 1 100.979 1C105.104 1 105.052 4.36109 105.511 8.41807L107.32 24.4075C107.976 30.2046 112.734 34.5765 118.608 34.7777L193.331 37.3451C193.461 37.3507 193.573 37.3507 193.702 37.3507C197.745 37.3591 201 37.8118 201 41.8483C201 45.8838 197.749 46.3366 193.702 46.3459C193.573 46.3459 193.461 46.3459 193.331 46.3515L118.608 48.9189C112.735 49.1201 107.977 53.4919 107.32 59.2891L105.511 75.2813C105.054 79.3438 105.104 82.6993 100.979 82.6993C96.8536 82.6993 96.9034 79.3494 96.4472 75.2813L94.6375 59.2881C93.9814 53.491 89.2235 49.1192 83.3496 48.9179L8.66859 46.3505C8.53906 46.3449 8.42642 46.3449 8.29783 46.3449Z" stroke="#E88999" stroke-width="2" stroke-miterlimit="10" stroke-linecap="round" stroke-linejoin="round"/>
</svg>
