<svg width="1202" height="496" viewBox="0 0 1202 496" fill="none" xmlns="http://www.w3.org/2000/svg">
<path d="M44.787 274.811C20.5084 274.76 1 272.026 1 247.653C1 223.279 20.5084 220.551 44.787 220.494C45.5642 220.494 46.2344 220.494 47.0115 220.461L495.103 204.958C530.341 203.742 558.894 177.344 562.831 142.338L573.689 45.7876C576.437 21.2281 576.116 1 600.873 1C625.625 1 625.309 21.2956 628.063 45.7933L638.921 142.344C642.858 177.349 671.406 203.748 706.649 204.963L1154.99 220.466C1155.77 220.5 1156.44 220.5 1157.21 220.5C1181.47 220.551 1201 223.284 1201 247.658C1201 272.026 1181.49 274.76 1157.21 274.817C1156.44 274.817 1155.77 274.817 1154.99 274.85L706.649 290.353C671.411 291.568 642.864 317.967 638.921 352.973L628.063 449.54C625.326 474.071 625.625 494.333 600.873 494.333C576.122 494.333 576.42 474.105 573.683 449.54L562.825 352.967C558.888 317.962 530.341 291.563 495.097 290.348L47.0115 274.845C46.2344 274.811 45.5585 274.811 44.787 274.811Z" stroke="#E88999" stroke-width="2" stroke-miterlimit="10" stroke-linecap="round" stroke-linejoin="round"/>
</svg>
