<svg width="180" height="180" viewBox="0 0 180 180" fill="none" xmlns="http://www.w3.org/2000/svg">
    <g clip-path="url(#clip0_734_2171)">
    <path fill-rule="evenodd" clip-rule="evenodd" d="M26.6542 36.1729C68.8865 29.9424 111.119 29.9424 153.351 36.1729C167.081 38.1986 176.418 47.7 178.584 61.4107C179.127 64.8482 179.574 68.2902 179.929 71.7277C180.311 75.4415 179.184 78.7869 176.637 81.5141C174.09 84.2458 170.829 85.5918 167.098 85.4647L108.677 83.4434C102.457 83.2285 97.4155 78.5633 96.7229 72.3766L94.8028 55.3073C94.3162 50.9797 94.3732 47.3931 90.0071 47.3931C85.6365 47.3931 85.6935 50.9666 85.2069 55.3073L83.2913 72.3766C82.5943 78.5633 77.553 83.2285 71.3326 83.4434L12.907 85.4647C9.17645 85.5918 5.91061 84.2458 3.36808 81.5185C0.816776 78.7913 -0.309829 75.4415 0.0759343 71.7277C0.426628 68.2945 0.878147 64.8482 1.42172 61.4107C3.58726 47.7044 12.9245 38.1986 26.6542 36.1729ZM179.929 110.251C179.574 113.688 179.123 117.135 178.584 120.572C176.418 134.283 167.081 143.78 153.351 145.806C111.119 152.041 68.8865 152.041 26.6542 145.806C12.9245 143.78 3.58726 134.283 1.42172 120.572C0.878147 117.13 0.426628 113.688 0.0759343 110.251C-0.309829 106.533 0.821159 103.187 3.36808 100.46C5.91499 97.7328 9.18083 96.3823 12.9113 96.5139L71.3326 98.5352C77.553 98.75 82.5943 103.415 83.2913 109.602L85.2069 126.671C85.6891 131.016 85.6365 134.59 90.0071 134.59C94.3732 134.59 94.3206 131.008 94.8028 126.671L96.7229 109.602C97.4155 103.415 102.457 98.75 108.677 98.5352L167.094 96.5139C170.825 96.3823 174.09 97.7328 176.637 100.464C179.184 103.192 180.311 106.541 179.929 110.251Z" fill="#D2D2D2"/>
    </g>
    <defs>
    <clipPath id="clip0_734_2171">
    <rect width="180" height="180" fill="white"/>
    </clipPath>
    </defs>
    </svg>
    