<svg width="322" height="133" viewBox="0 0 322 133" fill="none" xmlns="http://www.w3.org/2000/svg">
<path d="M12.6765 73.5519C6.20225 73.5385 1 72.8141 1 66.3558C1 59.8974 6.20225 59.1745 12.6765 59.1596C12.8838 59.1596 13.0625 59.1596 13.2697 59.1506L132.761 55.0428C142.158 54.7209 149.772 47.7259 150.822 38.4505L153.717 12.8674C154.45 6.35986 154.364 1 160.966 1C167.567 1 167.483 6.37775 168.217 12.8689L171.112 38.452C172.162 47.7274 179.775 54.7223 189.173 55.0443L308.73 59.1521C308.938 59.1611 309.116 59.1611 309.323 59.1611C315.792 59.1745 321 59.8989 321 66.3572C321 72.8141 315.798 73.5385 309.323 73.5534C309.116 73.5534 308.938 73.5534 308.73 73.5623L189.173 77.6702C179.776 77.9921 172.164 84.9871 171.112 94.2625L168.217 119.85C167.487 126.35 167.567 131.719 160.966 131.719C154.366 131.719 154.445 126.359 153.715 119.85L150.82 94.261C149.77 84.9856 142.158 77.9906 132.759 77.6687L13.2697 73.5609C13.0625 73.5519 12.8823 73.5519 12.6765 73.5519Z" stroke="#E88999" stroke-width="2" stroke-miterlimit="10" stroke-linecap="round" stroke-linejoin="round"/>
</svg>
