<svg width="522" height="216" viewBox="0 0 522 216" fill="none" xmlns="http://www.w3.org/2000/svg">
<path d="M19.9744 119.405C9.45366 119.383 1 118.201 1 107.661C1 97.1205 9.45366 95.9408 19.9744 95.9164C20.3111 95.9164 20.6016 95.9164 20.9383 95.9018L215.111 89.1978C230.381 88.6724 242.754 77.2567 244.46 62.1192L249.165 20.3676C250.356 9.7473 250.217 1 260.945 1C271.671 1 271.534 9.77649 272.727 20.3701L277.433 62.1216C279.139 77.2591 291.509 88.6749 306.781 89.2003L501.062 95.9043C501.398 95.9189 501.689 95.9189 502.026 95.9189C512.537 95.9408 521 97.123 521 107.663C521 118.201 512.546 119.383 502.026 119.407C501.689 119.407 501.398 119.407 501.062 119.422L306.781 126.126C291.511 126.651 279.141 138.067 277.433 153.204L272.727 194.963C271.541 205.571 271.671 214.333 260.945 214.333C250.219 214.333 250.349 205.586 249.163 194.963L244.458 153.202C242.752 138.064 230.381 126.649 215.109 126.123L20.9383 119.419C20.6016 119.405 20.3087 119.405 19.9744 119.405Z" stroke="#E88999" stroke-width="2" stroke-miterlimit="10" stroke-linecap="round" stroke-linejoin="round"/>
</svg>
