<svg width="80" height="80" viewBox="0 0 80 80" fill="none" xmlns="http://www.w3.org/2000/svg">
    <path d="M47.1587 49.0828V74.4402C47.1587 76.4704 45.5266 78.2352 43.3637 78.2352H5.42707C3.39688 78.2352 1.63208 76.6031 1.63208 74.4402V49.0828C1.63208 47.0526 3.26419 45.2878 5.42707 45.2878H43.3637C45.5266 45.2878 47.1587 46.9199 47.1587 49.0828Z" fill="white"/>
    <path d="M78.2352 5.42713V30.7846C78.2352 32.8148 76.6164 34.5928 74.4402 34.5928H36.6496C34.6061 34.5928 32.8413 32.9607 32.8413 30.7846V5.42713C32.8413 3.39694 34.4734 1.63214 36.6496 1.63214H74.5729C76.6164 1.63214 78.2352 3.26425 78.2352 5.42713Z" fill="#D2D2D2"/>
    <path d="M76.4702 55.3591H79.8671V51.9622H76.4702V55.3591Z" fill="#1E1E1E"/>
    <path d="M73.5378 65.5499H76.9348V62.153H73.5378V65.5499Z" fill="#1E1E1E"/>
    <path d="M64.5149 55.3591H74.7056V51.9622H64.5149V55.3591Z" fill="#1E1E1E"/>
    <path d="M53.9526 65.5499H71.7732V62.153H53.9526V65.5499Z" fill="#1E1E1E"/>
    <path d="M63.2144 74.1085H66.6113V70.7115H63.2144V74.1085Z" fill="#1E1E1E"/>
    <path d="M53.9526 74.1085H61.5824V70.7115H53.9526V74.1085Z" fill="#1E1E1E"/>
    <path d="M19.6914 27.8387H27.3212V24.4418H19.6914V27.8387Z" fill="#1E1E1E"/>
    <path d="M9.51392 19.4128H27.3212V16.0159H9.51392V19.4128Z" fill="#1E1E1E"/>
    <path d="M14.5298 27.8387H17.9267V24.4418H14.5298V27.8387Z" fill="#1E1E1E"/>
    <path d="M5.16162 9.22211H15.3524V5.8252H5.16162V9.22211Z" fill="#1E1E1E"/>
    <path d="M4.48486 19.4128H7.88178V16.0159H4.48486V19.4128Z" fill="#1E1E1E"/>
    <path d="M0.132568 9.22211H3.52948V5.8252H0.132568V9.22211Z" fill="#1E1E1E"/>
    <path d="M36.6496 3.39691C35.5615 3.39691 34.6061 4.3523 34.6061 5.4271V30.7845C34.6061 31.8726 35.5615 32.8147 36.6496 32.8147H74.573C75.661 32.8147 76.6164 31.8726 76.6164 30.7845V5.4271C76.6164 4.3523 75.661 3.39691 74.573 3.39691H36.6496ZM74.573 36.2116H36.6496C33.6508 36.2116 31.2092 33.7701 31.2092 30.7845V5.4271C31.2092 2.44153 33.6508 0 36.6496 0H74.573C77.5585 0 80.0001 2.44153 80.0001 5.4271V30.7845C80.0001 33.7701 77.5585 36.2116 74.573 36.2116Z" fill="#1E1E1E"/>
    <path d="M55.5449 22.1198C55.1335 22.1198 54.8682 21.9738 54.4568 21.7084L40.4578 10.7083C39.7811 10.1642 39.6484 9.07615 40.1924 8.26673C40.7365 7.57673 41.8245 7.44404 42.634 7.98808L55.5449 18.1788L68.4425 7.98808C69.1193 7.44404 70.2073 7.57673 70.8841 8.26673C71.4281 8.94346 71.2954 10.0315 70.6187 10.7083L56.633 21.7084C56.3543 21.9738 55.943 22.1198 55.5449 22.1198Z" fill="#1E1E1E"/>
    <path d="M43.7219 28.3696C43.3106 28.3696 42.9125 28.2236 42.6338 27.9582C41.9571 27.4142 41.8244 26.3261 42.3684 25.5167L50.1044 16.268C50.6484 15.5913 51.7365 15.4586 52.5592 16.0027C53.2359 16.5467 53.3686 17.6348 52.8246 18.4442L45.0886 27.6796C44.6773 28.0909 44.2659 28.3696 43.7219 28.3696Z" fill="#1E1E1E"/>
    <path d="M67.3544 28.3695C66.8104 28.3695 66.4123 28.0909 66.001 27.8255L58.265 18.5901C57.721 17.9001 57.721 16.8121 58.5304 16.1353C59.2071 15.5913 60.2952 15.5913 60.9719 16.414L68.7211 25.6494C69.2652 26.3261 69.2652 27.4142 68.4425 28.0909C68.1771 28.2236 67.7658 28.3695 67.3544 28.3695Z" fill="#1E1E1E"/>
    <path d="M5.4271 47.0526C4.3523 47.0526 3.39692 47.9947 3.39692 49.0827V74.4402C3.39692 75.515 4.3523 76.4704 5.4271 76.4704H43.3637C44.4518 76.4704 45.3939 75.515 45.3939 74.4402V49.0827C45.3939 47.9947 44.4518 47.0526 43.3637 47.0526H5.4271ZM43.4964 79.8673H5.4271C2.44153 79.8673 0 77.4258 0 74.4402V49.0827C0 46.0972 2.44153 43.6556 5.4271 43.6556H43.3637C46.3493 43.6556 48.7908 46.0972 48.7908 49.0827V74.4402C48.9235 77.4258 46.482 79.8673 43.4964 79.8673Z" fill="#1E1E1E"/>
    <path d="M24.4685 65.7621C24.0571 65.7621 23.7917 65.6294 23.3804 65.3641L9.38139 54.3506C8.70466 53.8199 8.57197 52.7318 9.116 51.9091C9.66004 51.2324 10.7481 51.0997 11.5575 51.6437L24.4685 61.8345L37.3661 51.6437C38.0429 51.0997 39.1309 51.2324 39.8077 51.9091C40.3517 52.5991 40.219 53.6739 39.5423 54.3506L25.5565 65.3641C25.1452 65.6294 24.8665 65.7621 24.4685 65.7621Z" fill="#1E1E1E"/>
    <path d="M12.6455 72.012C12.2341 72.012 11.8361 71.8793 11.5574 71.6139C10.8807 71.0699 10.748 69.9818 11.292 69.1591L19.028 59.9237C19.572 59.247 20.6601 59.1143 21.4828 59.6584C22.1595 60.2024 22.2922 61.2905 21.7482 62.0999L13.9989 71.3353C13.6009 71.8793 13.0568 72.012 12.6455 72.012Z" fill="#1E1E1E"/>
    <path d="M36.2779 72.012C35.7338 72.012 35.3357 71.7466 34.9244 71.4679L27.1752 62.2326C26.6312 61.5558 26.6312 60.4677 27.4538 59.791C28.1306 59.247 29.2186 59.247 29.8954 60.0564L37.6446 69.305C38.1886 69.9818 38.1886 71.0698 37.3659 71.7466C37.1006 71.8793 36.6892 72.012 36.2779 72.012Z" fill="#1E1E1E"/>
    </svg>
    