<svg width="81" height="80" viewBox="0 0 81 80" fill="none" xmlns="http://www.w3.org/2000/svg">
<g clip-path="url(#clip0_333_1132)">
<path d="M75.3189 58.3917C76.655 58.3917 77.8591 59.4639 77.8591 60.9319C77.8591 62.268 76.7869 63.4556 75.3189 63.4556C73.8508 63.4556 72.7952 62.4 72.7952 60.9319C72.9271 59.4639 73.9828 58.3917 75.3189 58.3917Z" fill="white"/>
<path d="M10.3951 3.33191C12.6549 3.33191 14.5353 5.19583 14.5353 7.47212C14.5353 9.73191 12.6549 11.5958 10.3951 11.5958C8.13529 11.5958 6.25488 9.73191 6.25488 7.47212C6.25488 5.19583 8.00334 3.33191 10.3951 3.33191Z" fill="white"/>
<path d="M6.25493 65.0557C8.13534 65.0557 9.60338 66.5237 9.60338 68.3876C9.60338 70.268 8.13534 71.7196 6.25493 71.7196C4.39101 71.7196 2.92297 70.268 2.92297 68.3876C2.92297 66.5237 4.39101 65.0557 6.25493 65.0557Z" fill="white"/>
<path d="M16.2673 78.3999V65.5999C16.2673 62.3999 18.791 59.8597 21.991 59.8597C24.2673 59.8597 27.0549 59.8597 29.5951 59.8597L36.259 68.3876L42.1312 64.1319L47.8549 68.3876L54.5188 59.8597C55.8549 59.8597 59.0549 59.8597 60.5229 59.8597C63.7229 59.8597 66.2631 62.3999 66.2631 65.5999V78.3999C62.7992 78.3999 18.1312 78.3999 16.2673 78.3999Z" fill="white"/>
<path d="M52.1271 56.6598L54.5189 59.8598L47.8549 68.3876L42.1312 64L52.1271 56.6598Z" fill="white"/>
<path d="M42.1312 64L36.259 68.3876L29.5951 59.8598L31.8549 56.6598L42.1312 64Z" fill="white"/>
<path d="M74.923 35.3319V37.7237L65.5869 39.0598C65.323 40.7917 64.9271 42.5237 64.2508 44.1237L71.591 49.9958L69.1828 54.268L60.391 50.7876C59.3188 52.1237 57.9993 53.4598 56.6632 54.5319L58.791 59.8598H54.5188L52.1271 56.6598L42.1312 64L31.8549 56.6598L29.4632 59.8598H23.591L25.7353 54.5319C24.3993 53.4598 23.0632 52.1237 21.991 50.7876L13.1993 54.268L10.791 50.1278L18.1312 44.2556C17.4549 42.6556 17.059 40.9237 16.7951 39.1917L7.45905 37.8556V33.0556L16.7951 31.6041C17.059 29.8721 17.6034 28.1237 18.1312 26.5237L10.791 20.668L13.1993 16.5278L21.991 19.9917C23.0632 18.6721 24.3993 17.3361 25.7353 16.2639L22.2549 7.47214L26.3951 5.06389L32.2673 12.4041C33.8673 11.7278 35.5993 11.3319 37.3312 11.068L38.7993 1.73193H43.5993L44.9188 11.068C46.6673 11.3319 48.3993 11.8598 49.9993 12.4041L55.8549 5.06389L59.9951 7.47214L56.5312 16.2639C57.8508 17.3361 59.1869 18.6721 60.259 19.9917L69.0508 16.5278L71.459 20.668L64.1188 26.5237C64.7951 28.1237 65.191 29.8721 65.4549 31.6041L74.791 33.0556L74.923 35.3319Z" fill="#D2D2D2"/>
<path d="M52.7869 33.2041V43.4639C52.7869 46.268 51.5992 48.9237 49.7188 50.7876C47.8549 52.668 45.3312 53.8556 42.3951 53.8556C36.6549 53.8556 32.1353 49.1876 32.1353 43.5959V33.3361H52.7869V33.2041Z" fill="white"/>
<path d="M52.7869 31.4557V33.2041H30.6673C26.923 33.2041 23.9869 30.268 23.9869 26.5237V24.9237H46.2549C49.8508 25.0722 52.7869 27.8598 52.7869 31.4557Z" fill="white"/>
<path d="M58.791 61.4598C58.1312 61.4598 57.4549 61.0639 57.191 60.3876L55.0631 55.0598C54.7992 54.4 55.0631 53.5918 55.591 53.1959C56.9271 52.1237 57.9992 51.068 59.0549 49.732C59.4508 49.1876 60.259 48.9237 60.9188 49.1876L68.391 52.1237L69.3312 50.3918L63.0631 45.4598C62.5188 45.0639 62.2549 44.2557 62.5188 43.5959C63.0631 42.1278 63.591 40.5278 63.7229 38.9278C63.8549 38.268 64.3992 37.5918 65.059 37.5918L72.927 36.4041V34.3918L65.059 33.2041C64.3992 33.0557 63.7229 32.5278 63.7229 31.868C63.459 30.268 63.0631 28.668 62.5188 27.2C62.2549 26.5237 62.5188 25.732 63.0631 25.3361L69.3312 20.4041L68.391 18.6722L60.9188 21.5918C60.259 21.8722 59.4508 21.5918 59.0549 21.0639C57.9992 19.7278 56.7951 18.6722 55.591 17.6C55.0631 17.2041 54.7992 16.3959 55.0631 15.7361L57.9992 8.26392L56.2508 7.34021L51.3188 13.3278C50.9229 13.8722 50.1312 14.1361 49.4549 13.8722C47.9868 13.3278 46.3868 12.8 44.6549 12.5361C43.9951 12.4041 43.3188 11.8598 43.3188 11.2L42.1312 3.33196H40.1188L38.9312 11.2C38.7992 11.8598 38.2549 12.5361 37.5951 12.5361C35.9951 12.8 34.3951 13.1959 32.7951 13.8722C32.1353 14.1361 31.3271 13.8722 30.9312 13.3278L25.9992 7.05979L24.2673 8L27.1868 15.4722C27.4673 16.132 27.1868 16.9402 26.659 17.3361C25.3229 18.3918 24.2673 19.4639 23.1951 20.8C22.7992 21.3278 21.991 21.5918 21.3312 21.3278L13.859 18.3918L12.9353 20.1237L19.1868 25.0722C19.7312 25.468 19.9951 26.2598 19.7312 26.9361C19.1868 28.4041 18.659 30.0041 18.3951 31.7361C18.2631 32.3959 17.7353 33.0557 17.059 33.0557L9.19097 34.3918V36.4041L17.059 37.5918C17.7353 37.7237 18.3951 38.268 18.3951 38.9278C18.659 40.5278 19.0549 42.1278 19.7312 43.7278C19.9951 44.4041 19.7312 45.1959 19.1868 45.5918L12.9353 50.5237L13.859 52.2557L21.3312 49.3361C21.991 49.0557 22.7992 49.3361 23.1951 49.8639C24.2673 51.068 25.3229 52.2557 26.659 53.3278C27.1868 53.7237 27.4673 54.532 27.1868 55.1918L25.059 60.5361C24.6631 61.3278 23.7229 61.8557 22.9312 61.4598C22.1229 61.0639 21.5951 60.1237 21.991 59.332L23.591 55.1918C22.7992 54.532 22.1229 53.7237 21.3312 52.932L13.7271 56C12.9353 56.2639 12.1271 56 11.7312 55.3237L9.32293 51.2C8.92705 50.5237 9.05901 49.6 9.7353 49.0557L16.1353 43.9918C15.8549 43.068 15.459 41.9959 15.3271 40.9237L7.19509 39.7361C6.40334 39.6041 5.72705 38.9278 5.72705 38.1361V33.3361C5.72705 32.5278 6.40334 31.868 7.19509 31.7361L15.3271 30.532C15.591 29.4598 15.8549 28.5361 16.1353 27.4639L9.7353 22.4C9.05901 21.8722 8.92705 20.932 9.32293 20.2722L11.7312 16.132C12.1271 15.4722 13.0673 15.0598 13.7271 15.4722L21.3312 18.5237C21.991 17.732 22.7992 17.0722 23.591 16.2639L20.6549 8C20.391 7.19175 20.6549 6.4 21.3312 6.00412L25.4549 3.59588C26.1312 3.2 27.0549 3.33196 27.5992 3.99175L32.6631 10.3918C33.5868 10.1278 34.659 9.73196 35.7312 9.6L36.9188 1.46804C37.0673 0.659794 37.7271 0 38.5188 0H43.3188C44.127 0 44.7868 0.659794 44.9188 1.46804L46.1229 9.6C47.1951 9.86392 48.1188 10.1278 49.191 10.3918L54.2549 3.99175C54.7992 3.33196 55.7229 3.2 56.3992 3.59588L60.5229 6.00412C61.1992 6.4 61.5951 7.34021 61.1992 8L58.1312 15.6041C58.9229 16.2639 59.5992 17.0722 60.391 17.8639L67.9951 14.7959C68.7868 14.532 69.5951 14.7959 69.991 15.4722L72.3827 19.5959C72.7951 20.2722 72.6631 21.1959 71.9868 21.7237L65.5868 26.8041C65.8508 27.7278 66.2631 28.8 66.3951 29.8722L74.527 31.0598C75.3188 31.1918 75.9951 31.868 75.9951 32.6598V37.4598C75.9951 38.268 75.3188 38.9278 74.527 39.0598L66.3951 40.2639C66.1312 41.3361 65.8508 42.2598 65.5868 43.332L71.9868 48.3959C72.6631 48.9237 72.7951 49.8639 72.3827 50.5237L69.991 54.6639C69.5951 55.3237 68.6549 55.7361 67.9951 55.3237L60.391 52.2557C59.7312 53.0639 58.9229 53.7237 58.1312 54.532L59.7312 58.6557C60.127 59.4639 59.5992 60.5361 58.791 60.8C59.1868 61.4598 58.9229 61.4598 58.791 61.4598Z" fill="#1E1E1E"/>
<path d="M66.2632 80H16.2673C15.3271 80 14.5353 79.1917 14.5353 78.268V65.468C14.5353 61.3278 17.8673 58.1278 21.859 58.1278H29.4632C30.3869 58.1278 31.1951 58.9361 31.1951 59.8598C31.1951 60.8 30.3869 61.5917 29.4632 61.5917H21.859C19.5993 61.5917 17.8673 63.4556 17.8673 65.6V76.668H64.5312V65.6C64.5312 63.3237 62.6508 61.5917 60.523 61.5917H54.5188C53.5951 61.5917 52.7869 60.8 52.7869 59.8598C52.7869 58.9361 53.5951 58.1278 54.5188 58.1278H60.523C64.6632 58.1278 67.8632 61.4598 67.8632 65.468V78.268C67.8632 79.1917 67.0549 80 66.2632 80Z" fill="#1E1E1E"/>
<path d="M44.9188 64L47.5909 65.9959L52.5229 59.7279L51.8631 58.9361L44.9188 64ZM47.8548 69.9877C47.459 69.9877 47.195 69.8557 46.9311 69.7237L41.059 65.3196C40.6631 65.0557 40.3992 64.5279 40.3992 64C40.3992 63.4557 40.6631 62.9279 41.059 62.664L51.0548 55.3237C51.7311 54.7959 52.7868 54.9279 53.3311 55.5877L55.7229 58.7877C56.1188 59.464 56.1188 60.2557 55.7229 60.8L49.1909 69.3279C48.795 69.7237 48.3992 69.9877 47.8548 69.9877Z" fill="#1E1E1E"/>
<path d="M31.591 59.7279L36.523 65.9959L39.3271 64.0001L32.2673 58.9361L31.591 59.7279ZM36.259 69.9877C35.7312 69.9877 35.3188 69.7238 34.923 69.3279L28.259 60.8001C27.7312 60.2557 27.7312 59.332 28.259 58.7877L30.6673 55.5877C31.1951 54.9279 32.2673 54.664 32.9271 55.1918L43.0549 62.532C43.4673 62.7959 43.7312 63.3238 43.7312 63.8681C43.7312 64.3959 43.4673 64.9238 43.0549 65.1877L37.1992 69.7238C36.9188 69.8557 36.523 69.9877 36.259 69.9877Z" fill="#1E1E1E"/>
<path d="M42.5271 55.4557C35.9951 55.4557 30.5353 50.1279 30.5353 43.4639V33.2041C30.5353 32.2639 31.3271 31.4557 32.2673 31.4557C33.191 31.4557 33.9993 32.2639 33.9993 33.2041V43.4639C33.9993 48.2639 37.8591 52.1237 42.6591 52.1237C44.9188 52.1237 47.0632 51.2 48.7951 49.6C50.3951 48 51.3188 45.8557 51.3188 43.4639V33.2041C51.3188 32.2639 52.1271 31.4557 53.0508 31.4557C53.991 31.4557 54.7993 32.2639 54.7993 33.2041V43.4639C54.7993 46.6639 53.5951 49.6 51.3188 51.8598C48.6632 54.2681 45.7271 55.4557 42.5271 55.4557Z" fill="#1E1E1E"/>
<path d="M25.7353 26.6722C25.7353 29.3279 27.9951 31.6041 30.6673 31.6041H51.0549C51.0549 28.932 48.927 26.8041 46.2549 26.8041H25.7353V26.6722ZM52.7868 34.9361H30.6673C26.1312 34.9361 22.2549 31.1918 22.2549 26.5237V24.9237C22.2549 24 23.0631 23.1918 23.9868 23.1918H46.2549C50.791 23.1918 54.3868 26.9361 54.3868 31.3237V33.0557C54.5188 34.1279 53.727 34.9361 52.7868 34.9361Z" fill="#1E1E1E"/>
<path d="M5.39717 66.6557C4.47346 66.6557 3.66521 67.4639 3.66521 68.3876C3.66521 69.3279 4.47346 70.1196 5.39717 70.1196C6.33738 70.1196 7.12913 69.3279 7.12913 68.3876C6.99717 67.4639 6.20542 66.6557 5.39717 66.6557ZM5.39717 73.3196C2.59305 73.3196 0.333252 71.0598 0.333252 68.2557C0.333252 65.4681 2.59305 63.1918 5.39717 63.1918C8.20129 63.1918 10.4611 65.4681 10.4611 68.2557C10.4611 71.0598 8.06933 73.3196 5.39717 73.3196Z" fill="#1E1E1E"/>
<path d="M76.1931 59.9917C75.7972 59.9917 75.4013 60.3876 75.4013 60.8C75.4013 61.1959 75.7972 61.5917 76.1931 61.5917C76.5889 61.5917 76.9848 61.1959 76.9848 60.8C77.1333 60.3876 76.7209 59.9917 76.1931 59.9917ZM76.1931 65.0557C73.9333 65.0557 72.0529 63.1917 72.0529 60.932C72.0529 58.6557 73.9333 56.7917 76.1931 56.7917C78.4529 56.7917 80.3333 58.6557 80.3333 60.932C80.4652 63.0598 78.4529 65.0557 76.1931 65.0557Z" fill="#1E1E1E"/>
<path d="M10.3951 5.06389C9.05903 5.06389 7.85491 6.13606 7.85491 7.6041C7.85491 9.07214 8.92707 10.1278 10.3951 10.1278C11.8632 10.1278 12.9353 9.07214 12.9353 7.6041C12.9353 6.13606 11.7312 5.06389 10.3951 5.06389ZM10.3951 13.3278C7.19511 13.3278 4.52295 10.6721 4.52295 7.47214C4.52295 4.27214 7.19511 1.59998 10.3951 1.59998C13.5951 1.59998 16.2673 4.27214 16.2673 7.47214C16.2673 10.6721 13.5951 13.3278 10.3951 13.3278Z" fill="#1E1E1E"/>
<path d="M6.25491 25.2042C7.21144 25.2042 7.98687 24.4287 7.98687 23.4722C7.98687 22.5157 7.21144 21.7402 6.25491 21.7402C5.29837 21.7402 4.52295 22.5157 4.52295 23.4722C4.52295 24.4287 5.29837 25.2042 6.25491 25.2042Z" fill="#1E1E1E"/>
<path d="M7.85488 58.5237C8.81142 58.5237 9.58684 57.7483 9.58684 56.7918C9.58684 55.8352 8.81142 55.0598 7.85488 55.0598C6.89835 55.0598 6.12292 55.8352 6.12292 56.7918C6.12292 57.7483 6.89835 58.5237 7.85488 58.5237Z" fill="#1E1E1E"/>
<path d="M74.5271 75.2C75.4837 75.2 76.2591 74.4246 76.2591 73.468C76.2591 72.5115 75.4837 71.7361 74.5271 71.7361C73.5706 71.7361 72.7952 72.5115 72.7952 73.468C72.7952 74.4246 73.5706 75.2 74.5271 75.2Z" fill="#1E1E1E"/>
<path d="M75.7642 15.1917C76.7207 15.1917 77.4961 14.4163 77.4961 13.4597C77.4961 12.5032 76.7207 11.7278 75.7642 11.7278C74.8077 11.7278 74.0322 12.5032 74.0322 13.4597C74.0322 14.4163 74.8077 15.1917 75.7642 15.1917Z" fill="#1E1E1E"/>
<path d="M66.2632 6.72991C67.2197 6.72991 67.9952 5.95448 67.9952 4.99795C67.9952 4.04142 67.2197 3.26599 66.2632 3.26599C65.3067 3.26599 64.5312 4.04142 64.5312 4.99795C64.5312 5.95448 65.3067 6.72991 66.2632 6.72991Z" fill="#1E1E1E"/>
</g>
<defs>
<clipPath id="clip0_333_1132">
<rect width="80" height="80" fill="white" transform="translate(0.333252)"/>
</clipPath>
</defs>
</svg>
