<svg width="180" height="180" viewBox="0 0 180 180" fill="none" xmlns="http://www.w3.org/2000/svg">
<g clip-path="url(#clip0_458_2148)">
<path d="M168.717 131.381C171.724 131.381 174.433 133.794 174.433 137.097C174.433 140.103 172.021 142.775 168.717 142.775C165.414 142.775 163.039 140.4 163.039 137.097C163.336 133.794 165.711 131.381 168.717 131.381Z" fill="#E8E8E8"/>
<path d="M22.6387 7.49695C27.7232 7.49695 31.9542 11.6908 31.9542 16.8124C31.9542 21.8969 27.7232 26.0908 22.6387 26.0908C17.5542 26.0908 13.3232 21.8969 13.3232 16.8124C13.3232 11.6908 17.2573 7.49695 22.6387 7.49695Z" fill="#E8E8E8"/>
<path d="M13.3241 146.375C17.555 146.375 20.8581 149.678 20.8581 153.872C20.8581 158.103 17.555 161.369 13.3241 161.369C9.13024 161.369 5.82715 158.103 5.82715 153.872C5.82715 149.678 9.13024 146.375 13.3241 146.375Z" fill="#E8E8E8"/>
<path d="M35.8516 176.4V147.6C35.8516 140.4 41.5299 134.685 48.7299 134.685C53.8516 134.685 60.1237 134.685 65.8392 134.685L80.833 153.872L94.0454 144.297L106.924 153.872L121.918 134.685C124.924 134.685 132.124 134.685 135.427 134.685C142.627 134.685 148.342 140.4 148.342 147.6V176.4C140.548 176.4 40.0454 176.4 35.8516 176.4Z" fill="#E8E8E8"/>
<path d="M116.536 127.484L121.917 134.684L106.923 153.872L94.0449 144L116.536 127.484Z" fill="#E8E8E8"/>
<path d="M94.0451 144L80.8327 153.872L65.8389 134.684L70.9234 127.484L94.0451 144Z" fill="#E8E8E8"/>
<path d="M167.827 79.4968V84.8783L146.821 87.8845C146.227 91.7814 145.336 95.6783 143.815 99.2783L160.33 112.491L154.912 122.103L135.13 114.272C132.718 117.278 129.749 120.284 126.742 122.697L131.53 134.684H121.918L116.536 127.484L94.0456 144L70.9239 127.484L65.5425 134.684H52.3301L57.1549 122.697C54.1487 120.284 51.1425 117.278 48.7301 114.272L28.9487 122.103L23.5301 112.788L40.0456 99.5752C38.5239 95.9752 37.6332 92.0783 37.0394 88.1814L16.0332 85.1752V74.3752L37.0394 71.1092C37.6332 67.2123 38.8579 63.2783 40.0456 59.6783L23.5301 46.503L28.9487 37.1876L48.7301 44.9814C51.1425 42.0123 54.1487 39.0061 57.1549 36.5938L49.3239 16.8123L58.6394 11.3938L71.8518 27.9092C75.4518 26.3876 79.3487 25.4968 83.2456 24.903L86.5487 3.89685H97.3487L100.318 24.903C104.252 25.4968 108.149 26.6845 111.749 27.9092L124.924 11.3938L134.239 16.8123L126.446 36.5938C129.415 39.0061 132.421 42.0123 134.833 44.9814L154.615 37.1876L160.033 46.503L143.518 59.6783C145.039 63.2783 145.93 67.2123 146.524 71.1092L167.53 74.3752L167.827 79.4968Z" fill="#E8E8E8"/>
<path d="M118.021 74.7092V97.7938C118.021 104.103 115.348 110.078 111.118 114.272C106.924 118.503 101.245 121.175 94.6392 121.175C81.7238 121.175 71.5547 110.672 71.5547 98.0907V75.0061H118.021V74.7092Z" fill="#E8E8E8"/>
<path d="M118.021 70.7753V74.7093H68.2516C59.8269 74.7093 53.2207 68.1031 53.2207 59.6784V56.0784H103.324C111.415 56.4124 118.021 62.6846 118.021 70.7753Z" fill="#E8E8E8"/>
<path d="M131.53 138.285C130.045 138.285 128.523 137.394 127.93 135.872L123.142 123.885C122.548 122.4 123.142 120.581 124.33 119.691C127.336 117.278 129.748 114.903 132.123 111.897C133.014 110.672 134.833 110.078 136.317 110.672L153.13 117.278L155.245 113.381L141.142 102.285C139.917 101.394 139.323 99.5753 139.917 98.0907C141.142 94.7876 142.33 91.1876 142.626 87.5876C142.923 86.1031 144.148 84.5814 145.633 84.5814L163.336 81.9093V77.3814L145.633 74.7093C144.148 74.3753 142.626 73.1876 142.626 71.7031C142.033 68.1031 141.142 64.5031 139.917 61.2C139.323 59.6783 139.917 57.8969 141.142 57.0062L155.245 45.9093L153.13 42.0124L136.317 48.5814C134.833 49.2124 133.014 48.5814 132.123 47.3938C129.748 44.3876 127.039 42.0124 124.33 39.6C123.142 38.7093 122.548 36.8907 123.142 35.4062L129.748 18.5938L125.814 16.5155L114.717 29.9876C113.826 31.2124 112.045 31.8062 110.523 31.2124C107.22 29.9876 103.62 28.8 99.7234 28.2062C98.2388 27.9093 96.7172 26.6845 96.7172 25.2L94.045 7.49691H89.5172L86.845 25.2C86.5481 26.6845 85.3234 28.2062 83.8388 28.2062C80.2388 28.8 76.6388 29.6907 73.0388 31.2124C71.5543 31.8062 69.7357 31.2124 68.845 29.9876L57.7481 15.8845L53.8512 18L60.4203 34.8124C61.0512 36.2969 60.4203 38.1155 59.2327 39.0062C56.2265 41.3814 53.8512 43.7938 51.4388 46.8C50.5481 47.9876 48.7296 48.5814 47.245 47.9876L30.4327 41.3814L28.3543 45.2784L42.4203 56.4124C43.645 57.3031 44.2388 59.0845 43.645 60.6062C42.4203 63.9093 41.2327 67.5093 40.6388 71.4062C40.3419 72.8907 39.1543 74.3753 37.6327 74.3753L19.9296 77.3814V81.9093L37.6327 84.5814C39.1543 84.8783 40.6388 86.1031 40.6388 87.5876C41.2327 91.1876 42.1234 94.7876 43.645 98.3876C44.2388 99.9093 43.645 101.691 42.4203 102.581L28.3543 113.678L30.4327 117.575L47.245 111.006C48.7296 110.375 50.5481 111.006 51.4388 112.194C53.8512 114.903 56.2265 117.575 59.2327 119.988C60.4203 120.878 61.0512 122.697 60.4203 124.181L55.6327 136.206C54.7419 137.988 52.6265 139.175 50.845 138.285C49.0265 137.394 47.8388 135.278 48.7296 133.497L52.3296 124.181C50.5481 122.697 49.0265 120.878 47.245 119.097L30.1357 126C28.3543 126.594 26.5357 126 25.645 124.478L20.2265 115.2C19.3357 113.678 19.6326 111.6 21.1543 110.375L35.5543 98.9814C34.9234 96.9031 34.0327 94.4907 33.7357 92.0783L15.4388 89.4062C13.6574 89.1093 12.1357 87.5876 12.1357 85.8062V75.0062C12.1357 73.1876 13.6574 71.7031 15.4388 71.4062L33.7357 68.6969C34.3296 66.2845 34.9234 64.2062 35.5543 61.7938L21.1543 50.4C19.6326 49.2124 19.3357 47.0969 20.2265 45.6124L25.645 36.2969C26.5357 34.8124 28.6512 33.8845 30.1357 34.8124L47.245 41.6783C48.7296 39.8969 50.5481 38.4124 52.3296 36.5938L45.7234 18C45.1296 16.1814 45.7234 14.4 47.245 13.5093L56.5234 8.09072C58.045 7.2 60.1234 7.49691 61.3481 8.98144L72.7419 23.3814C74.8203 22.7876 77.2327 21.8969 79.645 21.6L82.3172 3.30309C82.6512 1.48454 84.1357 0 85.9172 0H96.7172C98.5358 0 100.02 1.48454 100.317 3.30309L103.026 21.6C105.439 22.1938 107.517 22.7876 109.93 23.3814L121.323 8.98144C122.548 7.49691 124.626 7.2 126.148 8.09072L135.426 13.5093C136.948 14.4 137.839 16.5155 136.948 18L130.045 35.1093C131.826 36.5938 133.348 38.4124 135.13 40.1938L152.239 33.2907C154.02 32.6969 155.839 33.2907 156.73 34.8124L162.111 44.0907C163.039 45.6124 162.742 47.6907 161.22 48.8783L146.82 60.3093C147.414 62.3876 148.342 64.8 148.639 67.2124L166.936 69.8845C168.717 70.1814 170.239 71.7031 170.239 73.4845V84.2845C170.239 86.1031 168.717 87.5876 166.936 87.8845L148.639 90.5938C148.045 93.0062 147.414 95.0845 146.82 97.4969L161.22 108.891C162.742 110.078 163.039 112.194 162.111 113.678L156.73 122.994C155.839 124.478 153.723 125.406 152.239 124.478L135.13 117.575C133.645 119.394 131.826 120.878 130.045 122.697L133.645 131.975C134.536 133.794 133.348 136.206 131.53 136.8C132.42 138.285 131.826 138.285 131.53 138.285Z" fill="#D2D2D2"/>
<path d="M148.343 180H35.852C33.7365 180 31.9551 178.181 31.9551 176.103V147.303C31.9551 137.988 39.452 130.788 48.4334 130.788H65.5427C67.6211 130.788 69.4396 132.606 69.4396 134.685C69.4396 136.8 67.6211 138.581 65.5427 138.581H48.4334C43.3489 138.581 39.452 142.775 39.452 147.6V172.503H144.446V147.6C144.446 142.478 140.215 138.581 135.427 138.581H121.918C119.84 138.581 118.021 136.8 118.021 134.685C118.021 132.606 119.84 130.788 121.918 130.788H135.427C144.743 130.788 151.943 138.285 151.943 147.303V176.103C151.943 178.181 150.124 180 148.343 180Z" fill="#D2D2D2"/>
<path d="M100.318 144L106.33 148.491L117.427 134.388L115.942 132.606L100.318 144ZM106.924 157.472C106.033 157.472 105.439 157.175 104.845 156.878L91.633 146.969C90.7423 146.375 90.1484 145.188 90.1484 144C90.1484 142.775 90.7423 141.588 91.633 140.994L114.124 124.478C115.645 123.291 118.021 123.588 119.245 125.072L124.627 132.272C125.518 133.794 125.518 135.575 124.627 136.8L109.93 155.988C109.039 156.878 108.148 157.472 106.924 157.472Z" fill="#D2D2D2"/>
<path d="M70.33 134.388L81.4269 148.491L87.7362 144L71.8517 132.606L70.33 134.388ZM80.8331 157.472C79.6455 157.472 78.7176 156.878 77.8269 155.988L62.8331 136.8C61.6455 135.575 61.6455 133.497 62.8331 132.272L68.2517 125.072C69.4393 123.588 71.8517 122.994 73.3362 124.181L96.1238 140.697C97.0517 141.291 97.6455 142.478 97.6455 143.703C97.6455 144.891 97.0517 146.078 96.1238 146.672L82.9486 156.878C82.3176 157.175 81.4269 157.472 80.8331 157.472Z" fill="#D2D2D2"/>
<path d="M94.9365 124.775C80.2396 124.775 67.9551 112.788 67.9551 97.7938V74.7093C67.9551 72.5938 69.7365 70.7753 71.852 70.7753C73.9303 70.7753 75.7489 72.5938 75.7489 74.7093V97.7938C75.7489 108.594 84.4334 117.278 95.2334 117.278C100.318 117.278 105.143 115.2 109.04 111.6C112.64 108 114.718 103.175 114.718 97.7938V74.7093C114.718 72.5938 116.537 70.7753 118.615 70.7753C120.73 70.7753 122.549 72.5938 122.549 74.7093V97.7938C122.549 104.994 119.84 111.6 114.718 116.685C108.743 122.103 102.137 124.775 94.9365 124.775Z" fill="#D2D2D2"/>
<path d="M57.1542 60.0123C57.1542 65.9876 62.2387 71.1092 68.2511 71.1092H114.123C114.123 65.0969 109.336 60.3092 103.323 60.3092H57.1542V60.0123ZM118.02 78.6061H68.2511C58.0449 78.6061 49.3232 70.1814 49.3232 59.6783V56.0783C49.3232 54 51.1418 52.1814 53.2201 52.1814H103.323C113.529 52.1814 121.62 60.6061 121.62 70.4783V74.3752C121.917 76.7876 120.136 78.6061 118.02 78.6061Z" fill="#D2D2D2"/>
<path d="M11.3938 149.975C9.31546 149.975 7.49691 151.794 7.49691 153.872C7.49691 155.988 9.31546 157.769 11.3938 157.769C13.5093 157.769 15.2907 155.988 15.2907 153.872C14.9938 151.794 13.2124 149.975 11.3938 149.975ZM11.3938 164.969C5.08454 164.969 0 159.884 0 153.575C0 147.303 5.08454 142.181 11.3938 142.181C17.7031 142.181 22.7876 147.303 22.7876 153.575C22.7876 159.884 17.4062 164.969 11.3938 164.969Z" fill="#D2D2D2"/>
<path d="M170.685 134.981C169.794 134.981 168.903 135.872 168.903 136.8C168.903 137.691 169.794 138.581 170.685 138.581C171.575 138.581 172.466 137.691 172.466 136.8C172.8 135.872 171.872 134.981 170.685 134.981ZM170.685 146.375C165.6 146.375 161.369 142.181 161.369 137.097C161.369 131.975 165.6 127.781 170.685 127.781C175.769 127.781 180 131.975 180 137.097C180.297 141.885 175.769 146.375 170.685 146.375Z" fill="#D2D2D2"/>
<path d="M22.6391 11.3938C19.6329 11.3938 16.9237 13.8062 16.9237 17.1093C16.9237 20.4123 19.336 22.7876 22.6391 22.7876C25.9422 22.7876 28.3546 20.4123 28.3546 17.1093C28.3546 13.8062 25.6453 11.3938 22.6391 11.3938ZM22.6391 29.9876C15.4391 29.9876 9.42676 24.0123 9.42676 16.8123C9.42676 9.61235 15.4391 3.59998 22.6391 3.59998C29.8391 3.59998 35.8515 9.61235 35.8515 16.8123C35.8515 24.0123 29.8391 29.9876 22.6391 29.9876Z" fill="#D2D2D2"/>
<path d="M13.3237 56.7093C15.4759 56.7093 17.2206 54.9646 17.2206 52.8124C17.2206 50.6602 15.4759 48.9155 13.3237 48.9155C11.1715 48.9155 9.42676 50.6602 9.42676 52.8124C9.42676 54.9646 11.1715 56.7093 13.3237 56.7093Z" fill="#D2D2D2"/>
<path d="M16.9233 131.678C19.0755 131.678 20.8202 129.934 20.8202 127.781C20.8202 125.629 19.0755 123.885 16.9233 123.885C14.7711 123.885 13.0264 125.629 13.0264 127.781C13.0264 129.934 14.7711 131.678 16.9233 131.678Z" fill="#D2D2D2"/>
<path d="M166.936 169.2C169.088 169.2 170.833 167.455 170.833 165.303C170.833 163.151 169.088 161.406 166.936 161.406C164.784 161.406 163.039 163.151 163.039 165.303C163.039 167.455 164.784 169.2 166.936 169.2Z" fill="#D2D2D2"/>
<path d="M169.719 34.1814C171.871 34.1814 173.616 32.4367 173.616 30.2845C173.616 28.1323 171.871 26.3876 169.719 26.3876C167.567 26.3876 165.822 28.1323 165.822 30.2845C165.822 32.4367 167.567 34.1814 169.719 34.1814Z" fill="#D2D2D2"/>
<path d="M148.342 15.1423C150.494 15.1423 152.239 13.3976 152.239 11.2454C152.239 9.09322 150.494 7.34851 148.342 7.34851C146.19 7.34851 144.445 9.09322 144.445 11.2454C144.445 13.3976 146.19 15.1423 148.342 15.1423Z" fill="#D2D2D2"/>
</g>
<defs>
<clipPath id="clip0_458_2148">
<rect width="180" height="180" fill="white"/>
</clipPath>
</defs>
</svg>
