<svg width="180" height="180" viewBox="0 0 180 180" fill="none" xmlns="http://www.w3.org/2000/svg">
<path d="M11.6982 161.389V108.878C18.5668 108.878 73.1606 108.878 83.0867 108.878L113.973 86.4116V105.599L140.384 86.4116V105.599L166.75 86.4116V161.389C159.261 161.389 18.3009 161.389 11.6982 161.389Z" fill="#E8E8E8"/>
<path d="M165.288 48.8787C169.454 48.8787 172.777 52.2021 172.777 56.4118C172.777 60.5772 169.454 63.9007 165.288 63.9007C161.078 63.9007 157.755 60.3114 157.755 56.4118C157.755 52.2021 161.078 48.8787 165.288 48.8787Z" fill="#E8E8E8"/>
<path d="M88.4933 44.979C93.5893 44.979 97.799 49.1887 97.799 54.2847C97.799 59.3807 93.5893 63.5904 88.4933 63.5904C83.3972 63.5904 79.1875 59.3807 79.1875 54.2847C79.1875 49.1887 83.0871 44.979 88.4933 44.979Z" fill="#E8E8E8"/>
<path d="M90.2656 150H105.288V134.978H90.2656V150Z" fill="#E8E8E8"/>
<path d="M120.266 150H135.288V134.978H120.266V150Z" fill="#E8E8E8"/>
<path d="M30.2656 150H45.2878V134.978H30.2656V150Z" fill="#E8E8E8"/>
<path d="M60.2656 150H75.2878V134.978H60.2656V150Z" fill="#E8E8E8"/>
<path d="M30.2656 134.978H45.2878V120H30.2656V134.978Z" fill="#E8E8E8"/>
<path d="M120.266 134.978H135.288V120H120.266V134.978Z" fill="#E8E8E8"/>
<path d="M60.2656 134.978H75.2878V120H60.2656V134.978Z" fill="#E8E8E8"/>
<path d="M90.2656 134.978H105.288V120H90.2656V134.978Z" fill="#E8E8E8"/>
<path d="M166.174 161.389V176.366H11.6982V161.389H166.174Z" fill="#E8E8E8"/>
<path d="M56.6769 30.0014L64.1658 108.878H22.7773C23.3977 101.079 29.6902 26.678 30.2663 18.8789L56.6769 30.0014Z" fill="#E8E8E8"/>
<path d="M63.8999 112.467C62.0831 112.467 60.2663 111.005 60.2663 109.188L53.0875 32.7044L33.5898 24.2849L26.3667 109.188C26.1008 111.271 24.284 112.778 22.4672 112.467C20.3844 112.201 18.8778 110.385 19.188 108.568L26.6769 18.6129C26.6769 17.4165 27.5632 16.22 28.4937 15.5996C29.38 14.9793 30.8867 14.9793 31.7729 15.2894L58.1836 26.6778C59.38 27.2982 60.2663 28.4946 60.5765 29.6911L67.7995 108.302C68.0654 110.385 66.6031 112.201 64.476 112.467C64.1658 112.467 64.1658 112.467 63.8999 112.467Z" fill="#D2D2D2"/>
<path d="M166.174 164.978H11.6984C9.57135 164.978 7.79883 163.161 7.79883 161.078C7.79883 158.996 9.57135 157.179 11.6984 157.179H166.484C168.567 157.179 170.384 158.996 170.384 161.078C170.074 163.161 168.257 164.978 166.174 164.978Z" fill="#D2D2D2"/>
<path d="M15.2878 172.467H162.585V93.59L142.156 108.302C140.96 109.188 139.453 109.188 138.257 108.568C137.06 107.992 136.174 106.795 136.174 105.289V93.59L115.79 108.302C114.594 109.188 113.087 109.188 111.89 108.568C110.694 107.992 109.763 106.795 109.763 105.289V93.59L84.8594 111.891C84.2833 112.467 83.3971 112.467 82.7767 112.467H15.2878V172.467ZM166.174 180H11.6984C9.57135 180 7.79883 178.183 7.79883 176.1V108.878C7.79883 106.795 9.57135 104.978 11.6984 104.978H81.5802L111.58 83.0879C112.777 82.2016 114.283 82.2016 115.48 82.7777C116.676 83.398 117.562 84.5945 117.562 86.1011V97.7997L137.991 83.0879C139.187 82.2016 140.694 82.2016 141.89 82.7777C143.087 83.398 143.973 84.5945 143.973 86.1011V97.7997L164.357 83.0879C165.554 82.2016 167.06 82.2016 168.257 82.7777C169.453 83.398 170.384 84.5945 170.384 86.1011V176.1C170.074 178.183 168.257 180 166.174 180Z" fill="#D2D2D2"/>
<path d="M39.4834 93.9004H25.9679C23.8852 93.9004 22.0684 92.0835 22.0684 90.0008C22.0684 87.8738 23.8852 86.1013 25.9679 86.1013H39.4834C41.5661 86.1013 43.383 87.8738 43.383 90.0008C43.383 92.0835 41.5661 93.9004 39.4834 93.9004Z" fill="#D2D2D2"/>
<path d="M60.2662 74.9787H41.3888C39.2618 74.9787 37.4893 73.2062 37.4893 71.0792C37.4893 68.9965 39.2618 67.1797 41.3888 67.1797H60.2662C62.3932 67.1797 64.1658 68.9965 64.1658 71.0792C64.1658 73.2062 62.3932 74.9787 60.2662 74.9787Z" fill="#D2D2D2"/>
<path d="M45.2879 153.9H30.2658C28.1831 153.9 26.3662 152.083 26.3662 150V134.978C26.3662 132.895 28.1831 131.079 30.2658 131.079C32.3928 131.079 34.1653 132.895 34.1653 134.978V146.367H41.6986V134.978C41.6986 132.895 43.4711 131.079 45.5981 131.079C47.6808 131.079 49.4977 132.895 49.4977 134.978V150C49.1875 152.083 47.3706 153.9 45.2879 153.9Z" fill="#D2D2D2"/>
<path d="M34.1653 131.389H41.6986V123.9H34.1653V131.389ZM45.2879 138.878H30.2658C28.1831 138.878 26.3662 137.105 26.3662 134.978V120.001C26.3662 117.874 28.1831 116.101 30.2658 116.101H45.2879C47.3706 116.101 49.1875 117.874 49.1875 120.001V134.978C49.1875 137.105 47.3706 138.878 45.2879 138.878Z" fill="#D2D2D2"/>
<path d="M75.2879 153.9H60.2658C58.1831 153.9 56.3662 152.083 56.3662 150V134.978C56.3662 132.895 58.1831 131.079 60.2658 131.079C62.3928 131.079 64.1653 132.895 64.1653 134.978V146.367H71.6986V134.978C71.6986 132.895 73.4711 131.079 75.5981 131.079C77.6808 131.079 79.4977 132.895 79.4977 134.978V150C79.1875 152.083 77.3706 153.9 75.2879 153.9Z" fill="#D2D2D2"/>
<path d="M64.1653 131.389H71.6986V123.9H64.1653V131.389ZM75.2879 138.878H60.2658C58.183 138.878 56.3662 137.105 56.3662 134.978V120.001C56.3662 117.874 58.183 116.101 60.2658 116.101H75.2879C77.3706 116.101 79.1875 117.874 79.1875 120.001V134.978C79.1875 137.105 77.3706 138.878 75.2879 138.878Z" fill="#D2D2D2"/>
<path d="M105.288 153.9H90.2658C88.183 153.9 86.3662 152.083 86.3662 150V134.978C86.3662 132.895 88.183 131.079 90.2658 131.079C92.3928 131.079 94.1653 132.895 94.1653 134.978V146.367H101.699V134.978C101.699 132.895 103.471 131.079 105.598 131.079C107.681 131.079 109.498 132.895 109.498 134.978V150C109.187 152.083 107.371 153.9 105.288 153.9Z" fill="#D2D2D2"/>
<path d="M94.1653 131.389H101.699V123.9H94.1653V131.389ZM105.288 138.878H90.2658C88.1831 138.878 86.3662 137.105 86.3662 134.978V120.001C86.3662 117.874 88.1831 116.101 90.2658 116.101H105.288C107.371 116.101 109.187 117.874 109.187 120.001V134.978C109.187 137.105 107.371 138.878 105.288 138.878Z" fill="#D2D2D2"/>
<path d="M135.288 153.9H120.266C118.183 153.9 116.366 152.083 116.366 150V134.978C116.366 132.895 118.183 131.079 120.266 131.079C122.393 131.079 124.165 132.895 124.165 134.978V146.367H131.654V134.978C131.654 132.895 133.471 131.079 135.554 131.079C137.681 131.079 139.453 132.895 139.453 134.978V150C139.187 152.083 137.371 153.9 135.288 153.9Z" fill="#D2D2D2"/>
<path d="M124.165 131.389H131.654V123.9H124.165V131.389ZM135.288 138.878H120.266C118.183 138.878 116.366 137.105 116.366 134.978V120.001C116.366 117.874 118.183 116.101 120.266 116.101H135.288C137.371 116.101 139.187 117.874 139.187 120.001V134.978C139.187 137.105 137.371 138.878 135.288 138.878Z" fill="#D2D2D2" stroke="#D2D2D2" stroke-width="0.923191" stroke-miterlimit="10"/>
<path d="M150.266 164.978C148.183 164.978 146.366 163.161 146.366 161.079V120.001C146.366 117.874 148.183 116.101 150.266 116.101C152.393 116.101 154.165 117.874 154.165 120.001V161.389C154.165 163.161 152.393 164.978 150.266 164.978Z" fill="#D2D2D2"/>
<path d="M107.991 18.0812C103.781 18.0812 99.5716 16.8847 95.672 14.1816C73.7813 -0.485877 55.1698 13.9158 55.1698 14.1816C53.6631 15.3781 51.2702 15.1122 49.7636 13.6056C48.5671 12.0989 48.8773 9.70606 50.384 8.19942C50.6942 7.88923 56.3662 3.41365 65.0959 1.28663C73.1609 -0.796067 86.056 -1.41645 99.8818 7.88923C110.384 15.1122 121.196 4.61009 121.462 4.61009C122.969 3.10346 125.362 3.10346 126.868 4.61009C128.375 6.11672 128.375 8.50961 126.868 10.0162C126.558 10.2821 122.969 13.6056 117.563 15.9985C114.284 17.5051 110.96 18.0812 107.991 18.0812Z" fill="#D2D2D2"/>
<path d="M110.96 33.1031C105.288 33.1031 100.458 30.0899 97.7989 27.3868C96.2923 25.8802 96.2923 23.4873 97.7989 21.9806C99.2613 20.474 101.698 20.474 103.161 21.9806C103.471 22.2908 109.498 28.0072 115.48 24.1076C124.786 17.8152 133.471 18.0811 138.877 19.5877C144.859 21.0944 148.493 24.1076 148.759 24.3735C150.266 25.6143 150.576 28.0072 149.379 29.7797C148.183 31.2863 145.79 31.5965 143.973 30.4001C143.353 30.0899 132.585 21.7148 119.379 30.7102C116.676 32.1726 113.663 33.1031 110.96 33.1031Z" fill="#D2D2D2"/>
<path d="M168.567 52.5122C166.484 52.5122 164.668 54.2847 164.668 56.4117C164.668 58.4944 166.484 60.3112 168.567 60.3112C170.694 60.3112 172.467 58.4944 172.467 56.4117C172.467 54.2847 170.694 52.5122 168.567 52.5122ZM168.567 67.4899C162.275 67.4899 157.179 62.3939 157.179 56.1015C157.179 49.8091 162.275 44.7131 168.567 44.7131C174.86 44.7131 180 49.8091 180 56.1015C180 62.3939 174.86 67.4899 168.567 67.4899Z" fill="#D2D2D2"/>
<path d="M88.4934 48.8784C85.4801 48.8784 82.777 51.3156 82.777 54.5947C82.777 57.8739 85.1699 60.3111 88.4934 60.3111C91.7726 60.3111 94.1655 57.8739 94.1655 54.5947C94.1655 51.3156 91.4624 48.8784 88.4934 48.8784ZM88.4934 67.4898C81.2704 67.4898 75.2881 61.5075 75.2881 54.2845C75.2881 47.1059 81.2704 41.0793 88.4934 41.0793C95.6721 41.0793 101.699 47.1059 101.699 54.2845C101.699 61.5075 95.6721 67.4898 88.4934 67.4898Z" fill="#D2D2D2"/>
<path d="M3.89956 52.778C6.05322 52.778 7.79911 51.0322 7.79911 48.8785C7.79911 46.7249 6.05322 44.979 3.89956 44.979C1.74589 44.979 0 46.7249 0 48.8785C0 51.0322 1.74589 52.778 3.89956 52.778Z" fill="#D2D2D2"/>
<path d="M79.0099 90.0007C81.1636 90.0007 82.9095 88.2548 82.9095 86.1012C82.9095 83.9475 81.1636 82.2017 79.0099 82.2017C76.8562 82.2017 75.1104 83.9475 75.1104 86.1012C75.1104 88.2548 76.8562 90.0007 79.0099 90.0007Z" fill="#D2D2D2"/>
<path d="M165.288 22.7783C167.442 22.7783 169.188 21.0324 169.188 18.8788C169.188 16.7251 167.442 14.9792 165.288 14.9792C163.135 14.9792 161.389 16.7251 161.389 18.8788C161.389 21.0324 163.135 22.7783 165.288 22.7783Z" fill="#D2D2D2"/>
<path d="M112.777 56.4118C114.93 56.4118 116.676 54.666 116.676 52.5123C116.676 50.3587 114.93 48.6128 112.777 48.6128C110.623 48.6128 108.877 50.3587 108.877 52.5123C108.877 54.666 110.623 56.4118 112.777 56.4118Z" fill="#D2D2D2"/>
<path d="M135.288 67.8C137.442 67.8 139.188 66.0541 139.188 63.9005C139.188 61.7469 137.442 60.001 135.288 60.001C133.135 60.001 131.389 61.7469 131.389 63.9005C131.389 66.0541 133.135 67.8 135.288 67.8Z" fill="#D2D2D2"/>
</svg>
