<svg width="81" height="80" viewBox="0 0 81 80" fill="none" xmlns="http://www.w3.org/2000/svg">
<path d="M5.86597 71.7283V48.3903C8.91865 48.3903 33.1826 48.3903 37.5942 48.3903L51.3214 38.4052V46.9329L63.0595 38.4052V46.9329L74.7778 38.4052V71.7283C71.4494 71.7283 8.80048 71.7283 5.86597 71.7283Z" fill="#D2D2D2"/>
<path d="M74.1279 21.7238C75.9792 21.7238 77.4563 23.2008 77.4563 25.0718C77.4563 26.9231 75.9792 28.4002 74.1279 28.4002C72.2569 28.4002 70.7798 26.805 70.7798 25.0718C70.7798 23.2008 72.2569 21.7238 74.1279 21.7238Z" fill="white"/>
<path d="M39.9969 19.9907C42.2618 19.9907 44.1328 21.8617 44.1328 24.1266C44.1328 26.3915 42.2618 28.2624 39.9969 28.2624C37.7321 28.2624 35.8611 26.3915 35.8611 24.1266C35.8611 21.8617 37.5942 19.9907 39.9969 19.9907Z" fill="white"/>
<path d="M40.7848 66.6668H47.4612V59.9904H40.7848V66.6668Z" fill="white"/>
<path d="M54.1181 66.6668H60.7946V59.9904H54.1181V66.6668Z" fill="white"/>
<path d="M14.118 66.6668H20.7945V59.9904H14.118V66.6668Z" fill="white"/>
<path d="M27.4512 66.6668H34.1277V59.9904H27.4512V66.6668Z" fill="white"/>
<path d="M14.118 59.9904H20.7945V53.3336H14.118V59.9904Z" fill="white"/>
<path d="M54.1181 59.9904H60.7946V53.3336H54.1181V59.9904Z" fill="white"/>
<path d="M27.4512 59.9904H34.1277V53.3336H27.4512V59.9904Z" fill="white"/>
<path d="M40.7848 59.9904H47.4612V53.3336H40.7848V59.9904Z" fill="white"/>
<path d="M74.5218 71.7283V78.385H5.86597V71.7283H74.5218Z" fill="white"/>
<path d="M25.856 13.334L29.1843 48.3903H10.7896C11.0653 44.924 13.862 11.8569 14.118 8.39062L25.856 13.334Z" fill="white"/>
<path d="M29.0662 49.9854C28.2587 49.9854 27.4512 49.3355 27.4512 48.528L24.2607 14.5352L15.5951 10.7933L12.3849 48.528C12.2667 49.4537 11.4592 50.1233 10.6517 49.9854C9.7261 49.8673 9.05648 49.0598 9.19434 48.2523L12.5227 8.27236C12.5227 7.74061 12.9166 7.20885 13.3302 6.93313C13.7241 6.65741 14.3937 6.65741 14.7876 6.79527L26.5256 11.8568C27.0573 12.1325 27.4512 12.6642 27.5891 13.196L30.7993 48.1342C30.9174 49.0598 30.2675 49.8673 29.3222 49.9854C29.1843 49.9854 29.1843 49.9854 29.0662 49.9854Z" fill="#1E1E1E"/>
<path d="M74.5218 73.3235H5.86601C4.92066 73.3235 4.13287 72.5161 4.13287 71.5904C4.13287 70.6648 4.92066 69.8573 5.86601 69.8573H74.6597C75.5854 69.8573 76.3928 70.6648 76.3928 71.5904C76.255 72.5161 75.4475 73.3235 74.5218 73.3235Z" fill="#1E1E1E"/>
<path d="M7.46128 76.6519H72.9266V41.5956L63.8473 48.1342C63.3155 48.5281 62.6459 48.5281 62.1142 48.2523C61.5824 47.9963 61.1885 47.4646 61.1885 46.7949V41.5956L52.1289 48.1342C51.5972 48.5281 50.9276 48.5281 50.3958 48.2523C49.864 47.9963 49.4505 47.4646 49.4505 46.7949V41.5956L38.382 49.7294C38.126 49.9855 37.7321 49.9855 37.4564 49.9855H7.46128V76.6519ZM74.5218 80H5.86601C4.92066 80 4.13287 79.1925 4.13287 78.2668V48.3902C4.13287 47.4646 4.92066 46.6571 5.86601 46.6571H36.9246L50.2579 36.928C50.7897 36.5341 51.4593 36.5341 51.9911 36.7901C52.5228 37.0658 52.9167 37.5976 52.9167 38.2672V43.4666L61.996 36.928C62.5278 36.5341 63.1974 36.5341 63.7291 36.7901C64.2609 37.0658 64.6548 37.5976 64.6548 38.2672V43.4666L73.7144 36.928C74.2461 36.5341 74.9157 36.5341 75.4475 36.7901C75.9793 37.0658 76.3928 37.5976 76.3928 38.2672V78.2668C76.255 79.1925 75.4475 80 74.5218 80Z" fill="#1E1E1E"/>
<path d="M18.2145 41.7335H12.2077C11.282 41.7335 10.4745 40.926 10.4745 40.0003C10.4745 39.055 11.282 38.2672 12.2077 38.2672H18.2145C19.1402 38.2672 19.9476 39.055 19.9476 40.0003C19.9476 40.926 19.1402 41.7335 18.2145 41.7335Z" fill="#1E1E1E"/>
<path d="M27.4513 33.3239H19.0614C18.116 33.3239 17.3282 32.5361 17.3282 31.5908C17.3282 30.6651 18.116 29.8577 19.0614 29.8577H27.4513C28.3966 29.8577 29.1844 30.6651 29.1844 31.5908C29.1844 32.5361 28.3966 33.3239 27.4513 33.3239Z" fill="#1E1E1E"/>
<path d="M20.7945 68.3999H14.118C13.1924 68.3999 12.3849 67.5924 12.3849 66.6668V59.9903C12.3849 59.0647 13.1924 58.2572 14.118 58.2572C15.0633 58.2572 15.8511 59.0647 15.8511 59.9903V65.0518H19.1992V59.9903C19.1992 59.0647 19.987 58.2572 20.9323 58.2572C21.858 58.2572 22.6654 59.0647 22.6654 59.9903V66.6668C22.5276 67.5924 21.7201 68.3999 20.7945 68.3999Z" fill="#1E1E1E"/>
<path d="M15.8511 58.3951H19.1992V55.0667H15.8511V58.3951ZM20.7945 61.7235H14.118C13.1924 61.7235 12.3849 60.9357 12.3849 59.9903V53.3336C12.3849 52.3882 13.1924 51.6005 14.118 51.6005H20.7945C21.7201 51.6005 22.5276 52.3882 22.5276 53.3336V59.9903C22.5276 60.9357 21.7201 61.7235 20.7945 61.7235Z" fill="#1E1E1E"/>
<path d="M34.1277 68.3999H27.4512C26.5256 68.3999 25.7181 67.5924 25.7181 66.6668V59.9903C25.7181 59.0647 26.5256 58.2572 27.4512 58.2572C28.3965 58.2572 29.1843 59.0647 29.1843 59.9903V65.0518H32.5324V59.9903C32.5324 59.0647 33.3202 58.2572 34.2655 58.2572C35.1912 58.2572 35.9986 59.0647 35.9986 59.9903V66.6668C35.8608 67.5924 35.0533 68.3999 34.1277 68.3999Z" fill="#1E1E1E"/>
<path d="M29.1843 58.3951H32.5324V55.0667H29.1843V58.3951ZM34.1277 61.7235H27.4512C26.5256 61.7235 25.7181 60.9357 25.7181 59.9903V53.3336C25.7181 52.3882 26.5256 51.6005 27.4512 51.6005H34.1277C35.0533 51.6005 35.8608 52.3882 35.8608 53.3336V59.9903C35.8608 60.9357 35.0533 61.7235 34.1277 61.7235Z" fill="#1E1E1E"/>
<path d="M47.4612 68.3999H40.7848C39.8591 68.3999 39.0516 67.5924 39.0516 66.6668V59.9903C39.0516 59.0647 39.8591 58.2572 40.7848 58.2572C41.7301 58.2572 42.5179 59.0647 42.5179 59.9903V65.0518H45.866V59.9903C45.866 59.0647 46.6537 58.2572 47.5991 58.2572C48.5247 58.2572 49.3322 59.0647 49.3322 59.9903V66.6668C49.1943 67.5924 48.3869 68.3999 47.4612 68.3999Z" fill="#1E1E1E"/>
<path d="M42.5179 58.3951H45.866V55.0667H42.5179V58.3951ZM47.4612 61.7235H40.7848C39.8591 61.7235 39.0516 60.9357 39.0516 59.9903V53.3336C39.0516 52.3882 39.8591 51.6005 40.7848 51.6005H47.4612C48.3869 51.6005 49.1943 52.3882 49.1943 53.3336V59.9903C49.1943 60.9357 48.3869 61.7235 47.4612 61.7235Z" fill="#1E1E1E"/>
<path d="M60.7946 68.3999H54.1181C53.1925 68.3999 52.385 67.5924 52.385 66.6668V59.9903C52.385 59.0647 53.1925 58.2572 54.1181 58.2572C55.0635 58.2572 55.8513 59.0647 55.8513 59.9903V65.0518H59.1796V59.9903C59.1796 59.0647 59.9871 58.2572 60.9128 58.2572C61.8581 58.2572 62.6459 59.0647 62.6459 59.9903V66.6668C62.5277 67.5924 61.7202 68.3999 60.7946 68.3999Z" fill="#1E1E1E"/>
<path d="M55.8513 58.3951H59.1796V55.0667H55.8513V58.3951ZM60.7946 61.7235H54.1181C53.1925 61.7235 52.385 60.9357 52.385 59.9903V53.3336C52.385 52.3882 53.1925 51.6005 54.1181 51.6005H60.7946C61.7202 51.6005 62.5277 52.3882 62.5277 53.3336V59.9903C62.5277 60.9357 61.7202 61.7235 60.7946 61.7235Z" fill="#1E1E1E" stroke="#1E1E1E" stroke-width="0.923191" stroke-miterlimit="10"/>
<path d="M67.4514 73.3236C66.5258 73.3236 65.7183 72.5161 65.7183 71.5904V53.3336C65.7183 52.3882 66.5258 51.6005 67.4514 51.6005C68.3968 51.6005 69.1846 52.3882 69.1846 53.3336V71.7283C69.1846 72.5161 68.3968 73.3236 67.4514 73.3236Z" fill="#1E1E1E"/>
<path d="M48.6625 8.03608C46.7915 8.03608 44.9205 7.50432 43.1874 6.30295C33.4582 -0.215945 25.1864 6.18479 25.1864 6.30295C24.5168 6.83471 23.4532 6.71654 22.7836 6.04693C22.2519 5.37731 22.3897 4.3138 23.0593 3.64419C23.1972 3.50633 25.7181 1.51718 29.598 0.571837C33.1824 -0.353807 38.9136 -0.629531 45.0584 3.50633C49.726 6.71654 54.5315 2.04893 54.6497 2.04893C55.3193 1.37931 56.3828 1.37931 57.0524 2.04893C57.7221 2.71854 57.7221 3.78205 57.0524 4.45166C56.9146 4.56983 55.3193 6.04693 52.9166 7.11043C51.4591 7.78005 49.982 8.03608 48.6625 8.03608Z" fill="#1E1E1E"/>
<path d="M49.9822 14.7125C47.4613 14.7125 45.3146 13.3733 44.1329 12.1719C43.4633 11.5023 43.4633 10.4388 44.1329 9.76915C44.7828 9.09954 45.866 9.09954 46.5159 9.76915C46.6538 9.90702 49.3323 12.4476 51.991 10.7145C56.1269 7.91787 59.987 8.03603 62.3897 8.70565C65.0485 9.37526 66.6635 10.7145 66.7816 10.8327C67.4512 11.3841 67.5891 12.4476 67.0574 13.2354C66.5256 13.905 65.4621 14.0429 64.6546 13.5111C64.3789 13.3733 59.5931 9.65099 53.7241 13.649C52.5228 14.2989 51.1835 14.7125 49.9822 14.7125Z" fill="#1E1E1E"/>
<path d="M75.5853 23.3388C74.6597 23.3388 73.8522 24.1266 73.8522 25.0719C73.8522 25.9976 74.6597 26.805 75.5853 26.805C76.5306 26.805 77.3184 25.9976 77.3184 25.0719C77.3184 24.1266 76.5306 23.3388 75.5853 23.3388ZM75.5853 29.9956C72.7887 29.9956 70.5238 27.7307 70.5238 24.9341C70.5238 22.1374 72.7887 19.8726 75.5853 19.8726C78.3819 19.8726 80.6665 22.1374 80.6665 24.9341C80.6665 27.7307 78.3819 29.9956 75.5853 29.9956Z" fill="#1E1E1E"/>
<path d="M39.997 21.7238C38.6577 21.7238 37.4564 22.807 37.4564 24.2644C37.4564 25.7218 38.5199 26.805 39.997 26.805C41.4544 26.805 42.5179 25.7218 42.5179 24.2644C42.5179 22.807 41.3165 21.7238 39.997 21.7238ZM39.997 29.9955C36.7868 29.9955 34.128 27.3368 34.128 24.1265C34.128 20.936 36.7868 18.2576 39.997 18.2576C43.1875 18.2576 45.8659 20.936 45.8659 24.1265C45.8659 27.3368 43.1875 29.9955 39.997 29.9955Z" fill="#1E1E1E"/>
<path d="M2.39975 23.457C3.35692 23.457 4.13287 22.681 4.13287 21.7238C4.13287 20.7667 3.35692 19.9907 2.39975 19.9907C1.44257 19.9907 0.666626 20.7667 0.666626 21.7238C0.666626 22.681 1.44257 23.457 2.39975 23.457Z" fill="#1E1E1E"/>
<path d="M35.7823 40.0003C36.7395 40.0003 37.5154 39.2244 37.5154 38.2672C37.5154 37.31 36.7395 36.5341 35.7823 36.5341C34.8251 36.5341 34.0492 37.31 34.0492 38.2672C34.0492 39.2244 34.8251 40.0003 35.7823 40.0003Z" fill="#1E1E1E"/>
<path d="M74.128 10.1237C75.0851 10.1237 75.8611 9.34777 75.8611 8.39059C75.8611 7.43342 75.0851 6.65747 74.128 6.65747C73.1708 6.65747 72.3948 7.43342 72.3948 8.39059C72.3948 9.34777 73.1708 10.1237 74.128 10.1237Z" fill="#1E1E1E"/>
<path d="M50.7897 25.0718C51.7469 25.0718 52.5228 24.2959 52.5228 23.3387C52.5228 22.3815 51.7469 21.6056 50.7897 21.6056C49.8325 21.6056 49.0566 22.3815 49.0566 23.3387C49.0566 24.2959 49.8325 25.0718 50.7897 25.0718Z" fill="#1E1E1E"/>
<path d="M60.7946 30.1334C61.7518 30.1334 62.5278 29.3574 62.5278 28.4002C62.5278 27.4431 61.7518 26.6671 60.7946 26.6671C59.8375 26.6671 59.0615 27.4431 59.0615 28.4002C59.0615 29.3574 59.8375 30.1334 60.7946 30.1334Z" fill="#1E1E1E"/>
</svg>
