<svg width="16" height="16" viewBox="0 0 16 16" fill="none" xmlns="http://www.w3.org/2000/svg">
<g clip-path="url(#clip0_253_2195)">
<path d="M7.97199 16.0053L7.50727 15.607C6.86661 15.0705 1.27264 10.2394 1.27264 6.70551C1.27264 3.00557 4.27205 0.00616455 7.97199 0.00616455C11.6719 0.00616455 14.6713 3.00557 14.6713 6.70551C14.6713 10.2394 9.07736 15.0706 8.43936 15.6096L7.97199 16.0053ZM7.97199 1.45476C5.07346 1.45804 2.72455 3.80695 2.72127 6.70548C2.72127 8.92554 6.16289 12.472 7.97199 14.0953C9.78111 12.4714 13.2227 8.92285 13.2227 6.70548C13.2194 3.80695 10.8706 1.45807 7.97199 1.45476Z" fill="black"/>
<path d="M7.97197 9.36105C6.50534 9.36105 5.31641 8.17211 5.31641 6.70549C5.31641 5.23886 6.50534 4.04993 7.97197 4.04993C9.43859 4.04993 10.6275 5.23886 10.6275 6.70549C10.6275 8.17211 9.43862 9.36105 7.97197 9.36105ZM7.97197 5.37768C7.23866 5.37768 6.64419 5.97215 6.64419 6.70546C6.64419 7.43877 7.23866 8.03324 7.97197 8.03324C8.70528 8.03324 9.29975 7.43877 9.29975 6.70546C9.29975 5.97215 8.70531 5.37768 7.97197 5.37768Z" fill="black"/>
</g>
<defs>
<clipPath id="clip0_253_2195">
<rect width="16" height="16" fill="white"/>
</clipPath>
</defs>
</svg>
