<svg width="16" height="16" viewBox="0 0 16 16" fill="none" xmlns="http://www.w3.org/2000/svg">
<g clip-path="url(#clip0_49_1368)">
<path d="M14 2H4.66667C3.56667 2 2.66667 2.9 2.66667 4V11.3333H16V4C16 2.9 15.1 2 14 2ZM14.6667 10H4V4C4 3.63333 4.3 3.33333 4.66667 3.33333H14C14.3667 3.33333 14.6667 3.63333 14.6667 4V10ZM1.33333 12.6667H13.3333V14H0V6.66667C0 5.8 0.56 5.06667 1.33333 4.78667V12.6667ZM9.33333 4.66667C8.23333 4.66667 7.33333 5.56667 7.33333 6.66667C7.33333 7.76667 8.23333 8.66667 9.33333 8.66667C10.4333 8.66667 11.3333 7.76667 11.3333 6.66667C11.3333 5.56667 10.4333 4.66667 9.33333 4.66667ZM9.33333 7.33333C8.96667 7.33333 8.66667 7.03333 8.66667 6.66667C8.66667 6.3 8.96667 6 9.33333 6C9.7 6 10 6.3 10 6.66667C10 7.03333 9.7 7.33333 9.33333 7.33333ZM6.66667 5C6.66667 5.55333 6.22 6 5.66667 6C5.11333 6 4.66667 5.55333 4.66667 5C4.66667 4.44667 5.11333 4 5.66667 4C6.22 4 6.66667 4.44667 6.66667 5ZM6.66667 8.33333C6.66667 8.88667 6.22 9.33333 5.66667 9.33333C5.11333 9.33333 4.66667 8.88667 4.66667 8.33333C4.66667 7.78 5.11333 7.33333 5.66667 7.33333C6.22 7.33333 6.66667 7.78 6.66667 8.33333ZM14 5C14 5.55333 13.5533 6 13 6C12.4467 6 12 5.55333 12 5C12 4.44667 12.4467 4 13 4C13.5533 4 14 4.44667 14 5ZM14 8.33333C14 8.88667 13.5533 9.33333 13 9.33333C12.4467 9.33333 12 8.88667 12 8.33333C12 7.78 12.4467 7.33333 13 7.33333C13.5533 7.33333 14 7.78 14 8.33333Z" fill="black"/>
</g>
<defs>
<clipPath id="clip0_49_1368">
<rect width="16" height="16" fill="white"/>
</clipPath>
</defs>
</svg>
