<svg width="16" height="16" viewBox="0 0 16 16" fill="none" xmlns="http://www.w3.org/2000/svg">
<g clip-path="url(#clip0_94_2292)">
<path d="M15.5253 13.2493L2.75067 0.474662C2.288 0.0119953 1.59867 -0.124671 0.994667 0.125329C0.39 0.375329 0 0.959329 0 1.614V16H14.386C15.04 16 15.624 15.6093 15.8747 15.0053C16.1253 14.4013 15.988 13.712 15.5253 13.2493ZM14.6427 14.4953C14.616 14.5593 14.5473 14.6667 14.386 14.6667H1.33333V1.614C1.33333 1.45266 1.44067 1.38333 1.50467 1.35666C1.56867 1.332 1.69333 1.30266 1.808 1.41733L3.93533 3.54466L2.688 4.792L3.63067 5.73466L4.878 4.48733L5.82067 5.43L4.57267 6.67733L4.60733 6.712L5.55 7.65466L6.79733 6.40666L7.74 7.34933L6.49267 8.59666L7.43533 9.53933L8.68267 8.292L9.62533 9.23466L8.37733 10.482L9.32 11.4247L10.568 10.1773L11.5107 11.12L10.2633 12.368L11.206 13.3107L12.4533 12.0627L14.5807 14.19C14.6947 14.3047 14.6673 14.4287 14.6407 14.4933L14.6427 14.4953ZM4 8.39066L7.60933 12H4V8.39066Z" fill="black"/>
</g>
<defs>
<clipPath id="clip0_94_2292">
<rect width="16" height="16" fill="white"/>
</clipPath>
</defs>
</svg>
