<svg width="80" height="80" viewBox="0 0 80 80" fill="none" xmlns="http://www.w3.org/2000/svg">
<g clip-path="url(#clip0_333_106)">
<path d="M53.967 37.0134L54.7773 43.8697H22.7399L23.4151 37.0134L24.4955 37.1485H53.0217L53.967 37.0134Z" fill="white"/>
<path d="M44.6799 10.2324H51.4115L53.967 37.0134L53.0217 37.1484H24.4955L23.4151 37.0134L26.1057 10.2324H44.6799Z" fill="#D2D2D2"/>
<path d="M7.93663 59.6806L21.1297 73.8086L14.9383 78.3898L1.74522 65.0617L7.93663 59.5455V59.6806Z" fill="white"/>
<path d="M51.8166 61.5609L67.96 45.4175C68.9053 44.4722 70.2558 43.932 71.5959 43.932C72.9464 43.932 74.1514 44.4722 75.2318 45.4175C77.2471 47.4329 77.2471 50.5286 75.2318 52.5439L51.6816 75.9694L21.1297 73.9437L7.93663 59.6806L16.0187 52.5439L47.9107 55.2344C48.991 55.3695 50.061 55.7746 50.7363 56.5849C51.5466 57.2601 51.9517 58.3301 52.0867 59.4105C52.2218 60.0858 52.0867 60.8856 51.8166 61.5609Z" fill="#D2D2D2"/>
<path d="M76.6342 36.2655H80V32.8997H76.6342V36.2655Z" fill="#1E1E1E"/>
<path d="M76.6342 31.279H80V21.192H76.6342V31.279Z" fill="#1E1E1E"/>
<path d="M71.6582 24.5579H75.024V17.8263H71.6582V24.5579Z" fill="#1E1E1E"/>
<path d="M66.5472 27.9133H69.913V24.5579H66.5472V27.9133Z" fill="#1E1E1E"/>
<path d="M66.5472 22.9373H69.913V14.4604H66.5472V22.9373Z" fill="#1E1E1E"/>
<path d="M11.0323 26.168H14.3981V22.8022H11.0323V26.168Z" fill="#1E1E1E"/>
<path d="M11.0323 19.4365H14.3981V16.0707H11.0323V19.4365Z" fill="#1E1E1E"/>
<path d="M7.66653 29.5338H11.0323V26.168H7.66653V29.5338Z" fill="#1E1E1E"/>
<path d="M7.66653 22.8022H11.0323V19.4364H7.66653V22.8022Z" fill="#1E1E1E"/>
<path d="M4.17608 65.1968L15.2084 76.2291L20.1844 72.6036C20.4545 72.3335 20.8596 72.1985 21.2648 72.3335L51.1414 74.3488L74.0164 51.4739C75.3668 50.1234 75.3668 47.973 74.0164 46.7576C73.3515 46.0824 72.5412 45.8123 71.5959 45.8123C70.6506 45.8123 69.8507 46.2174 69.1754 46.7576L53.2918 62.5062C52.2218 64.7916 49.7909 66.2771 47.2354 66.1421L29.2014 65.3318C28.2665 65.3318 27.5912 64.5215 27.5912 63.5866C27.5912 62.6413 28.4015 61.966 29.3364 61.966L47.3705 62.7763C48.4508 62.7763 49.5208 62.2361 50.061 61.2908C50.061 61.0207 50.1961 60.761 50.3311 60.6259C50.4662 60.2208 50.4662 59.8156 50.4662 59.5456C50.3311 58.8703 50.061 58.1951 49.5208 57.8003C48.991 57.2601 48.4508 56.99 47.7756 56.99L16.5485 54.2995L4.17608 65.1968ZM14.9383 80C14.5332 80 14.128 79.865 13.7229 79.4599L0.54019 66.2771C0.270095 66.0071 0 65.4669 0 65.0617C0 64.6566 0.270095 64.1164 0.54019 63.8567L14.8033 51.2038C15.2084 50.9337 15.6136 50.7986 16.0187 50.7986L47.9107 53.4892C49.3962 53.6242 50.7363 54.2995 51.8166 55.2344C52.4815 55.9097 53.0217 56.7199 53.2918 57.5302L66.6199 44.2021C67.825 42.9867 69.5806 42.1868 71.3258 42.1868C73.0814 42.1868 74.8266 42.862 76.0421 44.2021C78.5976 46.8927 78.5976 51.0687 76.0421 53.7593L52.8866 77.0394C52.4815 77.4445 52.0867 77.5796 51.5465 77.5796L21.5349 75.5643L15.8836 79.5949C15.6136 79.865 15.3435 80 14.9383 80Z" fill="#1E1E1E"/>
<path d="M21.1297 75.5641C20.7246 75.5641 20.1844 75.4291 19.9143 75.024L6.73159 60.7609C6.05636 60.0856 6.1914 59.0053 6.86664 58.33C7.53149 57.6652 8.61187 57.8002 9.28711 58.4651L22.4802 72.7385C23.145 73.4034 23.01 74.4838 22.3451 75.159C21.94 75.4291 21.5349 75.5641 21.1297 75.5641Z" fill="#1E1E1E"/>
<path d="M24.6306 42.1244H52.8866L49.7909 11.8426H27.5912L24.6306 42.1244ZM54.7773 45.4902H22.7399C22.2101 45.4902 21.805 45.3551 21.5349 44.95C21.2648 44.5448 20.9947 44.1397 21.1297 43.6099L24.4955 9.96233C24.6306 9.15204 25.2954 8.47681 26.1057 8.47681H51.4115C52.2218 8.47681 53.0217 9.15204 53.0217 9.96233L56.3875 43.4749C56.3875 43.6099 56.3875 43.6099 56.3875 43.7346C56.3875 44.6799 55.5772 45.4902 54.7773 45.4902Z" fill="#1E1E1E"/>
<path d="M44.6799 18.5742C43.7346 18.5742 42.9347 17.7639 42.9347 16.8186V7.54188C42.9347 6.4615 42.5295 5.38112 41.7193 4.57083C40.909 3.77094 39.839 3.3658 38.7586 3.3658C36.4732 3.3658 34.5825 5.24607 34.5825 7.54188V16.8186C34.5825 17.7639 33.7826 18.5742 32.8373 18.5742C31.892 18.5742 31.0921 17.7639 31.0921 16.8186V7.54188C31.0921 3.3658 34.4579 0 38.6236 0C40.6389 0 42.5295 0.810284 44.0047 2.15037C45.4902 3.63589 46.1654 5.51617 46.1654 7.54188V16.8186C46.3005 17.7639 45.4902 18.5742 44.6799 18.5742Z" fill="#1E1E1E"/>
<path d="M53.0217 38.7587H24.4955C23.5502 38.7587 22.7399 37.9484 22.7399 37.0134C22.7399 36.0681 23.5502 35.2578 24.4955 35.2578H53.0217C53.967 35.2578 54.7773 36.0681 54.7773 37.0134C54.7773 37.9484 53.967 38.7587 53.0217 38.7587Z" fill="#1E1E1E"/>
</g>
<defs>
<clipPath id="clip0_333_106">
<rect width="80" height="80" fill="white"/>
</clipPath>
</defs>
</svg>
