<svg width="180" height="180" viewBox="0 0 180 180" fill="none" xmlns="http://www.w3.org/2000/svg">
<g clip-path="url(#clip0_241_1441)">
<path d="M121.426 83.2801L123.249 98.7067H51.165L52.6843 83.2801L55.1152 83.5839H119.299L121.426 83.2801Z" fill="#E8E8E8"/>
<path d="M100.529 23.023H115.675L121.425 83.2801L119.298 83.5839H55.1144L52.6836 83.2801L58.7374 23.023H100.529Z" fill="#E8E8E8"/>
<path d="M17.8574 134.281L47.5419 166.069L33.6112 176.377L3.92676 146.389L17.8574 133.977V134.281Z" fill="#E8E8E8"/>
<path d="M116.587 138.512L152.91 102.189C155.037 100.062 158.076 98.8469 161.091 98.8469C164.129 98.8469 166.841 100.062 169.272 102.189C173.806 106.724 173.806 113.689 169.272 118.224L116.284 170.931L47.5419 166.373L17.8574 134.281L36.0421 118.224L107.799 124.277C110.23 124.581 112.637 125.493 114.157 127.316C115.98 128.835 116.891 131.243 117.195 133.674C117.499 135.193 117.195 136.993 116.587 138.512Z" fill="#E8E8E8"/>
<path d="M172.427 81.5972H180V74.0242H172.427V81.5972Z" fill="#D2D2D2"/>
<path d="M172.427 70.3779H180V47.6821H172.427V70.3779Z" fill="#D2D2D2"/>
<path d="M161.231 55.2552H168.804V40.1091H161.231V55.2552Z" fill="#D2D2D2"/>
<path d="M149.731 62.8048H157.304V55.2552H149.731V62.8048Z" fill="#D2D2D2"/>
<path d="M149.731 51.6089H157.304V32.536H149.731V51.6089Z" fill="#D2D2D2"/>
<path d="M24.8223 58.8781H32.3953V51.305H24.8223V58.8781Z" fill="#D2D2D2"/>
<path d="M24.8223 43.732H32.3953V36.1589H24.8223V43.732Z" fill="#D2D2D2"/>
<path d="M17.25 66.4511H24.823V58.8781H17.25V66.4511Z" fill="#D2D2D2"/>
<path d="M17.25 51.305H24.823V43.732H17.25V51.305Z" fill="#D2D2D2"/>
<path d="M9.39618 146.693L34.2189 171.515L45.4149 163.358C46.0226 162.75 46.9342 162.446 47.8457 162.75L115.068 167.285L166.537 115.816C169.575 112.778 169.575 107.939 166.537 105.205C165.041 103.685 163.218 103.078 161.091 103.078C158.964 103.078 157.164 103.989 155.645 105.205L119.907 140.639C117.499 145.781 112.03 149.123 106.28 148.82L65.7032 146.996C63.5995 146.996 62.0802 145.173 62.0802 143.07C62.0802 140.943 63.9034 139.423 66.007 139.423L106.584 141.247C109.014 141.247 111.422 140.031 112.637 137.904C112.637 137.296 112.941 136.712 113.245 136.408C113.549 135.497 113.549 134.585 113.549 133.977C113.245 132.458 112.637 130.939 111.422 130.051C110.23 128.835 109.014 128.227 107.495 128.227L37.2341 122.174L9.39618 146.693ZM33.6112 180C32.6996 180 31.7881 179.696 30.8765 178.785L1.21543 149.123C0.607713 148.516 0 147.3 0 146.389C0 145.477 0.607713 144.262 1.21543 143.677L33.3074 115.208C34.2189 114.601 35.1305 114.297 36.0421 114.297L107.799 120.351C111.141 120.654 114.157 122.174 116.587 124.277C118.083 125.797 119.299 127.62 119.907 129.443L149.895 99.4546C152.606 96.7199 156.556 94.9201 160.483 94.9201C164.433 94.9201 168.36 96.4394 171.095 99.4546C176.845 105.508 176.845 114.905 171.095 120.958L118.995 173.339C118.083 174.25 117.195 174.554 115.98 174.554L48.4534 170.019L35.7382 179.088C35.1305 179.696 34.5228 180 33.6112 180Z" fill="#D2D2D2"/>
<path d="M47.5421 170.019C46.6305 170.019 45.4151 169.716 44.8074 168.804L15.1463 136.712C13.627 135.193 13.9309 132.762 15.4502 131.243C16.9461 129.747 19.3769 130.051 20.8962 131.547L50.5807 163.662C52.0766 165.158 51.7727 167.589 50.2768 169.108C49.3652 169.716 48.4537 170.019 47.5421 170.019Z" fill="#D2D2D2"/>
<path d="M55.4187 94.7799H118.995L112.029 26.6459H62.0801L55.4187 94.7799ZM123.249 102.353H51.1647C49.9726 102.353 49.061 102.049 48.4533 101.138C47.8456 100.226 47.2379 99.3144 47.5418 98.1223L55.1148 22.4153C55.4187 20.5921 56.9146 19.0728 58.7377 19.0728H115.676C117.499 19.0728 119.299 20.5921 119.299 22.4153L126.872 97.8185C126.872 98.1223 126.872 98.1223 126.872 98.4028C126.872 100.53 125.049 102.353 123.249 102.353Z" fill="#D2D2D2"/>
<path d="M100.53 41.792C98.4027 41.792 96.6029 39.9688 96.6029 37.8418V16.9692C96.6029 14.5384 95.6913 12.1075 93.8682 10.2844C92.0451 8.48461 89.6376 7.57304 87.2067 7.57304C82.0645 7.57304 77.8106 11.8037 77.8106 16.9692V37.8418C77.8106 39.9688 76.0108 41.792 73.8838 41.792C71.7568 41.792 69.957 39.9688 69.957 37.8418V16.9692C69.957 7.57304 77.5301 0 86.9029 0C91.4374 0 95.6913 1.82314 99.0104 4.83833C102.353 8.18076 103.872 12.4114 103.872 16.9692V37.8418C104.176 39.9688 102.353 41.792 100.53 41.792Z" fill="#D2D2D2"/>
<path d="M119.299 87.2069H55.1152C52.9882 87.2069 51.165 85.3837 51.165 83.2801C51.165 81.1531 52.9882 79.33 55.1152 79.33H119.299C121.426 79.33 123.249 81.1531 123.249 83.2801C123.249 85.3837 121.426 87.2069 119.299 87.2069Z" fill="#D2D2D2"/>
</g>
<defs>
<clipPath id="clip0_241_1441">
<rect width="180" height="180" fill="white"/>
</clipPath>
</defs>
</svg>
