<svg width="16" height="16" viewBox="0 0 16 16" fill="none" xmlns="http://www.w3.org/2000/svg">
<g clip-path="url(#clip0_94_2300)">
<path d="M14 1.3333H10.9733C10.5998 0.913955 10.1417 0.57837 9.62929 0.348582C9.11685 0.118794 8.5616 0 8 0C7.4384 0 6.88315 0.118794 6.37071 0.348582C5.85827 0.57837 5.40023 0.913955 5.02667 1.3333H2C1.46957 1.3333 0.960859 1.54401 0.585786 1.91909C0.210714 2.29416 0 2.80287 0 3.3333L0 16H16V3.3333C16 2.80287 15.7893 2.29416 15.4142 1.91909C15.0391 1.54401 14.5304 1.3333 14 1.3333ZM8 1.3333C8.70724 1.3333 9.38552 1.61425 9.88562 2.11435C10.3857 2.61445 10.6667 3.29272 10.6667 3.99997V4.66663H8.412L9.26667 2.96463L8.07333 2.36863L6.92133 4.66663H5.33333V3.99997C5.33333 3.29272 5.61428 2.61445 6.11438 2.11435C6.61448 1.61425 7.29276 1.3333 8 1.3333ZM14.6667 14.6666H1.33333V3.3333C1.33333 3.15649 1.40357 2.98692 1.5286 2.8619C1.65362 2.73687 1.82319 2.66663 2 2.66663H4.23333C4.08007 3.09451 4.00115 3.54547 4 3.99997V5.99997H12V3.99997C11.9988 3.54547 11.9199 3.09451 11.7667 2.66663H14C14.1768 2.66663 14.3464 2.73687 14.4714 2.8619C14.5964 2.98692 14.6667 3.15649 14.6667 3.3333V14.6666Z" fill="black"/>
</g>
<defs>
<clipPath id="clip0_94_2300">
<rect width="16" height="16" fill="white"/>
</clipPath>
</defs>
</svg>
