<svg width="16" height="16" viewBox="0 0 16 16" fill="none" xmlns="http://www.w3.org/2000/svg">
<g clip-path="url(#clip0_8_146)">
<path d="M12.8739 9.76679C12.3704 9.7672 11.8746 9.89011 11.4292 10.1249C10.9838 10.3597 10.6023 10.6994 10.3175 11.1146L5.98311 9.15749C6.29096 8.41409 6.29216 7.57909 5.98644 6.83482L10.3148 4.86774C10.7369 5.47821 11.3638 5.91718 12.0818 6.10502C12.7999 6.29286 13.5614 6.21713 14.2284 5.89157C14.8954 5.56601 15.4236 5.01218 15.7172 4.33054C16.0108 3.6489 16.0504 2.8846 15.8287 2.17628C15.6071 1.46796 15.1389 0.862538 14.5091 0.469828C13.8794 0.0771177 13.1297 -0.0768665 12.3961 0.0358066C11.6625 0.14848 10.9936 0.520347 10.5107 1.08395C10.0278 1.64756 9.76295 2.36558 9.7641 3.10776C9.76692 3.28343 9.78475 3.45853 9.81737 3.63116L5.21599 5.7221C4.77406 5.30805 4.2208 5.03211 3.6242 4.92818C3.02759 4.82425 2.41362 4.89685 1.85772 5.13707C1.30181 5.37729 0.828175 5.77466 0.495005 6.28036C0.161834 6.78607 -0.0163621 7.37808 -0.0176927 7.98367C-0.0190233 8.58925 0.15657 9.18204 0.487515 9.6892C0.81846 10.1964 1.29034 10.5958 1.84519 10.8385C2.40004 11.0811 3.01368 11.1564 3.61074 11.0551C4.20779 10.9538 4.76225 10.6803 5.206 10.2682L9.81937 12.3512C9.78733 12.5236 9.76973 12.6985 9.76677 12.8739C9.76663 13.4886 9.94881 14.0895 10.2902 14.6007C10.6317 15.1119 11.117 15.5103 11.6849 15.7456C12.2528 15.9809 12.8778 16.0425 13.4807 15.9226C14.0836 15.8027 14.6374 15.5067 15.0721 15.0721C15.5067 14.6374 15.8027 14.0836 15.9226 13.4807C16.0425 12.8778 15.9809 12.2529 15.7456 11.685C15.5103 11.1171 15.1119 10.6317 14.6007 10.2903C14.0895 9.94883 13.4886 9.76665 12.8739 9.76679ZM12.8739 1.3318C13.2251 1.33167 13.5686 1.43572 13.8607 1.63078C14.1529 1.82585 14.3806 2.10317 14.5151 2.42767C14.6496 2.75217 14.6849 3.10928 14.6165 3.45383C14.548 3.79837 14.3789 4.11488 14.1306 4.36332C13.8822 4.61176 13.5658 4.78097 13.2213 4.84955C12.8767 4.91813 12.5196 4.883 12.1951 4.7486C11.8705 4.6142 11.5931 4.38657 11.3979 4.0945C11.2027 3.80243 11.0986 3.45904 11.0986 3.10776C11.0989 2.63697 11.2861 2.18556 11.6189 1.85259C11.9517 1.51963 12.4031 1.33233 12.8739 1.3318ZM3.10774 9.76679C2.75646 9.76692 2.41303 9.66287 2.12089 9.46781C1.82875 9.27274 1.60101 8.99542 1.46649 8.67092C1.33197 8.34641 1.29671 7.98931 1.36516 7.64476C1.43361 7.30021 1.6027 6.98371 1.85105 6.73527C2.09939 6.48683 2.41584 6.31762 2.76036 6.24904C3.10488 6.18046 3.462 6.21559 3.78655 6.34999C4.11111 6.48439 4.38851 6.71201 4.58369 7.00408C4.77886 7.29615 4.88304 7.63954 4.88304 7.99083C4.88251 8.46156 4.69532 8.91288 4.36252 9.2458C4.02972 9.57872 3.57848 9.76608 3.10774 9.76679ZM12.8739 14.6498C12.5226 14.6498 12.1792 14.5457 11.8872 14.3505C11.5951 14.1554 11.3675 13.878 11.2331 13.5535C11.0987 13.229 11.0635 12.8719 11.132 12.5274C11.2006 12.1829 11.3697 11.8665 11.6181 11.6181C11.8664 11.3697 12.1829 11.2006 12.5274 11.1321C12.8719 11.0635 13.229 11.0987 13.5535 11.2331C13.878 11.3675 14.1554 11.5952 14.3505 11.8872C14.5457 12.1793 14.6498 12.5226 14.6498 12.8739C14.6495 13.3448 14.4623 13.7963 14.1293 14.1293C13.7963 14.4623 13.3448 14.6495 12.8739 14.6498Z" fill="black"/>
</g>
<defs>
<clipPath id="clip0_8_146">
<rect width="16" height="16" fill="white"/>
</clipPath>
</defs>
</svg>
