<svg width="16" height="16" viewBox="0 0 16 16" fill="none" xmlns="http://www.w3.org/2000/svg">
<g clip-path="url(#clip0_108_929)">
<path d="M7.99998 0.66667C0.248646 0.654003 -2.94269 10.78 3.40798 15.212L3.58065 15.3333H12.4193L12.592 15.212C18.9453 10.778 15.7473 0.653336 7.99998 0.66667ZM11.992 14H4.00798C-1.08869 10.2133 1.64665 1.984 7.99998 2C14.3533 1.984 17.0886 10.2147 11.992 14ZM9.32531 8.52L13.016 10.14L12.4826 11.3613L8.79131 9.74134C8.55512 9.91564 8.26801 10.0071 7.97452 10.0016C7.68103 9.99607 7.39756 9.89385 7.16809 9.71078C6.93863 9.52772 6.77598 9.27405 6.7054 8.98912C6.63481 8.70419 6.66023 8.40393 6.7777 8.13491C6.89517 7.8659 7.09814 7.64317 7.35511 7.50128C7.61208 7.35939 7.90869 7.30627 8.19894 7.35015C8.48918 7.39403 8.75683 7.53247 8.96037 7.74399C9.16391 7.95551 9.29262 8.22829 9.32531 8.52ZM13.3333 8.66667C13.3333 8.718 13.3273 8.76867 13.326 8.82L11.9746 8.22667C11.8654 7.24855 11.3997 6.34492 10.6666 5.68828C9.93345 5.03163 8.98419 4.66796 7.99998 4.66667C4.48798 4.6 2.64131 9.122 5.20331 11.5233L4.26998 12.4767C0.859313 9.23 3.29265 3.27734 7.99998 3.33334C9.41398 3.33492 10.7696 3.89734 11.7695 4.89719C12.7693 5.89704 13.3317 7.25267 13.3333 8.66667Z" fill="black"/>
</g>
<defs>
<clipPath id="clip0_108_929">
<rect width="16" height="16" fill="white"/>
</clipPath>
</defs>
</svg>
