<svg width="16" height="16" viewBox="0 0 16 16" fill="none" xmlns="http://www.w3.org/2000/svg">
<path d="M15.76 12.0667L9.49334 1.52002C9.18001 0.986687 8.62667 0.666687 8.00001 0.666687C7.37334 0.666687 6.82001 0.986687 6.51334 1.52002L0.240005 12.0667C-0.0733285 12.6134 -0.0733285 13.26 0.240005 13.8C0.553338 14.34 1.11334 14.6667 1.73334 14.6667H14.2733C14.9 14.6667 15.46 14.34 15.7667 13.8C16.0733 13.26 16.0733 12.6134 15.76 12.0667ZM14.6133 13.1334C14.58 13.1934 14.48 13.3267 14.2733 13.3267H1.72667C1.52 13.3267 1.42 13.1867 1.38667 13.1334C1.35334 13.08 1.28667 12.92 1.38667 12.74L7.66001 2.19335C7.76 2.02002 7.93334 2.00002 8.00001 2.00002C8.06667 2.00002 8.23334 2.02002 8.34001 2.20002L14.6067 12.7467C14.7133 12.92 14.64 13.08 14.6067 13.14L14.6133 13.1334ZM7.33334 5.33335H8.66667V9.33335H7.33334V5.33335ZM7.33334 10.6667H8.66667V12H7.33334V10.6667Z" fill="black"/>
</svg>
